<svg xmlns:xlink="http://www.w3.org/1999/xlink" xmlns="http://www.w3.org/2000/svg" width="186" height="175" viewBox="0 0 186 175" fill="none">
<path d="M106.059 105.76L145.519 66.2998" stroke="#E4F0F8" stroke-width="13.1533" stroke-miterlimit="10" stroke-linecap="round" stroke-linejoin="round"/>
<path d="M198.132 39.994H171.826V13.6875L145.519 39.994V66.3005H171.826L198.132 39.994Z" stroke="#E4F0F8" stroke-width="13.1533" stroke-miterlimit="10" stroke-linecap="round" stroke-linejoin="round"/>
<path d="M106.059 145.219C127.852 145.219 145.519 127.553 145.519 105.76C145.519 83.9665 127.852 66.2998 106.059 66.2998C84.266 66.2998 66.5992 83.9665 66.5992 105.76C66.5992 127.553 84.266 145.219 106.059 145.219Z" stroke="#E4F0F8" stroke-width="13.1533" stroke-miterlimit="10" stroke-linecap="round" stroke-linejoin="round"/>
<path d="M178.402 59.7234C186.951 72.8767 191.555 88.6606 191.555 105.76C191.555 153.112 153.411 191.256 106.059 191.256C58.7072 191.256 20.5628 153.112 20.5628 105.76C20.5628 58.4081 58.7072 20.2637 106.059 20.2637C123.158 20.2637 138.942 24.8673 152.095 33.4169" stroke="#E4F0F8" stroke-width="13.1533" stroke-miterlimit="10" stroke-linecap="round" stroke-linejoin="round"/>
</svg>