<svg xmlns:xlink="http://www.w3.org/1999/xlink" xmlns="http://www.w3.org/2000/svg" width="275" height="280" viewBox="0 0 275 280" fill="none">
<g clip-path="url(#clip0_66_1543)">
<path d="M163.501 32.3657C174.885 20.9831 192.967 20.384 205.054 30.5685L207.011 32.3657L236.231 61.5858H277.555C293.775 61.5858 307.062 74.1366 308.237 90.0559L308.321 92.3521V133.675L337.541 162.895C348.925 174.279 349.524 192.361 339.339 204.449L337.541 206.406L308.321 235.627V276.95C308.321 293.169 295.771 306.458 279.851 307.632L277.555 307.717H236.231L207.011 336.935C195.629 348.319 177.547 348.918 165.458 338.733L163.501 336.935L134.281 307.717H92.9575C76.7381 307.717 63.4501 295.165 62.2756 279.246L62.1913 276.95V235.625L32.9713 206.406C21.5888 195.023 20.9898 176.941 31.1742 164.852L32.9715 162.895L62.1913 133.676V92.3521C62.1913 76.1327 74.742 62.8447 90.6614 61.6702L92.9575 61.5858H134.281L163.501 32.3657ZM185.256 54.1207L156.036 83.3408C150.908 88.4696 144.155 91.6005 136.986 92.233L134.281 92.3521H92.9575V133.676C92.9575 140.929 90.3964 147.918 85.7749 153.434L83.9462 155.431L54.7264 184.652L83.9462 213.87C89.075 218.999 92.206 225.752 92.8384 232.92L92.9575 235.625V276.95H134.281C141.535 276.95 148.523 279.511 154.039 284.132L156.036 285.96L185.256 315.18L214.476 285.96C219.605 280.832 226.358 277.702 233.526 277.069L236.231 276.95H277.555V235.627C277.555 228.373 280.116 221.384 284.738 215.868L286.566 213.872L315.787 184.652L286.566 155.43C281.437 150.302 278.306 143.549 277.674 136.38L277.555 133.675V92.3521H236.231C228.979 92.3521 221.99 89.791 216.474 85.1695L214.476 83.3408L185.256 54.1207ZM232.627 138.233C238.634 132.226 248.375 132.226 254.382 138.233C259.928 143.779 260.355 152.504 255.662 158.539L254.382 159.988L179.298 235.073C173.162 241.208 163.485 241.646 156.844 236.387L155.368 235.073L118.384 198.089C112.377 192.082 112.377 182.341 118.384 176.334C123.929 170.789 132.655 170.362 138.69 175.054L140.139 176.334L167.333 203.527L232.627 138.233Z" fill="#08579E"/>
</g>
<defs>
<clipPath id="clip0_66_1543">
<rect width="369.195" height="369.195" fill="white" transform="translate(0.659973 0.0524902)"/>
</clipPath>
</defs>
</svg>