<svg xmlns:xlink="http://www.w3.org/1999/xlink" xmlns="http://www.w3.org/2000/svg" width="279" height="289" viewBox="0 0 279 289" fill="none">
<path d="M139.033 54.7436V31.6689M78.434 78.7515L62.1177 62.4352M78.434 200.883L62.1177 217.2M200.566 78.7515L216.883 62.4352M54.4261 139.351H31.3514M244.631 249.949L206.299 321.133C201.921 329.266 199.731 333.332 197.097 334.361C194.811 335.253 192.236 335.001 190.167 333.683C187.781 332.163 186.423 327.749 183.703 318.923L130.499 146.2C128.277 138.989 127.167 135.384 128.06 132.949C128.839 130.828 130.51 129.156 132.631 128.378C135.066 127.484 138.672 128.595 145.883 130.816L318.604 184.02C327.43 186.74 331.844 188.1 333.364 190.484C334.684 192.555 334.934 195.128 334.042 197.414C333.015 200.05 328.947 202.239 320.816 206.618L249.632 244.948C248.423 245.599 247.818 245.924 247.29 246.342C246.82 246.713 246.395 247.137 246.024 247.608C245.606 248.136 245.281 248.74 244.631 249.949Z" stroke="#08579E" stroke-width="30.7663" stroke-linecap="round" stroke-linejoin="round"/>
</svg>