<svg xmlns:xlink="http://www.w3.org/1999/xlink" xmlns="http://www.w3.org/2000/svg" width="186" height="154" viewBox="0 0 186 154" fill="none">
<path d="M199.929 66.2728L171.861 18.2494C166.558 9.17696 157.576 2.96287 147.217 1.19992C136.859 -0.562203 126.325 2.33028 118.32 9.13791C112.76 13.8665 111.947 22.0581 116.47 27.7868C119.728 31.914 125.135 33.7805 130.244 32.5425L134.713 31.4602C136.881 30.9357 139.147 32.0982 139.984 34.1649L153.001 66.2724H59.1L72.1163 34.1649C72.9545 32.0977 75.2209 30.9357 77.3887 31.4602L81.8572 32.5421C86.9676 33.7801 92.3732 31.9136 95.6311 27.7868C100.154 22.0577 99.3411 13.8661 93.781 9.13791C85.776 2.33028 75.2448 -0.563847 64.8849 1.19992C54.5255 2.96287 45.5431 9.17696 40.2407 18.2494L12.1724 66.2728H0.824463V168.821H83.9514L106.173 141.39L128.125 168.821H211.277V66.2728H199.929ZM152.704 29.0092C149.332 20.6885 140.208 16.0084 131.481 18.1216L127.981 18.9696C132.78 15.2492 138.893 13.707 144.914 14.7317C151.26 15.8115 156.762 19.619 160.011 25.1767L184.031 66.2744H167.811L152.704 29.0092ZM52.0901 25.1758C55.3385 19.6182 60.8411 15.8111 67.1876 14.7309C73.2068 13.707 79.3214 15.2488 84.1199 18.9687L80.6195 18.1212C71.8944 16.008 62.7701 20.6881 59.3971 29.0084L44.2898 66.2732H28.0698L52.0901 25.1758ZM197.552 155.096H134.72L106.238 119.505L77.406 155.096H14.5495V79.9982H197.551V155.096H197.552Z" fill="#E4F0F8"/>
</svg>