<svg xmlns:xlink="http://www.w3.org/1999/xlink" xmlns="http://www.w3.org/2000/svg" width="298" height="292" viewBox="0 0 298 292" fill="none">
<path d="M169.681 39.7097C178.972 34.5473 190.271 34.5473 199.564 39.7096L315.158 103.929C320.042 106.642 323.071 111.789 323.071 117.376V244.053C323.071 255.226 317.013 265.522 307.246 270.947L199.564 330.771C190.271 335.933 178.972 335.933 169.681 330.771L61.9992 270.947C52.232 265.522 46.1744 255.226 46.1744 244.053V117.376C46.1744 111.789 49.2032 106.642 54.0869 103.929L169.681 39.7097Z" stroke="#08579E" stroke-width="30.7663" stroke-linecap="round" stroke-linejoin="round"/>
<path d="M115.399 69.8667L253.847 146.782V200.623" stroke="#08579E" stroke-width="30.7663" stroke-linecap="round" stroke-linejoin="round"/>
<path d="M92.3239 190.287L138.473 216.006" stroke="#08579E" stroke-width="30.7663" stroke-linecap="round" stroke-linejoin="round"/>
<path d="M46.1744 108.324L184.623 185.24M184.623 185.24L323.071 108.324M184.623 185.24V331.38" stroke="#08579E" stroke-width="30.7663" stroke-linejoin="round"/>
</svg>