<svg xmlns:xlink="http://www.w3.org/1999/xlink" xmlns="http://www.w3.org/2000/svg" width="186" height="175" viewBox="0 0 186 175" fill="none">
<g clip-path="url(#clip0_101_1658)">
<path d="M209.383 82.5087L155.017 28.1421C152.481 25.6056 148.367 25.6056 145.831 28.1421L119.447 54.5263C116.91 57.0629 116.91 61.1757 119.447 63.7122L124.416 68.6813L110.52 69.8988C108.987 70.0332 107.496 70.3485 106.056 70.829C104.62 70.3497 103.125 70.0328 101.599 69.8988L87.7026 68.6813L92.6717 63.7122C95.2082 61.1757 95.2082 57.0629 92.6717 54.5263L66.2875 28.1421C63.7514 25.6056 59.6381 25.6056 57.1016 28.1421L2.73589 82.5087C0.199365 85.0448 0.199365 89.158 2.73589 91.6946L29.1201 118.079C31.6554 120.614 35.7699 120.615 38.306 118.079L44.183 112.202L45.3981 126.094C45.7959 130.651 47.7977 134.942 51.0322 138.177L90.1528 177.293C100.891 188.031 112.23 187.029 119.57 179.69C123.048 176.212 160.946 138.318 161.09 138.174C164.323 134.94 166.323 130.65 166.721 126.094L167.936 112.201L173.813 118.078C176.349 120.614 180.463 120.614 182.999 118.078L209.383 91.6942C211.919 89.158 211.92 85.0448 209.383 82.5087ZM33.713 104.3L16.5147 87.1016L61.6954 41.9214L78.8932 59.1193C24.3602 113.652 38.2887 99.7238 33.713 104.3ZM146.006 134.864C146.006 134.865 146.005 134.866 146.004 134.867C143.621 137.253 139.762 137.253 137.374 134.865C137.37 134.861 137.365 134.857 137.361 134.853L126.989 124.481C124.452 121.944 120.34 121.945 117.803 124.481C115.267 127.017 115.267 131.13 117.803 133.667L128.188 144.052C128.19 144.054 128.192 144.055 128.195 144.057C130.573 146.443 130.579 150.298 128.186 152.686C125.803 155.071 121.943 155.072 119.554 152.684C119.552 152.681 119.548 152.678 119.546 152.676L109.17 142.3C106.633 139.763 102.52 139.763 99.9837 142.3C97.4471 144.836 97.4471 148.949 99.9837 151.486L110.369 161.87C110.37 161.872 110.371 161.873 110.373 161.875C112.744 164.251 112.77 168.106 110.362 170.509C108.935 171.94 106.888 172.564 104.885 172.18C102.703 171.762 101.93 170.699 99.3375 168.106L60.2164 128.99C59.1383 127.912 58.4712 126.482 58.3384 124.962L56.1739 100.211C58.8884 97.4964 71.3782 85.0037 75.7122 80.6717L100.464 82.8404C101.982 82.9731 103.41 83.6394 104.487 84.7155C113.994 94.2183 143.558 123.784 146.004 126.23C148.385 128.612 148.386 132.486 146.006 134.864ZM154.53 116.383C152.496 114.349 130.216 92.0682 120.235 82.089L136.405 80.6721C141.024 85.2877 154.577 98.8458 155.944 100.212L154.53 116.383ZM178.406 104.3C172.322 98.2161 134.569 60.4634 133.226 59.1197L150.424 41.9218L195.604 87.1012L178.406 104.3Z" fill="#E4F0F8"/>
</g>
<defs>
<clipPath id="clip0_101_1658">
<rect width="210.452" height="210.452" fill="white" transform="translate(0.833252 0.53418)"/>
</clipPath>
</defs>
</svg>