<svg xmlns:xlink="http://www.w3.org/1999/xlink" xmlns="http://www.w3.org/2000/svg" width="178" height="118" viewBox="0 0 178 118" fill="none">
<g clip-path="url(#clip0_283_8461)">
<rect width="178" height="118" fill="white"/>
<g clip-path="url(#clip1_283_8461)">
<rect width="177.807" height="91.013" transform="translate(0.419922 12.5615)" fill="white"/>
<path d="M399.284 431.153H-221.689V-396.937H399.284V431.153Z" stroke="#373535" stroke-width="0.0944285"/>
<mask id="mask0_283_8461" style="mask-type:luminance" maskUnits="userSpaceOnUse" x="-318" y="-557" width="810" height="1145">
<path d="M-317.194 -556.545H491.952V587.997H-317.194V-556.545Z" fill="white"/>
</mask>
<g mask="url(#mask0_283_8461)">
<path d="M75.0392 52.7335L74.8272 53.6362L75.8276 53.2283C76.635 52.8953 77.5213 52.7335 78.4565 52.7335H89.5618L89.6991 52.1571C89.8635 51.4542 89.9166 51.0001 89.9166 50.7473L89.9043 50.6222C89.869 50.4835 89.816 50.2307 89.7344 49.918L89.2587 48.1112H99.7129L98.6173 52.7335H103.055C104.333 52.7335 105.573 53.0339 106.467 53.9135C107.349 54.7632 107.701 55.9038 107.701 57.1165C107.701 57.7677 107.601 58.4583 107.423 59.1734L106.188 64.3639C106.027 65.0654 105.971 65.5195 105.971 65.771L106.589 68.4111H96.9712H93.1775H83.025H82.8551H73.4013H69.5464H62.7609H62.368H57.8308C56.5639 68.4111 55.3324 68.1256 54.4353 67.2787C53.545 66.4358 53.2133 65.2884 53.2133 64.0852C53.2133 63.4164 53.3098 62.7203 53.4852 61.9848L54.0452 59.5772L53.5354 59.2862C53.3778 59.2427 53.2133 59.2169 53.0923 59.2101C52.8395 59.1938 52.5133 59.1829 52.1259 59.1829C51.6338 59.1829 51.2247 59.2128 50.8903 59.2713C50.7136 59.3025 50.5967 59.3134 50.4947 59.3746L50.3751 59.4507L50.3099 59.5772C50.2609 59.6669 50.2215 59.7756 50.1984 59.9429C50.1875 60.0136 50.1712 60.1169 50.1454 60.2528L49.1572 64.3639C48.9982 65.0654 48.9424 65.5195 48.9424 65.771L49.5636 68.4111H36.1516C35.9015 68.4043 35.631 68.4111 35.3578 68.4111H19.1416L20.6259 66.168C20.8162 65.8825 21.0025 65.544 21.1561 65.1783C21.311 64.8493 21.4782 64.3354 21.6372 63.6448L24.3531 52.2046C24.4401 51.8444 24.5121 51.4841 24.557 51.151C24.595 50.8384 24.6209 50.6072 24.6209 50.4495C24.5624 49.9533 24.5515 49.8731 24.542 49.8201L24.2172 48.1112H39.4887C40.8629 48.1112 42.2099 48.2988 43.141 48.9949C44.0993 49.7127 44.5193 50.7717 44.5193 51.9192L44.5003 52.7335H51.7004C52.0593 52.7525 52.4276 52.7335 52.7946 52.7335H53.5354H58.2821H63.8646H65.4101H75.0392Z" fill="#424398"/>
<path d="M75.0392 52.7335L74.8272 53.6362L75.8276 53.2283C76.635 52.8953 77.5213 52.7335 78.4565 52.7335H89.5618L89.6991 52.1571C89.8635 51.4542 89.9166 51.0001 89.9166 50.7473L89.9043 50.6222C89.869 50.4835 89.816 50.2307 89.7344 49.918L89.2587 48.1112H99.7129L98.6173 52.7335H103.055C104.333 52.7335 105.573 53.0339 106.467 53.9135C107.349 54.7632 107.701 55.9038 107.701 57.1165C107.701 57.7677 107.601 58.4583 107.423 59.1734L106.188 64.3639C106.027 65.0654 105.971 65.5195 105.971 65.771L106.589 68.4111H96.9712H93.1775H83.025H82.8551H73.4013H69.5464H62.7609H62.368H57.8308C56.5639 68.4111 55.3324 68.1256 54.4353 67.2787C53.545 66.4358 53.2133 65.2884 53.2133 64.0852C53.2133 63.4164 53.3098 62.7203 53.4852 61.9848L54.0452 59.5772L53.5354 59.2862C53.3778 59.2427 53.2133 59.2169 53.0923 59.2101C52.8395 59.1938 52.5133 59.1829 52.1259 59.1829C51.6338 59.1829 51.2247 59.2128 50.8903 59.2713C50.7136 59.3025 50.5967 59.3134 50.4947 59.3746L50.3751 59.4507L50.3099 59.5772C50.2609 59.6669 50.2215 59.7756 50.1984 59.9429C50.1875 60.0136 50.1712 60.1169 50.1454 60.2528L49.1572 64.3639C48.9982 65.0654 48.9424 65.5195 48.9424 65.771L49.5636 68.4111H36.1516C35.9015 68.4043 35.631 68.4111 35.3578 68.4111H19.1416L20.6259 66.168C20.8162 65.8825 21.0025 65.544 21.1561 65.1783C21.311 64.8493 21.4782 64.3354 21.6372 63.6448L24.3531 52.2046C24.4401 51.8444 24.5121 51.4841 24.557 51.151C24.595 50.8384 24.6209 50.6072 24.6209 50.4495C24.5624 49.9533 24.5515 49.8731 24.542 49.8201L24.2172 48.1112H39.4887C40.8629 48.1112 42.2099 48.2988 43.141 48.9949C44.0993 49.7127 44.5193 50.7717 44.5193 51.9192L44.5003 52.7335H51.7004C52.0593 52.7525 52.4276 52.7335 52.7946 52.7335H53.5354H58.2821H63.8646H65.4101H75.0392Z" stroke="#424398" stroke-width="0.127378" stroke-miterlimit="3.864"/>
<path d="M88.0452 57.7545L88.9899 57.5533L88.7466 58.5756C88.608 58.32 88.4272 58.0862 88.188 57.8796C88.1431 57.832 88.0983 57.7912 88.0452 57.7545ZM72.0656 62.9328L72.3388 61.7745C72.4638 62.2938 72.7289 62.7601 73.1407 63.1394C73.4439 63.4045 73.8285 63.5867 74.2581 63.7023C73.9672 63.6832 73.7511 63.6574 73.6002 63.6275C73.2767 63.5418 72.8838 63.3746 72.3972 63.1095L72.0656 62.9328ZM41.9969 58.7347C41.8855 58.4859 41.721 58.2616 41.5185 58.0699C41.8216 57.8918 42.0826 57.6675 42.3123 57.4051L41.9969 58.7347ZM35.6573 53.3253L35.1924 55.3224C35.1502 55.4909 35.1747 55.5453 35.1475 55.6051C35.0469 55.6228 34.93 55.6323 34.7887 55.6323H32.2427L32.7851 53.3253H35.6573ZM34.0003 60.2899L33.3791 62.911C33.3506 63.0755 33.3709 63.1204 33.3506 63.1693C33.2473 63.1884 33.1276 63.1965 32.9808 63.1965H30.4376L31.1309 60.2899H34.0003ZM97.7831 58.6789L96.3994 64.4908C96.3654 64.6553 96.3314 64.8075 96.3015 64.9408L96.3545 64.8442C96.4048 64.7531 96.5625 64.363 96.7501 63.5745L97.9136 58.6789H97.7831ZM99.3205 57.5682L97.8307 63.8246C97.6431 64.6321 97.4678 65.1284 97.3373 65.3581C97.2041 65.6287 96.9703 65.9889 96.6277 66.4144L95.5607 67.7563L95.1149 66.08C95.1013 66.0243 95.0863 65.9223 95.0863 65.77C95.0863 65.456 95.1543 64.9557 95.3228 64.2325L96.8194 57.9407C96.8996 57.5941 96.9839 57.5682 97.1959 57.5682H99.3205ZM83.0254 68.9648H82.8555H73.4017H69.5468H62.7599H62.3671H57.8298C56.495 68.9648 55.0963 68.6671 54.0497 67.6828C53.022 66.704 52.6564 65.3853 52.6564 64.0843C52.6564 63.3651 52.7597 62.6215 52.9432 61.8574L53.4122 59.8495L53.3197 59.8005C53.2776 59.791 53.1498 59.7692 53.0574 59.7638C52.81 59.7461 52.5001 59.7407 52.1249 59.7407C51.6736 59.7407 51.2944 59.7611 50.9886 59.8195C50.9043 59.8331 50.8458 59.81 50.7928 59.844C50.7453 59.931 50.7548 60.0643 50.6786 60.3824L49.704 64.4908C49.5423 65.1814 49.5002 65.5811 49.5002 65.77L50.2668 68.9648H36.1507C35.9046 68.9526 35.6301 68.9648 35.3569 68.9648H18.1035L20.1642 65.8666C20.3341 65.6028 20.5054 65.2956 20.6522 64.9571C20.7827 64.6729 20.9417 64.193 21.0953 63.5187L23.8111 52.0745C23.8968 51.7319 23.962 51.3934 24.0082 51.0821C24.0476 50.7993 24.0721 50.5886 24.0721 50.4499C24.0137 50.0502 24.0082 49.9768 24.0001 49.9238L23.5461 47.5529H39.4877C40.8878 47.5529 42.3898 47.7378 43.4731 48.5521C44.604 49.3963 45.0743 50.6335 45.0743 51.9195L45.0689 52.1806H51.7008C52.0583 52.2023 52.428 52.1806 52.7937 52.1806H53.5345H58.2825H63.865H65.4105H75.7397L75.6133 52.7148C76.4995 52.3505 77.4551 52.1806 78.4555 52.1806H89.1259L89.1598 52.0269C89.3175 51.339 89.3651 50.9366 89.3651 50.7477C89.3298 50.6131 89.274 50.367 89.1979 50.0625L88.5359 47.5529H100.42L99.3205 52.1806H103.056C104.407 52.1806 105.814 52.4919 106.858 53.5156C107.874 54.4999 108.251 55.7995 108.251 57.1155C108.251 57.8211 108.145 58.5579 107.964 59.3029L106.727 64.4908C106.571 65.1787 106.523 65.5811 106.523 65.77L107.295 68.9648H96.9703H93.1765H83.0254ZM85.5836 67.3158L85.1568 67.8582H95.4819H95.5852H105.914L105.445 66.08C105.429 66.0256 105.415 65.925 105.415 65.77C105.415 65.456 105.482 64.9557 105.649 64.2325L106.883 59.0365C107.053 58.3513 107.144 57.7123 107.144 57.1155C107.144 56.0103 106.825 55.0273 106.077 54.3082C105.331 53.57 104.259 53.2886 103.056 53.2886H98.3037C98.1732 53.2886 98.0414 53.3021 97.9082 53.3225L99.0119 48.6649H89.9754L90.2677 49.7797C90.3547 50.0938 90.4131 50.3371 90.4484 50.4785C90.4512 50.4975 90.4716 50.5886 90.4716 50.7477C90.4716 51.0658 90.4049 51.5674 90.235 52.288L89.8422 53.9547L89.8898 53.2886H78.4555C77.1234 53.2886 75.9313 53.6366 74.9146 54.3544C74.5 54.6589 74.1371 55.0042 73.8421 55.3958L74.3383 53.2886H65.3018L65.5981 54.4061C65.6783 54.7201 65.7395 54.9634 65.7762 55.1062C65.7762 55.1266 65.8006 55.219 65.8006 55.374C65.8006 55.6881 65.7286 56.1911 65.5614 56.913L64.0961 63.1884C64.0567 63.3515 63.9901 63.4902 63.9547 63.5514C63.9099 63.5622 63.8256 63.5772 63.6897 63.5772H61.5923L64.0105 53.2886H56.877H54.974H52.7937C51.8653 53.2886 51.0321 53.4204 50.3619 53.7589L50.4258 53.2886H43.7993C43.9054 52.8182 43.9638 52.3614 43.9638 51.9195C43.9638 50.9149 43.609 50.0353 42.8098 49.4385C42.0282 48.8566 40.8443 48.6649 39.4877 48.6649H24.8863L25.0889 49.7158C25.1011 49.7919 25.112 49.8993 25.131 50.0462L25.1419 50.1413C25.165 50.246 25.1759 50.3466 25.1759 50.4499C25.1759 50.6226 25.1514 50.8823 25.1065 51.2289C25.0589 51.5824 24.9869 51.9495 24.8918 52.3369L22.1786 63.7689C22.0142 64.4853 21.8388 65.0305 21.6635 65.4098C21.4936 65.8027 21.2992 66.1616 21.0899 66.4797L20.1737 67.8582H35.3569C36.8684 67.8582 38.1719 67.6162 39.1275 67.0113L38.456 67.8582H48.8858L48.4141 66.08C48.4005 66.0243 48.3869 65.9223 48.3869 65.77C48.3869 65.456 48.4535 64.9571 48.6207 64.2325L49.6062 60.1227C49.7842 59.3464 50.0276 59.0324 50.1798 58.9223C50.3891 58.7863 50.96 58.6286 52.1249 58.6286C53.0098 58.6286 53.4475 58.6762 53.5671 58.7048C53.6922 58.7415 53.9246 58.8434 54.2617 59.0895L54.66 59.3736L54.0238 62.113C53.8566 62.8131 53.7656 63.4711 53.7656 64.0843C53.7656 65.1855 54.0741 66.167 54.8204 66.878C55.5707 67.589 56.6364 67.8582 57.8298 67.8582H62.7599C63.0522 67.8582 63.339 67.8093 63.6054 67.7168L63.5918 67.8582H70.7484H72.0234H83.0254C83.9701 67.8582 84.8305 67.6856 85.5836 67.3158ZM85.5836 67.3158L85.1568 67.8582H95.4819H95.5852H105.914L105.445 66.08C105.429 66.0256 105.415 65.925 105.415 65.77C105.415 65.456 105.482 64.9557 105.649 64.2325L106.883 59.0365C107.053 58.3513 107.144 57.7123 107.144 57.1155C107.144 56.0103 106.825 55.0273 106.077 54.3082C105.331 53.57 104.259 53.2886 103.056 53.2886H98.3037C98.1732 53.2886 98.0414 53.3021 97.9082 53.3225L99.0119 48.6649H89.9754L90.2677 49.7797C90.3547 50.0938 90.4131 50.3371 90.4484 50.4785C90.4512 50.4975 90.4716 50.5886 90.4716 50.7477C90.4716 51.0658 90.4049 51.5674 90.235 52.288L89.8422 53.9547L89.8898 53.2886H78.4555C77.1234 53.2886 75.9313 53.6366 74.9146 54.3544C74.5 54.6589 74.1371 55.0042 73.8421 55.3958L74.3383 53.2886H65.3018L65.5981 54.4061C65.6783 54.7201 65.7395 54.9634 65.7762 55.1062C65.7762 55.1266 65.8006 55.219 65.8006 55.374C65.8006 55.6881 65.7286 56.1911 65.5614 56.913L64.0961 63.1884C64.0567 63.3515 63.9901 63.4902 63.9547 63.5514C63.9099 63.5622 63.8256 63.5772 63.6897 63.5772H61.5923L64.0105 53.2886H56.877H54.974H52.7937C51.8653 53.2886 51.0321 53.4204 50.3619 53.7589L50.4258 53.2886H43.7993C43.9054 52.8182 43.9638 52.3614 43.9638 51.9195C43.9638 50.9149 43.609 50.0353 42.8098 49.4385C42.0282 48.8566 40.8443 48.6649 39.4877 48.6649H24.8863L25.0889 49.7158C25.1011 49.7919 25.112 49.8993 25.131 50.0462L25.1419 50.1413C25.165 50.246 25.1759 50.3466 25.1759 50.4499C25.1759 50.6226 25.1514 50.8823 25.1065 51.2289C25.0589 51.5824 24.9869 51.9495 24.8918 52.3369L22.1786 63.7689C22.0142 64.4853 21.8388 65.0305 21.6635 65.4098C21.4936 65.8027 21.2992 66.1616 21.0899 66.4797L20.1737 67.8582H35.3569C36.8684 67.8582 38.1719 67.6162 39.1275 67.0113L38.456 67.8582H48.8858L48.4141 66.08C48.4005 66.0243 48.3869 65.9223 48.3869 65.77C48.3869 65.456 48.4535 64.9571 48.6207 64.2325L49.6062 60.1227C49.7842 59.3464 50.0276 59.0324 50.1798 58.9223C50.3891 58.7863 50.96 58.6286 52.1249 58.6286C53.0098 58.6286 53.4475 58.6762 53.5671 58.7048C53.6922 58.7415 53.9246 58.8434 54.2617 59.0895L54.66 59.3736L54.0238 62.113C53.8566 62.8131 53.7656 63.4711 53.7656 64.0843C53.7656 65.1855 54.0741 66.167 54.8204 66.878C55.5707 67.589 56.6364 67.8582 57.8298 67.8582H62.7599C63.0522 67.8582 63.339 67.8093 63.6054 67.7168L63.5918 67.8582H70.7484H72.0234H83.0254C83.9701 67.8582 84.8305 67.6856 85.5836 67.3158ZM83.0254 68.9648H82.8555H73.4017H69.5468H62.7599H62.3671H57.8298C56.495 68.9648 55.0963 68.6671 54.0497 67.6828C53.022 66.704 52.6564 65.3853 52.6564 64.0843C52.6564 63.3651 52.7597 62.6215 52.9432 61.8574L53.4122 59.8495L53.3197 59.8005C53.2776 59.791 53.1498 59.7692 53.0574 59.7638C52.81 59.7461 52.5001 59.7407 52.1249 59.7407C51.6736 59.7407 51.2944 59.7611 50.9886 59.8195C50.9043 59.8331 50.8458 59.81 50.7928 59.844C50.7453 59.931 50.7548 60.0643 50.6786 60.3824L49.704 64.4908C49.5423 65.1814 49.5002 65.5811 49.5002 65.77L50.2668 68.9648H36.1507C35.9046 68.9526 35.6301 68.9648 35.3569 68.9648H18.1035L20.1642 65.8666C20.3341 65.6028 20.5054 65.2956 20.6522 64.9571C20.7827 64.6729 20.9417 64.193 21.0953 63.5187L23.8111 52.0745C23.8968 51.7319 23.962 51.3934 24.0082 51.0821C24.0476 50.7993 24.0721 50.5886 24.0721 50.4499C24.0137 50.0502 24.0082 49.9768 24.0001 49.9238L23.5461 47.5529H39.4877C40.8878 47.5529 42.3898 47.7378 43.4731 48.5521C44.604 49.3963 45.0743 50.6335 45.0743 51.9195L45.0689 52.1806H51.7008C52.0583 52.2023 52.428 52.1806 52.7937 52.1806H53.5345H58.2825H63.865H65.4105H75.7397L75.6133 52.7148C76.4995 52.3505 77.4551 52.1806 78.4555 52.1806H89.1259L89.1598 52.0269C89.3175 51.339 89.3651 50.9366 89.3651 50.7477C89.3298 50.6131 89.274 50.367 89.1979 50.0625L88.5359 47.5529H100.42L99.3205 52.1806H103.056C104.407 52.1806 105.814 52.4919 106.858 53.5156C107.874 54.4999 108.251 55.7995 108.251 57.1155C108.251 57.8211 108.145 58.5579 107.964 59.3029L106.727 64.4908C106.571 65.1787 106.523 65.5811 106.523 65.77L107.295 68.9648H96.9703H93.1765H83.0254ZM99.3205 57.5682L97.8307 63.8246C97.6431 64.6321 97.4678 65.1284 97.3373 65.3581C97.2041 65.6287 96.9703 65.9889 96.6277 66.4144L95.5607 67.7563L95.1149 66.08C95.1013 66.0243 95.0863 65.9223 95.0863 65.77C95.0863 65.456 95.1543 64.9557 95.3228 64.2325L96.8194 57.9407C96.8996 57.5941 96.9839 57.5682 97.1959 57.5682H99.3205ZM97.7831 58.6789L96.3994 64.4908C96.3654 64.6553 96.3314 64.8075 96.3015 64.9408L96.3545 64.8442C96.4048 64.7531 96.5625 64.363 96.7501 63.5745L97.9136 58.6789H97.7831ZM34.0003 60.2899L33.3791 62.911C33.3506 63.0755 33.3709 63.1204 33.3506 63.1693C33.2473 63.1884 33.1276 63.1965 32.9808 63.1965H30.4376L31.1309 60.2899H34.0003ZM35.6573 53.3253L35.1924 55.3224C35.1502 55.4909 35.1747 55.5453 35.1475 55.6051C35.0469 55.6228 34.93 55.6323 34.7887 55.6323H32.2427L32.7851 53.3253H35.6573ZM41.9969 58.7347C41.8855 58.4859 41.721 58.2616 41.5185 58.0699C41.8216 57.8918 42.0826 57.6675 42.3123 57.4051L41.9969 58.7347ZM72.0656 62.9328L72.3388 61.7745C72.4638 62.2938 72.7289 62.7601 73.1407 63.1394C73.4439 63.4045 73.8285 63.5867 74.2581 63.7023C73.9672 63.6832 73.7511 63.6574 73.6002 63.6275C73.2767 63.5418 72.8838 63.3746 72.3972 63.1095L72.0656 62.9328ZM88.0452 57.7545L88.9899 57.5533L88.7466 58.5756C88.608 58.32 88.4272 58.0862 88.188 57.8796C88.1431 57.832 88.0983 57.7912 88.0452 57.7545Z" fill="#E2E3E4"/>
<path d="M88.0452 57.7545L88.9899 57.5533L88.7466 58.5756C88.608 58.32 88.4272 58.0862 88.188 57.8796C88.1431 57.832 88.0983 57.7912 88.0452 57.7545ZM72.0656 62.9328L72.3388 61.7745C72.4638 62.2938 72.7289 62.7601 73.1407 63.1394C73.4439 63.4045 73.8285 63.5867 74.2581 63.7023C73.9672 63.6832 73.7511 63.6574 73.6002 63.6275C73.2767 63.5418 72.8838 63.3746 72.3972 63.1095L72.0656 62.9328ZM41.9969 58.7347C41.8855 58.4859 41.721 58.2616 41.5185 58.0699C41.8216 57.8918 42.0826 57.6675 42.3123 57.4051L41.9969 58.7347ZM35.6573 53.3253L35.1924 55.3224C35.1502 55.4909 35.1747 55.5453 35.1475 55.6051C35.0469 55.6228 34.93 55.6323 34.7887 55.6323H32.2427L32.7851 53.3253H35.6573ZM34.0003 60.2899L33.3791 62.911C33.3506 63.0755 33.3709 63.1204 33.3506 63.1693C33.2473 63.1884 33.1276 63.1965 32.9808 63.1965H30.4376L31.1309 60.2899H34.0003ZM97.7831 58.6789L96.3994 64.4908C96.3654 64.6553 96.3314 64.8075 96.3015 64.9408L96.3545 64.8442C96.4048 64.7531 96.5625 64.363 96.7501 63.5745L97.9136 58.6789H97.7831ZM99.3205 57.5682L97.8307 63.8246C97.6431 64.6321 97.4678 65.1284 97.3373 65.3581C97.2041 65.6287 96.9703 65.9889 96.6277 66.4144L95.5607 67.7563L95.1149 66.08C95.1013 66.0243 95.0863 65.9223 95.0863 65.77C95.0863 65.456 95.1543 64.9557 95.3228 64.2325L96.8194 57.9407C96.8996 57.5941 96.9839 57.5682 97.1959 57.5682H99.3205ZM83.0254 68.9648H82.8555H73.4017H69.5468H62.7599H62.3671H57.8298C56.495 68.9648 55.0963 68.6671 54.0497 67.6828C53.022 66.704 52.6564 65.3853 52.6564 64.0843C52.6564 63.3651 52.7597 62.6215 52.9432 61.8574L53.4122 59.8495L53.3197 59.8005C53.2776 59.791 53.1498 59.7692 53.0574 59.7638C52.81 59.7461 52.5001 59.7407 52.1249 59.7407C51.6736 59.7407 51.2944 59.7611 50.9886 59.8195C50.9043 59.8331 50.8458 59.81 50.7928 59.844C50.7453 59.931 50.7548 60.0643 50.6786 60.3824L49.704 64.4908C49.5423 65.1814 49.5002 65.5811 49.5002 65.77L50.2668 68.9648H36.1507C35.9046 68.9526 35.6301 68.9648 35.3569 68.9648H18.1035L20.1642 65.8666C20.3341 65.6028 20.5054 65.2956 20.6522 64.9571C20.7827 64.6729 20.9417 64.193 21.0953 63.5187L23.8111 52.0745C23.8968 51.7319 23.962 51.3934 24.0082 51.0821C24.0476 50.7993 24.0721 50.5886 24.0721 50.4499C24.0137 50.0502 24.0082 49.9768 24.0001 49.9238L23.5461 47.5529H39.4877C40.8878 47.5529 42.3898 47.7378 43.4731 48.5521C44.604 49.3963 45.0743 50.6335 45.0743 51.9195L45.0689 52.1806H51.7008C52.0583 52.2023 52.428 52.1806 52.7937 52.1806H53.5345H58.2825H63.865H65.4105H75.7397L75.6133 52.7148C76.4995 52.3505 77.4551 52.1806 78.4555 52.1806H89.1259L89.1598 52.0269C89.3175 51.339 89.3651 50.9366 89.3651 50.7477C89.3298 50.6131 89.274 50.367 89.1979 50.0625L88.5359 47.5529H100.42L99.3205 52.1806H103.056C104.407 52.1806 105.814 52.4919 106.858 53.5156C107.874 54.4999 108.251 55.7995 108.251 57.1155C108.251 57.8211 108.145 58.5579 107.964 59.3029L106.727 64.4908C106.571 65.1787 106.523 65.5811 106.523 65.77L107.295 68.9648H96.9703H93.1765H83.0254ZM85.5836 67.3158L85.1568 67.8582H95.4819H95.5852H105.914L105.445 66.08C105.429 66.0256 105.415 65.925 105.415 65.77C105.415 65.456 105.482 64.9557 105.649 64.2325L106.883 59.0365C107.053 58.3513 107.144 57.7123 107.144 57.1155C107.144 56.0103 106.825 55.0273 106.077 54.3082C105.331 53.57 104.259 53.2886 103.056 53.2886H98.3037C98.1732 53.2886 98.0414 53.3021 97.9082 53.3225L99.0119 48.6649H89.9754L90.2677 49.7797C90.3547 50.0938 90.4131 50.3371 90.4484 50.4785C90.4512 50.4975 90.4716 50.5886 90.4716 50.7477C90.4716 51.0658 90.4049 51.5674 90.235 52.288L89.8422 53.9547L89.8898 53.2886H78.4555C77.1234 53.2886 75.9313 53.6366 74.9146 54.3544C74.5 54.6589 74.1371 55.0042 73.8421 55.3958L74.3383 53.2886H65.3018L65.5981 54.4061C65.6783 54.7201 65.7395 54.9634 65.7762 55.1062C65.7762 55.1266 65.8006 55.219 65.8006 55.374C65.8006 55.6881 65.7286 56.1911 65.5614 56.913L64.0961 63.1884C64.0567 63.3515 63.9901 63.4902 63.9547 63.5514C63.9099 63.5622 63.8256 63.5772 63.6897 63.5772H61.5923L64.0105 53.2886H56.877H54.974H52.7937C51.8653 53.2886 51.0321 53.4204 50.3619 53.7589L50.4258 53.2886H43.7993C43.9054 52.8182 43.9638 52.3614 43.9638 51.9195C43.9638 50.9149 43.609 50.0353 42.8098 49.4385C42.0282 48.8566 40.8443 48.6649 39.4877 48.6649H24.8863L25.0889 49.7158C25.1011 49.7919 25.112 49.8993 25.131 50.0462L25.1419 50.1413C25.165 50.246 25.1759 50.3466 25.1759 50.4499C25.1759 50.6226 25.1514 50.8823 25.1065 51.2289C25.0589 51.5824 24.9869 51.9495 24.8918 52.3369L22.1786 63.7689C22.0142 64.4853 21.8388 65.0305 21.6635 65.4098C21.4936 65.8027 21.2992 66.1616 21.0899 66.4797L20.1737 67.8582H35.3569C36.8684 67.8582 38.1719 67.6162 39.1275 67.0113L38.456 67.8582H48.8858L48.4141 66.08C48.4005 66.0243 48.3869 65.9223 48.3869 65.77C48.3869 65.456 48.4535 64.9571 48.6207 64.2325L49.6062 60.1227C49.7842 59.3464 50.0276 59.0324 50.1798 58.9223C50.3891 58.7863 50.96 58.6286 52.1249 58.6286C53.0098 58.6286 53.4475 58.6762 53.5671 58.7048C53.6922 58.7415 53.9246 58.8434 54.2617 59.0895L54.66 59.3736L54.0238 62.113C53.8566 62.8131 53.7656 63.4711 53.7656 64.0843C53.7656 65.1855 54.0741 66.167 54.8204 66.878C55.5707 67.589 56.6364 67.8582 57.8298 67.8582H62.7599C63.0522 67.8582 63.339 67.8093 63.6054 67.7168L63.5918 67.8582H70.7484H72.0234H83.0254C83.9701 67.8582 84.8305 67.6856 85.5836 67.3158Z" stroke="#E2E3E4" stroke-width="0.0305386" stroke-miterlimit="3.864"/>
<path fill-rule="evenodd" clip-rule="evenodd" d="M25.7541 52.5434C25.8547 52.1274 25.9349 51.729 25.9852 51.3443C26.0355 50.9514 26.0654 50.6482 26.0654 50.4497C26.0654 50.2853 26.0436 50.1248 26.011 49.9617C25.9933 49.7795 25.9716 49.6449 25.9607 49.5498H39.4883C40.8122 49.5498 41.7419 49.7537 42.2748 50.1507C42.809 50.5476 43.0768 51.1377 43.0768 51.9194C43.0768 52.2973 43.0237 52.7065 42.9204 53.1415L42.4325 55.1305C42.1905 56.1827 41.7338 56.9073 41.0623 57.307C40.3881 57.7067 39.4366 57.9052 38.1997 57.9052C39.3496 58.0887 40.1462 58.2954 40.6002 58.5306C41.0623 58.7494 41.2934 59.1219 41.2934 59.6481C41.2934 59.8479 41.2472 60.128 41.1656 60.4937L40.4968 63.3744C40.2046 64.5545 39.6786 65.4517 38.9201 66.0703C38.1793 66.6698 36.9926 66.9648 35.3561 66.9648H21.8271C22.0691 66.6073 22.2839 66.2062 22.4728 65.7699C22.6794 65.3171 22.8711 64.719 23.0437 63.9726L25.7541 52.5434ZM31.1219 56.5199H34.7879C35.1997 56.5199 35.4865 56.4669 35.6429 56.3527C35.8128 56.2303 35.9514 55.9543 36.0547 55.537L36.5441 53.4121C36.5971 53.2163 36.6202 53.0518 36.6202 52.9295C36.6202 52.6018 36.3307 52.4346 35.7421 52.4346H32.0802L31.1219 56.5199ZM29.3168 64.0841H32.98C33.3919 64.0841 33.6896 64.0283 33.8622 63.9209C34.0321 63.7918 34.1599 63.5226 34.2469 63.1025L34.8925 60.3822C34.9456 60.1796 34.9714 60.0192 34.9714 59.8914C34.9714 59.5624 34.6764 59.4006 34.0933 59.4006H30.4246L29.3168 64.0841Z" fill="white"/>
<path fill-rule="evenodd" clip-rule="evenodd" d="M49.4126 54.1775L49.1258 56.2453C49.6437 55.4472 50.1507 54.9021 50.6495 54.6125C51.1484 54.3202 51.8634 54.1775 52.7945 54.1775H55.7631L54.7804 58.3674C54.4011 58.0969 54.0776 57.9242 53.8017 57.8508C53.5407 57.7747 52.9834 57.7421 52.1257 57.7421C50.9526 57.7421 50.1452 57.8875 49.694 58.173C49.2644 58.4667 48.9477 59.0485 48.7384 59.9186L47.7583 64.0283C47.5857 64.7774 47.4987 65.3538 47.4987 65.7699C47.4987 65.9738 47.5164 66.1424 47.5517 66.2892C47.5857 66.4143 47.6469 66.6426 47.7325 66.9648H40.2959C40.6602 66.5108 40.9252 66.1152 41.0979 65.7699C41.2855 65.4245 41.4771 64.844 41.6661 64.0283L43.2931 57.1153C43.463 56.3703 43.5487 55.7898 43.5487 55.3738C43.5487 55.1726 43.5323 55.0122 43.4943 54.8858C43.463 54.7376 43.4019 54.5024 43.3176 54.1775H49.4126Z" fill="white"/>
<path fill-rule="evenodd" clip-rule="evenodd" d="M64.5685 66.9648L64.6963 65.6339C64.3877 66.0513 64.086 66.3762 63.7937 66.6114C63.5015 66.8506 63.1562 66.9648 62.7607 66.9648H57.8306C56.7445 66.9648 55.9479 66.7201 55.4273 66.2348C54.9122 65.744 54.6553 65.0235 54.6553 64.0841C54.6553 63.5552 54.7328 62.9639 54.8891 62.314L56.0975 57.1153C56.2742 56.3703 56.3571 55.7885 56.3571 55.3738C56.3571 55.1726 56.3435 55.0122 56.3041 54.8858C56.2742 54.7376 56.2144 54.5024 56.1287 54.1775H62.8911L60.7217 63.4016C60.6687 63.6015 60.647 63.7646 60.647 63.8938C60.647 64.2703 60.9202 64.4634 61.468 64.4634H63.6904C64.0724 64.4634 64.3456 64.3886 64.5155 64.2431C64.7044 64.1004 64.8526 63.8176 64.9559 63.4016L66.4294 57.1153C66.5965 56.3703 66.6876 55.7885 66.6876 55.3738C66.6876 55.1726 66.6686 55.0122 66.636 54.8858C66.5965 54.7376 66.5381 54.5024 66.4538 54.1775H73.2176L70.8946 64.0283C70.7247 64.7774 70.6377 65.3525 70.6377 65.7699C70.6377 65.9738 70.654 66.1424 70.6907 66.2892C70.7247 66.4142 70.7777 66.6426 70.866 66.9648H64.5685Z" fill="white"/>
<path fill-rule="evenodd" clip-rule="evenodd" d="M85.4796 57.9854C86.4909 57.9854 87.1977 58.1717 87.5932 58.5306C87.9915 58.8772 88.1872 59.3639 88.1872 60.0029C88.1872 60.2925 88.1424 60.6337 88.0568 61.0361L87.46 63.5933C87.2398 64.5205 86.7518 65.3171 85.992 65.9887C85.2512 66.6426 84.263 66.9648 83.0233 66.9648H71.7114L71.971 63.8951C72.5052 64.1833 72.9783 64.3818 73.3915 64.4906C73.8224 64.583 74.555 64.6279 75.5908 64.6279H80.7221C81.0334 64.6279 81.2563 64.583 81.3963 64.4906C81.5349 64.4008 81.6382 64.22 81.7076 63.9495L81.7579 63.6749C81.7918 63.5294 81.8082 63.4315 81.8082 63.3744C81.8082 63.1229 81.5798 62.9938 81.1122 62.9938H75.8192C74.8201 62.9938 74.1228 62.8211 73.7286 62.4785C73.333 62.1128 73.1346 61.6234 73.1346 61.0103C73.1346 60.7017 73.1767 60.3373 73.2651 59.9186L73.8333 57.4443C74.0711 56.4669 74.6053 55.6756 75.4331 55.0761C76.2759 54.4766 77.2845 54.1775 78.4548 54.1775H88.9335L88.7024 57.3614C88.5488 57.0718 88.1424 56.8625 87.4913 56.7347C86.8334 56.5892 86.1035 56.5199 85.2933 56.5199H80.5712C80.0207 56.5199 79.6999 56.6708 79.6156 56.978L79.511 57.5232C79.4797 57.685 79.5042 57.8046 79.5857 57.8794C79.6918 57.9528 79.8997 57.9854 80.2096 57.9854H85.4796Z" fill="white"/>
<path fill-rule="evenodd" clip-rule="evenodd" d="M97.8911 49.5494L96.4978 55.4292C96.9994 54.8867 97.3392 54.5387 97.5295 54.3932C97.7321 54.2491 97.9944 54.1771 98.303 54.1771H103.055C104.136 54.1771 104.94 54.43 105.454 54.9398C105.988 55.4469 106.256 56.1769 106.256 57.115C106.256 57.6234 106.177 58.1971 106.025 58.8293L104.785 64.028C104.61 64.777 104.528 65.3535 104.528 65.7708C104.528 65.9734 104.545 66.142 104.579 66.2888C104.61 66.4139 104.677 66.6423 104.757 66.9658H97.3229C97.6845 66.5118 97.9495 66.1161 98.1249 65.7708C98.3138 65.4255 98.4987 64.8437 98.6931 64.028L100.187 57.7417C100.239 57.5418 100.267 57.3896 100.267 57.2808C100.267 56.8811 99.9803 56.684 99.4149 56.684H97.1951C96.5237 56.684 96.1091 57.0361 95.9528 57.7417L94.4589 64.028C94.2836 64.777 94.1952 65.3535 94.1952 65.7708C94.1952 65.9734 94.217 66.142 94.2482 66.2888C94.2836 66.4139 94.3447 66.6423 94.4345 66.9658H86.9951C87.3567 66.5118 87.6245 66.1161 87.7917 65.7708C87.986 65.4255 88.175 64.8437 88.3626 64.028L91.1001 52.4913C91.2782 51.7463 91.357 51.1658 91.357 50.7471C91.357 50.5473 91.3421 50.3855 91.304 50.2577C91.2782 50.1136 91.2143 49.8784 91.126 49.5494H97.8911Z" fill="white"/>
<path fill-rule="evenodd" clip-rule="evenodd" d="M127.632 68.3624L127.905 68.2618L128.022 67.9967C128.083 67.8607 128.147 67.6514 128.211 67.4039C128.272 67.1905 128.325 66.9417 128.386 66.6888L131.492 53.6241C131.819 52.2755 131.963 51.4 131.963 50.9514C131.963 50.6441 131.885 50.2662 131.702 49.8026L131.325 48.8836H135.96H140.688H156.211C157.754 48.8836 159.041 49.1378 159.979 49.7224C161.043 50.3817 161.486 51.5604 161.486 53.0069C161.486 53.7139 161.367 54.5282 161.152 55.4445L160.279 59.1246C159.729 61.4195 158.837 63.1243 157.505 64.0745C156.241 64.9596 154.589 65.3729 152.617 65.3729H144.275L143.353 69.1998C143.08 70.3323 142.952 71.2092 142.952 71.84C142.952 72.1703 143.004 72.5279 143.107 72.9221L143.328 73.7568H131.312L131.999 72.7223L132.15 72.4776L131.099 71.6714C130.999 71.7856 130.891 71.8971 130.783 71.9977C129.487 73.2158 127.518 73.7568 125.022 73.7568H113.716C110.165 73.7568 108.162 72.0983 108.162 68.7906C108.162 67.8866 108.318 66.8384 108.602 65.6516L111.499 53.4406C111.632 52.9009 111.73 52.3788 111.802 51.8894C111.864 51.3878 111.897 51.0153 111.897 50.7665C111.897 50.5993 111.878 50.4293 111.849 50.2594L111.828 50.1479C111.809 49.9386 111.791 49.7795 111.769 49.6735L111.621 48.8836H123.623L122.877 49.9386C122.556 50.3953 122.253 50.912 121.988 51.4666C121.763 51.9968 121.529 52.7649 121.309 53.7465L118.136 67.1144C118.086 67.3645 118.042 67.6323 118.042 67.873V68.3882L118.544 68.5133C118.643 68.5405 118.754 68.5513 118.903 68.5364C118.948 68.5337 119.009 68.5296 119.092 68.5296H125.927C126.479 68.5296 126.925 68.5038 127.27 68.4453C127.412 68.4208 127.534 68.3923 127.632 68.3624ZM146.93 54.119L145.504 60.1415H149.128C149.405 60.1415 149.606 60.1171 149.751 60.0722L150.06 59.9866L150.185 59.6875C150.302 59.4237 150.427 58.9873 150.503 58.6352L151.278 55.2936C151.316 55.1576 151.347 55.0326 151.372 54.9306L151.558 54.119H146.93Z" fill="#CF3134"/>
<path fill-rule="evenodd" clip-rule="evenodd" d="M150.723 54.7839H147.458L146.342 59.4755H149.127C149.364 59.4755 149.505 59.4524 149.573 59.4333C149.664 59.2199 149.779 58.8283 149.849 58.4912L150.634 55.1414C150.667 55.0041 150.699 54.8872 150.723 54.7839ZM144.659 60.8091L146.403 53.4516H150.871C151.711 53.4516 152.125 53.7438 152.125 54.3339C152.125 54.6044 152.058 54.9823 151.918 55.4731L151.15 58.7862C150.968 59.6427 150.731 60.1946 150.453 60.4393C150.194 60.6868 149.757 60.8091 149.127 60.8091H144.659ZM127.161 67.7887C127.259 67.7738 127.342 67.7575 127.412 67.7303C127.512 67.5019 127.624 67.0274 127.743 66.5367L130.846 53.4747C131.173 52.1152 131.298 51.3104 131.298 50.9528C131.298 50.7516 131.25 50.4593 131.086 50.0528L130.337 48.2202H135.96H140.688H156.211C157.812 48.2202 159.243 48.4772 160.331 49.1569C161.667 49.9849 162.149 51.4409 162.149 53.007C162.149 53.786 162.023 54.6506 161.801 55.5982L160.926 59.2743C160.366 61.6343 159.41 63.5335 157.887 64.613C156.473 65.6108 154.673 66.0364 152.617 66.0364H144.801L143.999 69.3644C143.732 70.471 143.616 71.2854 143.616 71.84C143.616 72.1038 143.656 72.4069 143.746 72.755L144.189 74.4258H130.069L131.44 72.3594L131.593 72.1228C131.481 72.2452 131.364 72.3662 131.242 72.479C129.771 73.8725 127.594 74.4258 125.022 74.4258H113.714C109.889 74.4258 107.5 72.5442 107.5 68.7921C107.5 67.8159 107.656 66.7188 107.954 65.498L110.853 53.283C110.978 52.7677 111.073 52.2742 111.14 51.7998C111.201 51.343 111.232 50.9977 111.232 50.7666C111.232 50.6361 111.218 50.5069 111.19 50.3737L111.165 50.2309C111.148 50.0365 111.134 49.8951 111.115 49.7972L110.822 48.2202H124.913L123.423 50.3234C123.12 50.7475 122.842 51.2179 122.596 51.744C122.39 52.2185 122.176 52.9336 121.955 53.8988L118.788 67.2531C118.741 67.4965 118.711 67.699 118.711 67.873C118.788 67.888 118.883 67.8608 119.091 67.8608H125.927C126.434 67.8608 126.846 67.8418 127.161 67.7887ZM125.927 69.1972H119.091C117.947 69.1972 117.379 68.7553 117.379 67.873C117.379 67.6229 117.413 67.332 117.482 66.988L120.657 53.5997C120.894 52.5692 121.134 51.759 121.395 51.1703C121.671 50.583 121.987 50.0447 122.337 49.5498H112.424C112.446 49.6735 112.472 49.8611 112.494 50.1059C112.541 50.3234 112.566 50.5463 112.566 50.7666C112.566 51.0371 112.527 51.4409 112.457 51.9792C112.39 52.4958 112.287 53.0342 112.146 53.5997L109.249 65.812C108.968 66.9608 108.83 67.9587 108.83 68.7921C108.83 71.6592 110.457 73.0921 113.714 73.0921H125.022C127.443 73.0921 129.209 72.5687 130.326 71.5097C131.465 70.4316 132.351 68.5324 132.978 65.812L135.838 53.7778C136.14 52.5584 136.411 51.672 136.642 51.1336C136.875 50.5939 137.226 50.0664 137.69 49.5498H132.315C132.524 50.0664 132.63 50.5327 132.63 50.9528C132.63 51.4912 132.468 52.4347 132.142 53.7778L129.033 66.8412C128.778 67.9193 128.487 68.5813 128.162 68.8247C127.86 69.0694 127.117 69.1972 125.927 69.1972ZM142.706 69.0476L143.754 64.7068H152.617C154.498 64.7068 156.001 64.3152 157.119 63.5308C158.258 62.7233 159.096 61.202 159.633 58.9725L160.503 55.2923C160.711 54.4073 160.817 53.6446 160.817 53.007C160.817 51.6856 160.422 50.7774 159.633 50.2921C158.842 49.7986 157.703 49.5498 156.211 49.5498H137.927C138.11 50.0202 138.206 50.5205 138.206 51.0616C138.206 51.4069 138.181 51.7862 138.131 52.2035C138.086 52.5964 137.994 53.0587 137.855 53.5997L134.189 69.0476C133.958 70.0537 133.698 70.8626 133.42 71.477C133.167 72.0671 132.875 72.6027 132.548 73.0921H142.462C142.342 72.653 142.286 72.2343 142.286 71.84C142.286 71.129 142.426 70.1991 142.706 69.0476Z" fill="#E2E3E4"/>
<path d="M150.723 54.7839H147.458L146.342 59.4755H149.127C149.364 59.4755 149.505 59.4524 149.573 59.4333C149.664 59.2199 149.779 58.8283 149.849 58.4912L150.634 55.1414C150.667 55.0041 150.699 54.8872 150.723 54.7839ZM144.659 60.8091L146.403 53.4516H150.871C151.711 53.4516 152.125 53.7438 152.125 54.3339C152.125 54.6044 152.058 54.9823 151.918 55.4731L151.15 58.7862C150.968 59.6427 150.731 60.1946 150.453 60.4393C150.194 60.6868 149.757 60.8091 149.127 60.8091H144.659ZM127.161 67.7887C127.259 67.7738 127.342 67.7575 127.412 67.7303C127.512 67.5019 127.624 67.0274 127.743 66.5367L130.846 53.4747C131.173 52.1152 131.298 51.3104 131.298 50.9528C131.298 50.7516 131.25 50.4593 131.086 50.0528L130.337 48.2202H135.96H140.688H156.211C157.812 48.2202 159.243 48.4772 160.331 49.1569C161.667 49.9849 162.149 51.4409 162.149 53.007C162.149 53.786 162.023 54.6506 161.801 55.5982L160.926 59.2743C160.366 61.6343 159.41 63.5335 157.887 64.613C156.473 65.6108 154.673 66.0364 152.617 66.0364H144.801L143.999 69.3644C143.732 70.471 143.616 71.2854 143.616 71.84C143.616 72.1038 143.656 72.4069 143.746 72.755L144.189 74.4258H130.069L131.44 72.3594L131.593 72.1228C131.481 72.2452 131.364 72.3662 131.242 72.479C129.771 73.8725 127.594 74.4258 125.022 74.4258H113.714C109.889 74.4258 107.5 72.5442 107.5 68.7921C107.5 67.8159 107.656 66.7188 107.954 65.498L110.853 53.283C110.978 52.7677 111.073 52.2742 111.14 51.7998C111.201 51.343 111.232 50.9977 111.232 50.7666C111.232 50.6361 111.218 50.5069 111.19 50.3737L111.165 50.2309C111.148 50.0365 111.134 49.8951 111.115 49.7972L110.822 48.2202H124.913L123.423 50.3234C123.12 50.7475 122.842 51.2179 122.596 51.744C122.39 52.2185 122.176 52.9336 121.955 53.8988L118.788 67.2531C118.741 67.4965 118.711 67.699 118.711 67.873C118.788 67.888 118.883 67.8608 119.091 67.8608H125.927C126.434 67.8608 126.846 67.8418 127.161 67.7887ZM125.927 69.1972H119.091C117.947 69.1972 117.379 68.7553 117.379 67.873C117.379 67.6229 117.413 67.332 117.482 66.988L120.657 53.5997C120.894 52.5692 121.134 51.759 121.395 51.1703C121.671 50.583 121.987 50.0447 122.337 49.5498H112.424C112.446 49.6735 112.472 49.8611 112.494 50.1059C112.541 50.3234 112.566 50.5463 112.566 50.7666C112.566 51.0371 112.527 51.4409 112.457 51.9792C112.39 52.4958 112.287 53.0342 112.146 53.5997L109.249 65.812C108.968 66.9608 108.83 67.9587 108.83 68.7921C108.83 71.6592 110.457 73.0921 113.714 73.0921H125.022C127.443 73.0921 129.209 72.5687 130.326 71.5097C131.465 70.4316 132.351 68.5324 132.978 65.812L135.838 53.7778C136.14 52.5584 136.411 51.672 136.642 51.1336C136.875 50.5939 137.226 50.0664 137.69 49.5498H132.315C132.524 50.0664 132.63 50.5327 132.63 50.9528C132.63 51.4912 132.468 52.4347 132.142 53.7778L129.033 66.8412C128.778 67.9193 128.487 68.5813 128.162 68.8247C127.86 69.0694 127.117 69.1972 125.927 69.1972ZM142.706 69.0476L143.754 64.7068H152.617C154.498 64.7068 156.001 64.3152 157.119 63.5308C158.258 62.7233 159.096 61.202 159.633 58.9725L160.503 55.2923C160.711 54.4073 160.817 53.6446 160.817 53.007C160.817 51.6856 160.422 50.7774 159.633 50.2921C158.842 49.7986 157.703 49.5498 156.211 49.5498H137.927C138.11 50.0202 138.206 50.5205 138.206 51.0616C138.206 51.4069 138.181 51.7862 138.131 52.2035C138.086 52.5964 137.994 53.0587 137.855 53.5997L134.189 69.0476C133.958 70.0537 133.698 70.8626 133.42 71.477C133.167 72.0671 132.875 72.6027 132.548 73.0921H142.462C142.342 72.653 142.286 72.2343 142.286 71.84C142.286 71.129 142.426 70.1991 142.706 69.0476Z" stroke="#E2E3E4" stroke-width="0.0305386" stroke-miterlimit="3.864"/>
</g>
</g>
<rect width="178" height="118" fill="black" style="mix-blend-mode:hue"/>
</g>
<defs>
<clipPath id="clip0_283_8461">
<rect width="178" height="118" fill="white"/>
</clipPath>
<clipPath id="clip1_283_8461">
<rect width="177.807" height="91.013" fill="white" transform="translate(0.419922 12.5615)"/>
</clipPath>
</defs>
</svg>