<svg xmlns:xlink="http://www.w3.org/1999/xlink" xmlns="http://www.w3.org/2000/svg" width="51" height="48" viewBox="0 0 51 48" fill="none">
<path d="M48.4459 42.8392V15.7472C48.4459 15.2834 48.3254 14.8279 48.0969 14.4281C47.8684 14.0282 47.5401 13.6985 47.1461 13.4731L29.3683 3.31227C28.2416 2.66843 26.9739 2.33057 25.6851 2.33057C24.3962 2.33057 23.1286 2.66843 22.0018 3.31227L4.22658 13.4731C3.83258 13.6985 3.50431 14.0282 3.27578 14.4281C3.04724 14.8279 2.92674 15.2834 2.92676 15.7472V42.8392C2.92676 43.5293 3.19319 44.1911 3.66744 44.6791C4.14169 45.1671 4.78491 45.4412 5.4556 45.4412H45.9171C46.5878 45.4412 47.231 45.1671 47.7052 44.6791C48.1795 44.1911 48.4459 43.5293 48.4459 42.8392Z" stroke="#001F4E" stroke-width="4.59376" stroke-linejoin="round"/>
<path d="M2.92676 19.4219L22.8793 33.1084C23.7105 33.6789 24.6872 33.9834 25.6863 33.9834C26.6855 33.9834 27.6622 33.6789 28.4933 33.1084L48.4459 19.4219" stroke="#001F4E" stroke-width="4.59376" stroke-linecap="round"/>
<path d="M18.0998 29.8301L2.92676 40.2381" stroke="#001F4E" stroke-width="4.59376" stroke-linecap="round"/>
<path d="M33.2734 29.8301L48.4465 40.2381" stroke="#001F4E" stroke-width="4.59376" stroke-linecap="round"/>
</svg>