<svg xmlns:xlink="http://www.w3.org/1999/xlink" xmlns="http://www.w3.org/2000/svg" width="178" height="118" viewBox="0 0 178 118" fill="none">
<g clip-path="url(#clip0_283_7763)">
<rect width="178" height="118" fill="white"/>
<g clip-path="url(#clip1_283_7763)">
<rect width="177.807" height="91.013" transform="translate(0.0332031 12.5615)" fill="white"/>
<path d="M409.577 297.269H-228.511V-553.645H409.577V297.269Z" stroke="#373535" stroke-width="0.0944285"/>
<mask id="mask0_283_7763" style="mask-type:luminance" maskUnits="userSpaceOnUse" x="-327" y="-718" width="832" height="1177">
<path d="M-326.649 -717.652H504.798V458.435H-326.649V-717.652Z" fill="white"/>
</mask>
<g mask="url(#mask0_283_7763)">
<mask id="mask1_283_7763" style="mask-type:luminance" maskUnits="userSpaceOnUse" x="33" y="42" width="118" height="39">
<path d="M33.4863 42.5881H150.306V80.876H33.4863V42.5881Z" fill="white"/>
</mask>
<g mask="url(#mask1_283_7763)">
<mask id="mask2_283_7763" style="mask-type:luminance" maskUnits="userSpaceOnUse" x="34" y="45" width="26" height="28">
<path d="M34.3306 45.1145H59.0277V72.5508H34.3306V45.1145Z" fill="white"/>
</mask>
<g mask="url(#mask2_283_7763)">
<path d="M54.4479 72.5508H34.332V71.5254C35.7832 71.239 36.6199 71.1217 37.2345 68.575L41.7026 50.1631C41.7767 49.8334 42.0658 48.4784 42.0658 47.8623C42.0658 46.5547 41.6705 46.4695 39.4162 46.1412V45.1145H59.0278L57.4621 52.9067L56.4858 52.7056C56.4858 49.6658 56.4858 46.4262 49.6166 46.4262C48.0969 46.4262 47.8022 47.0856 47.5103 48.2353L45.2979 57.3784C50.6348 57.4999 51.1795 56.3516 52.7425 53.0325L53.7635 53.1973L51.0734 64.3925L50.058 64.183C50.1655 63.4482 50.2004 62.9984 50.2004 62.5472C50.2004 59.5535 49.0733 58.6915 44.971 58.6915L42.9416 67.2619C42.753 68.1238 42.3926 69.3937 42.3926 69.7638C42.3926 70.6663 42.7209 71.239 44.7531 71.239C49.1152 71.239 53.1797 69.5613 55.6896 64.3925L56.5891 64.5979L54.4479 72.5508Z" fill="#373535"/>
</g>
<mask id="mask3_283_7763" style="mask-type:luminance" maskUnits="userSpaceOnUse" x="59" y="53" width="19" height="20">
<path d="M59.3159 53.6082H77.4442V72.9268H59.3159V53.6082Z" fill="white"/>
</mask>
<g mask="url(#mask3_283_7763)">
<path d="M77.4442 67.5513C76.2794 69.7654 74.5739 72.9268 71.7427 72.9268C71.1589 72.9268 69.2007 72.9268 69.2007 70.2572C69.2007 67.3459 72.395 58.3648 72.395 57.461C72.395 56.9665 71.9606 56.56 71.4857 56.56C70.5807 56.56 66.9114 58.6121 63.7171 72.5524H59.3159C61.1778 64.721 63.0215 57.9527 63.0215 56.9302C63.0215 55.8657 62.0452 55.8657 61.0605 55.8657V54.7579C61.8622 54.7579 65.4574 54.3877 68.3249 53.6473L66.1474 61.2761L66.2563 61.3613C68.8696 57.0126 70.8349 53.6082 73.9957 53.6082C74.8631 53.6082 76.7543 53.6906 76.7543 56.8491C76.7543 59.5104 73.592 68.2092 73.592 69.3952C73.592 69.7654 73.7401 70.1384 74.1382 70.1384C74.8631 70.1384 75.7011 68.6604 76.6425 67.0162L77.4442 67.5513Z" fill="#373535"/>
</g>
<mask id="mask4_283_7763" style="mask-type:luminance" maskUnits="userSpaceOnUse" x="77" y="53" width="21" height="28">
<path d="M77.8438 53.6073H97.0923V80.876H77.8438V53.6073Z" fill="white"/>
</mask>
<g mask="url(#mask4_283_7763)">
<path d="M85.2172 62.384C85.2172 61.0289 86.2703 54.8781 88.9576 54.8781C90.2636 54.8781 90.6267 56.3547 90.6267 57.422C90.6267 59.3917 89.3529 65.0075 86.8108 65.0075C85.2172 65.0075 85.2172 63.123 85.2172 62.384ZM97.0923 54.9605H93.0627C92.1841 54.181 90.8837 53.6083 89.135 53.6083C83.7631 53.6083 81.0046 57.7922 81.0046 60.9507C81.0046 63.1649 82.0549 64.8007 83.907 65.5858C81.6219 67.0163 80.4207 67.7539 80.4207 69.6021C80.4207 71.3637 82.0172 72.0174 82.5661 72.227V72.308C80.2713 72.9269 77.8438 73.6589 77.8438 76.6539C77.8438 79.7734 81.6219 80.877 84.5272 80.877C90.7008 80.877 93.3518 77.6793 93.3518 74.8127C93.3518 71.5676 90.772 70.5045 87.9366 69.6021L86.0133 68.9846C84.6389 68.5334 84.1612 67.9621 84.1612 67.346C84.1612 66.8948 84.6682 65.9518 85.1431 65.9518C85.6893 65.9518 86.1963 66.2787 86.8835 66.2787C90.8418 66.2787 94.877 63.6119 94.877 59.0187C94.877 58.2001 94.803 57.8369 94.6591 57.2613H97.0923V54.9605ZM84.9629 79.487C82.2742 79.487 81.0046 77.8036 81.0046 76.246C81.0046 74.152 83.6514 72.8011 83.8344 72.8011C83.9405 72.8011 86.7424 73.705 87.9045 74.3154C88.9576 74.8519 89.3906 75.711 89.3906 76.6148C89.3906 79.1168 86.6335 79.487 84.9629 79.487Z" fill="#373535"/>
</g>
<mask id="mask5_283_7763" style="mask-type:luminance" maskUnits="userSpaceOnUse" x="97" y="43" width="12" height="30">
<path d="M97.9634 43.8868H108.422V72.9268H97.9634V43.8868Z" fill="white"/>
</mask>
<g mask="url(#mask5_283_7763)">
<path d="M106.537 67.3459C104.938 70.0923 103.343 72.9268 100.432 72.9268C97.9624 72.9268 97.9624 70.7489 97.9624 70.1775C97.9624 67.7161 103.119 49.3405 103.119 47.4169C103.119 46.1428 101.924 46.1428 100.833 46.2267V45.1175C103.738 44.8311 105.558 44.5014 108.423 43.8868L103.157 65.3385C102.939 66.2395 102.361 68.6185 102.361 69.4385C102.361 69.975 102.868 70.0532 102.903 70.0532C103.776 70.0532 105.009 68.0039 105.735 66.7718L106.537 67.3459Z" fill="#373535"/>
</g>
<mask id="mask6_283_7763" style="mask-type:luminance" maskUnits="userSpaceOnUse" x="108" y="44" width="10" height="29">
<path d="M108.061 44.5014H117.542V72.9268H108.061V44.5014Z" fill="white"/>
</mask>
<g mask="url(#mask6_283_7763)">
<path d="M115.035 44.5014C116.415 44.5014 117.542 45.774 117.542 47.2939C117.542 48.7677 116.451 50.0012 115.035 50.0012C113.327 50.0012 112.64 48.276 112.64 47.2115C112.64 46.2253 113.401 44.5014 115.035 44.5014ZM116.634 67.3459C114.781 70.5449 113.254 72.9268 110.57 72.9268C108.461 72.9268 108.062 71.1582 108.062 70.1775C108.062 68.3741 110.894 58.119 110.894 57.1732C110.894 55.8657 109.803 55.8238 108.75 55.8657V54.7579C110.204 54.6336 113.622 54.2648 116.088 53.6082C114.672 59.4712 112.457 68.1254 112.457 69.4385C112.457 69.8493 112.785 70.0532 113.003 70.0532C113.876 70.0532 115.109 68.0025 115.834 66.7704L116.634 67.3459Z" fill="#373535"/>
</g>
<mask id="mask7_283_7763" style="mask-type:luminance" maskUnits="userSpaceOnUse" x="117" y="53" width="14" height="21">
<path d="M117.397 53.607H130.18V73.082H117.397V53.607Z" fill="white"/>
</mask>
<g mask="url(#mask7_283_7763)">
<path d="M129.347 59.9213L128.367 59.8402C128.076 57.7909 127.314 54.9579 125.173 54.9579C123.241 54.9579 123.241 56.9653 123.241 57.1721C123.241 59.762 128.217 63.369 128.217 67.592C128.217 71.5663 125.096 73.082 122.772 73.082C121.173 73.082 120.268 72.2648 119.43 72.2648C119.283 72.2648 118.557 72.3905 118.375 73.082H117.397L118.195 66.2774L119.177 66.406C119.722 71.8569 122.335 71.8569 122.66 71.8569C124.043 71.8569 124.733 70.6206 124.733 69.6008C124.733 68.5321 123.86 66.8935 122.698 65.3778C120.808 62.9177 119.796 61.233 119.796 58.7325C119.796 55.0836 122.297 53.6056 124.661 53.6056C126.479 53.6056 126.913 54.5122 128.11 54.5122C128.654 54.5122 128.766 54.3432 129.131 53.6461H130.182L129.347 59.9213Z" fill="#373535"/>
</g>
<mask id="mask8_283_7763" style="mask-type:luminance" maskUnits="userSpaceOnUse" x="131" y="43" width="20" height="30">
<path d="M131.742 43.8868H150.304V72.9268H131.742V43.8868Z" fill="white"/>
</mask>
<g mask="url(#mask8_283_7763)">
<path d="M150.303 67.3459C148.809 69.975 147.174 72.9268 144.198 72.9268C142.64 72.9268 141.835 71.7771 141.835 70.4248C141.835 67.223 145.033 58.5688 145.033 57.5015C145.033 57.1746 144.891 56.56 144.198 56.56C142.673 56.56 140.821 59.7981 139.805 61.5625C138.311 64.1064 137.04 68.9468 136.133 72.5538H131.742L137.337 49.3042C137.478 48.73 137.623 48.0734 137.623 47.5775C137.623 46.1428 136.533 46.1428 135.337 46.2267V45.1175C138.133 44.8311 140.168 44.5014 142.891 43.8868L139.041 60.7034L139.112 60.7411C142.673 54.7579 144.817 53.6082 146.631 53.6082C147.43 53.6082 149.465 53.692 149.465 56.9316C149.465 58.5269 146.159 69.0292 146.159 69.4385C146.159 69.8856 146.593 70.1384 146.779 70.1384C147.469 70.1384 148.923 67.6756 149.504 66.7312L150.303 67.3459Z" fill="#373535"/>
</g>
<path d="M53.6073 71.2559H33.4858V70.2291C34.9398 69.9427 35.7765 69.817 36.3939 67.2759L40.8592 48.8654C40.9305 48.5357 41.2224 47.1834 41.2224 46.566C41.2224 45.2528 40.8215 45.1732 38.57 44.8421V43.8168H58.1816L56.6243 51.6104L55.6424 51.4051C55.6424 48.3695 55.6424 45.1313 48.776 45.1313C47.2507 45.1313 46.9616 45.7879 46.6697 46.9362L44.4545 56.0821C49.7942 56.2022 50.3389 55.0567 51.8991 51.7361L52.9201 51.8982L50.23 63.0948L49.2132 62.8867C49.3221 62.1491 49.357 61.702 49.357 61.2466C49.357 58.2557 48.2299 57.3952 44.1276 57.3952L42.0926 65.9642C41.9152 66.8261 41.5464 68.0945 41.5464 68.4661C41.5464 69.3644 41.8775 69.9427 43.9097 69.9427C48.269 69.9427 52.3391 68.258 54.8434 63.0948L55.7513 63.2988L53.6073 71.2559Z" fill="#FEC02E"/>
<path d="M76.6001 66.2538C75.4408 68.4666 73.727 71.6279 70.9014 71.6279C70.3176 71.6279 68.3594 71.6279 68.3594 68.9611C68.3594 66.0457 71.5537 57.0674 71.5537 56.1622C71.5537 55.6732 71.1165 55.2639 70.6416 55.2639C69.7393 55.2639 66.0673 57.3161 62.8702 71.2563H58.4746C60.3281 63.4236 62.1774 56.6553 62.1774 55.6313C62.1774 54.5669 61.2011 54.5669 60.2177 54.5669V53.4549C61.0181 53.4549 64.6133 53.0861 67.4864 52.3499L65.3033 59.9759L65.415 60.0597C68.0283 55.7138 69.9935 52.3094 73.1488 52.3094C74.019 52.3094 75.9101 52.3876 75.9101 55.5503C75.9101 58.2129 72.7479 66.9076 72.7479 68.095C72.7479 68.4666 72.896 68.8396 73.2941 68.8396C74.019 68.8396 74.8598 67.363 75.804 65.7188L76.6001 66.2538Z" fill="#FEC02E"/>
<path d="M84.3749 61.0847C84.3749 59.7297 85.428 53.5817 88.1153 53.5817C89.4213 53.5817 89.7845 55.0583 89.7845 56.1255C89.7845 58.0897 88.5106 63.7096 85.9713 63.7096C84.3749 63.7096 84.3749 61.8209 84.3749 61.0847ZM96.25 53.6641H92.2176C91.3502 52.879 90.0415 52.309 88.2983 52.309C82.9209 52.309 80.1595 56.4943 80.1595 59.6543C80.1595 61.8629 81.2126 63.5015 83.0675 64.2852C80.7769 65.7185 79.5785 66.4547 79.5785 68.3C79.5785 70.0616 81.1805 70.721 81.7211 70.9277V71.0088C79.4346 71.6276 77.0015 72.3596 77.0015 75.3561C77.0015 78.4755 80.7769 79.5791 83.6821 79.5791C89.8557 79.5791 92.5095 76.3787 92.5095 73.5107C92.5095 70.2726 89.9325 69.2053 87.0971 68.3L85.1738 67.6854C83.791 67.2356 83.3189 66.6628 83.3189 66.0454C83.3189 65.5955 83.8259 64.654 84.3036 64.654C84.8442 64.654 85.354 64.9809 86.044 64.9809C90.0023 64.9809 94.0375 62.3113 94.0375 57.7209C94.0375 56.9036 93.9607 56.5348 93.8169 55.9621H96.25V53.6641ZM84.1179 78.1835C81.4319 78.1835 80.1595 76.5044 80.1595 74.9454C80.1595 72.8541 82.8091 71.5019 82.9949 71.5019C83.101 71.5019 85.8973 72.4043 87.0622 73.0218C88.1153 73.5512 88.5483 74.4117 88.5483 75.3156C88.5483 77.8189 85.7856 78.1835 84.1179 78.1835Z" fill="#FEC02E"/>
<path d="M105.695 66.0447C104.091 68.7925 102.498 71.627 99.5924 71.627C97.1201 71.627 97.1201 69.4491 97.1201 68.8763C97.1201 66.4177 102.277 48.0421 102.277 46.1143C102.277 44.8416 101.078 44.8416 99.9904 44.9269V43.8177C102.896 43.5341 104.713 43.2044 107.583 42.5883L102.315 64.0387C102.1 64.9397 101.518 67.3159 101.518 68.1387C101.518 68.6724 102.028 68.752 102.06 68.752C102.936 68.752 104.169 66.7041 104.896 65.4719L105.695 66.0447Z" fill="#FEC02E"/>
<path d="M114.192 43.2054C115.575 43.2054 116.699 44.4752 116.699 45.9937C116.699 47.4689 115.608 48.6996 114.192 48.6996C112.486 48.6996 111.796 46.9744 111.796 45.9127C111.796 44.9264 112.558 43.2054 114.192 43.2054ZM115.788 66.0457C113.935 69.2503 112.411 71.6279 109.724 71.6279C107.617 71.6279 107.219 69.8608 107.219 68.8773C107.219 67.0724 110.053 56.8202 110.053 55.873C110.053 54.5669 108.962 54.5249 107.909 54.5669V53.4549C109.36 53.3347 112.77 52.9631 115.245 52.3094C113.829 58.1738 111.611 66.8266 111.611 68.1397C111.611 68.5504 111.942 68.753 112.162 68.753C113.03 68.753 114.266 66.7036 114.991 65.4715L115.788 66.0457Z" fill="#FEC02E"/>
<path d="M128.503 58.6245L127.521 58.5435C127.229 56.4942 126.471 53.6639 124.327 53.6639C122.4 53.6639 122.4 55.6728 122.4 55.8725C122.4 58.4597 127.373 62.068 127.373 66.291C127.373 70.2724 124.253 71.7881 121.928 71.7881C120.332 71.7881 119.421 70.9681 118.589 70.9681C118.439 70.9681 117.716 71.0896 117.531 71.7881H116.554L117.351 64.9807L118.336 65.1078C118.878 70.5574 121.491 70.5574 121.822 70.5574C123.197 70.5574 123.887 69.3238 123.887 68.2999C123.887 67.2354 123.019 65.594 121.854 64.0755C119.967 61.6196 118.946 59.9349 118.946 57.4343C118.946 53.7855 121.459 52.3089 123.818 52.3089C125.633 52.3089 126.07 53.2085 127.267 53.2085C127.81 53.2085 127.922 53.0451 128.285 52.3494H129.335L128.503 58.6245Z" fill="#FEC02E"/>
<path d="M149.456 66.0447C147.97 68.6724 146.336 71.627 143.357 71.627C141.8 71.627 140.999 70.4773 140.999 69.125C140.999 65.9232 144.191 57.269 144.191 56.2017C144.191 55.8734 144.047 55.263 143.357 55.263C141.829 55.263 139.98 58.4997 138.959 60.2641C137.472 62.8107 136.201 67.6456 135.289 71.2554H130.898L136.493 48.0044C136.637 47.4316 136.785 46.7722 136.785 46.2819C136.785 44.8416 135.692 44.8416 134.499 44.9269V43.8177C137.295 43.5341 139.327 43.2044 142.047 42.5883L138.2 59.4036L138.274 59.4413C141.829 53.4539 143.973 52.3084 145.793 52.3084C146.592 52.3084 148.621 52.388 148.621 55.6304C148.621 57.2271 145.318 67.7308 145.318 68.1387C145.318 68.5858 145.758 68.8386 145.935 68.8386C146.625 68.8386 148.079 66.3772 148.66 65.4314L149.456 66.0447Z" fill="#FEC02E"/>
</g>
</g>
</g>
<rect width="178" height="118" fill="black" style="mix-blend-mode:hue"/>
</g>
<defs>
<clipPath id="clip0_283_7763">
<rect width="178" height="118" fill="white"/>
</clipPath>
<clipPath id="clip1_283_7763">
<rect width="177.807" height="91.013" fill="white" transform="translate(0.0332031 12.5615)"/>
</clipPath>
</defs>
</svg>