<svg xmlns:xlink="http://www.w3.org/1999/xlink" xmlns="http://www.w3.org/2000/svg" width="178" height="118" viewBox="0 0 178 118" fill="none">
<g clip-path="url(#clip0_283_7414)">
<rect width="178" height="118" fill="white"/>
<g clip-path="url(#clip1_283_7414)">
<rect width="177.807" height="91.013" transform="translate(-0.160156 12.5615)" fill="white"/>
<path d="M450.843 248.174H-270.062V-713.179H450.843V248.174Z" stroke="#373535" stroke-width="0.0944285"/>
<mask id="mask0_283_7414" style="mask-type:luminance" maskUnits="userSpaceOnUse" x="-381" y="-899" width="940" height="1330">
<path d="M-380.938 -898.473H558.423V430.257H-380.938V-898.473Z" fill="white"/>
</mask>
<g mask="url(#mask0_283_7414)">
<path d="M93.074 49.1524L92.913 49.648C90.729 48.0224 89.3072 49.5138 89.3072 49.5138L88.5182 48.9851C86.4999 46.9113 85.2549 44.0877 85.2549 40.9691C85.2549 34.6355 90.3898 29.4966 96.7255 29.4966C103.063 29.4966 108.195 34.6355 108.195 40.9691C108.195 45.6771 105.368 49.7174 101.319 51.4882C101.112 51.6256 100.68 51.7266 100.486 51.7266C94.581 50.7638 96.0943 40.423 96.0943 40.423C96.6466 35.966 94.7877 34.2551 94.7877 34.2551C94.6236 33.3224 95.2075 33.9616 95.2075 33.9616L95.4284 34.0736C98.0211 36.1143 97.6392 40.9217 97.6392 40.9217C97.2526 42.7415 97.3646 44.7869 97.3646 44.7869C97.2352 46.6698 97.6361 47.8298 98.2278 48.5353C98.0511 47.994 98.0085 47.2206 98.1963 46.1348C98.1963 46.1348 98.8196 43.9236 100.557 43.166C100.557 43.166 102.597 45.3993 103.263 42.2601C103.263 42.2601 103.263 41.0433 103.92 40.3236C103.92 40.3236 105.469 36.3005 102.711 37.732C102.711 37.732 100.447 31.722 96.6435 33.2624C96.6435 33.2624 93.7762 31.0575 92.1745 33.6522C92.1745 33.6522 92.8894 35.1374 90.7401 35.9675C90.7401 35.9675 91.1535 36.5767 90.4876 37.156C89.8343 37.732 89.8343 37.7099 89.8343 37.7099L88.6413 38.5922C88.6413 38.5922 88.4788 38.8384 88.7802 39.113L89.0295 39.4413L88.7013 39.8848C88.7013 39.8848 89.1416 40.1784 88.5861 40.434L88.6729 40.9596C88.6729 40.9596 87.5698 41.9239 88.4236 42.309C88.4236 42.309 90.9594 43.1408 91.567 44.6307C92.1745 46.1142 92.2045 46.1142 92.2045 46.1142C92.2045 46.1142 92.812 48.106 92.7836 48.7421L93.074 49.1524Z" fill="#8D7F51"/>
<path d="M80.3913 58.0298C79.4303 58.9294 77.6913 60.8896 75.2817 63.7826C75.9318 62.8798 81.769 54.7628 81.769 54.7628L78.2026 54.9253L78.1789 54.9648C73.3423 62.7393 69.6166 68.6357 67.1075 72.4899L67.0176 72.6382H70.4182L70.4387 72.583C71.8874 69.5543 74.3081 66.0363 77.6235 62.1475C81.6033 57.4995 84.7893 55.1463 87.1011 55.1463C88.029 55.1463 88.4819 55.5124 88.4819 56.2747C88.4819 57.3732 87.169 59.5481 84.5794 62.752C81.963 65.9874 80.6312 68.3801 80.6312 69.8621C80.6312 70.8422 80.9673 71.6266 81.6332 72.2058C82.296 72.7819 83.1339 73.0723 84.1423 73.0723C86.4352 73.0723 89.3577 71.2099 92.8183 67.5262C94.2574 66.0221 94.7719 64.4123 95.3179 62.7078C95.7313 61.4294 96.1495 60.1099 96.9969 58.7731L97.0537 58.6911L96.5266 58.3865L96.4761 58.4701C95.8512 59.5481 95.5183 60.6734 95.1979 61.7608C94.6898 63.4748 94.1628 65.2488 92.4822 66.9644C89.0515 70.5234 86.2632 72.3226 84.1912 72.3226C83.3044 72.3226 82.8625 71.8854 82.8625 70.9811C82.8625 70.1256 84.1723 67.9476 86.7713 64.5291C89.4224 61.0253 90.7132 58.7069 90.7132 57.4427C90.7132 56.4973 90.4055 55.7271 89.7916 55.1463C89.1841 54.5718 88.3777 54.2766 87.3993 54.2766C85.3448 54.2766 82.9872 55.5361 80.3913 58.0298Z" fill="#6D3D94"/>
<path d="M138.149 54.7666H134.938L134.909 54.8076C132.604 58.5781 130.194 61.9903 127.737 64.9653C123.87 69.6875 120.791 72.0786 118.593 72.0786C117.696 72.0786 117.266 71.6225 117.266 70.696C117.266 69.6938 118.763 67.0487 121.719 62.8331L127.572 54.7666H123.925L118.436 62.4622C115.646 66.5657 114.291 69.203 114.291 70.5256C114.291 72.2175 115.351 73.0729 117.447 73.0729C119.394 73.0729 121.46 72.167 123.571 70.3899C124.726 69.4334 126.256 67.8299 128.125 65.6472C127.834 66.1064 122.621 74.4144 122.621 74.4144C119.983 78.3806 117.456 81.4725 115.096 83.6047C112.041 86.3714 109.008 87.7808 106.087 87.7808C104.493 87.7808 103.142 87.3042 102.08 86.3651C100.911 85.3629 100.322 84.0561 100.322 82.481C100.322 79.7979 101.493 78.1897 103.799 77.6846L103.873 77.672V77.3437H103.778C102.027 77.3437 100.587 77.7667 99.4907 78.5921C98.2724 79.5233 97.6602 80.879 97.6602 82.6088C97.6602 84.5075 98.637 86.0289 100.564 87.1322C102.172 88.057 104.005 88.5273 106.019 88.5273C110.376 88.5273 114.482 86.7818 118.217 83.3427C120.627 81.1379 123.836 77.2033 126.802 72.8125C127.655 71.5309 129.716 68.2197 132.62 63.4912C134.851 59.9007 136.737 57.0109 138.226 54.9133L138.331 54.7666H138.149Z" fill="#6D3D94"/>
<path d="M110.175 54.4926H110.166C109.263 54.7483 108.859 55.4269 109.028 56.4149L109.334 57.4061C109.497 57.8575 109.677 58.3341 109.685 58.6687C109.942 60.7346 106.147 66.1386 102.172 69.3836C99.5142 71.5505 97.163 72.4423 95.5597 71.8946C95.3972 71.8173 95.2646 71.6263 95.181 71.3454C94.4267 68.8627 97.4407 59.9723 100.322 54.8903L100.403 54.7483H97.4344L97.4091 54.8035C94.4567 60.7457 91.1428 70.8735 94.7896 72.7484C96.5933 73.4523 99.7541 72.6869 103.062 70.7677C107.142 68.3971 111.782 63.9953 112.564 58.7492C112.653 58.0816 112.839 55.8404 111.824 54.8872C111.417 54.5005 110.857 54.3632 110.175 54.4926Z" fill="#6D3D94"/>
<path d="M121.111 58.8517C120.097 60.5278 118.11 61.721 116.164 61.8188C114.571 61.904 113.166 61.2443 112.202 59.9659L112.099 59.8286L111.708 60.8687L111.757 60.9129C113.564 62.6411 115.566 62.69 116.927 62.417C119.235 61.9577 121.069 60.3668 121.623 59.1026L121.661 59.0158L121.154 58.7728L121.111 58.8517Z" fill="#6D3D94"/>
<path d="M112.131 60.0232C114.633 63.3518 119.396 61.8746 121.189 58.8979L121.54 59.0621C120.516 61.379 115.462 64.3224 111.82 60.8487L112.131 60.0232Z" fill="#6D3D94"/>
<path d="M73.5589 39.2357C74.3874 39.8592 74.8071 40.6309 74.7298 41.409C74.6194 42.2597 73.7814 42.9857 72.4953 43.3613C69.8569 44.1347 65.653 43.3314 62.6137 39.7771C63.185 39.4046 63.7547 39.0748 64.3559 38.8001C68.211 37.2613 71.8294 37.9431 73.5589 39.2357ZM59.2115 32.5912C59.0727 34.6856 59.9642 37.8169 61.1351 39.4583C59.2021 40.9434 58.028 42.7695 57.8307 44.6019C57.8307 44.6066 57.8071 45.1464 57.8071 45.1464C57.8071 47.2439 59.1878 49.9301 61.8168 51.1533C51.6212 53.4433 45.5332 58.6911 45.5332 65.2393C45.5332 66.4499 45.7431 67.7172 46.1534 69.0019C48.6987 74.7942 55.2175 74.9709 57.1554 74.892C65.0928 74.3507 67.8291 68.1938 67.7313 64.185C67.6287 62.4868 66.8681 61.3173 65.4747 60.7018C64.8735 60.4493 64.1744 60.2978 63.5085 60.2946C60.7217 60.2741 58.2347 61.7608 56.4878 64.4802C55.4448 66.1074 55.1134 68.6515 56.4011 69.9252C56.7608 70.2693 57.2832 70.416 57.8071 70.315C58.2694 70.233 58.645 69.9726 58.8296 69.5985C59.2115 68.8409 58.8754 68.1055 58.3957 67.733C57.9822 67.4063 57.2579 67.2532 56.5699 67.7835C56.379 67.5483 56.278 67.2216 56.278 66.8302C56.278 66.2589 56.4721 65.5723 56.8571 64.8921C57.8891 63.1386 60.0779 61.5209 61.9431 61.1374C62.9325 60.9338 63.7894 61.0743 64.4364 61.5477C65.2932 62.1869 65.8108 63.6926 65.7367 65.293C65.6073 67.8308 64.1034 70.1556 61.6006 71.6723C59.3883 72.9239 56.2874 73.1291 53.5133 72.2042C51.2725 71.4656 49.6392 70.113 48.8833 68.4101C47.7961 66.0395 47.9649 63.298 49.371 60.6734C51.7285 56.2558 56.9802 52.9209 63.0714 51.9629C64.6336 51.7435 66.1801 51.753 67.7613 51.7735H67.8228L68.3467 50.6324L68.2078 50.6198C63.2623 50.2489 59.5287 47.5548 59.5287 44.3604C59.5287 42.9605 60.3004 41.5953 61.7458 40.4084C65.6972 45.8613 72.6926 45.3373 74.8071 44.5166C76.4041 43.8743 77.4061 42.5643 77.3714 41.1581C77.3351 39.5656 75.9623 38.1894 73.6078 37.3781C69.6943 36.1408 65.3453 36.7042 61.9494 38.8869C60.7627 37.7317 59.3883 33.3756 59.2115 32.5912Z" fill="#6D3D94"/>
</g>
</g>
<rect width="178" height="118" fill="black" style="mix-blend-mode:hue"/>
</g>
<defs>
<clipPath id="clip0_283_7414">
<rect width="178" height="118" fill="white"/>
</clipPath>
<clipPath id="clip1_283_7414">
<rect width="177.807" height="91.013" fill="white" transform="translate(-0.160156 12.5615)"/>
</clipPath>
</defs>
</svg>