<svg xmlns:xlink="http://www.w3.org/1999/xlink" xmlns="http://www.w3.org/2000/svg" width="178" height="118" viewBox="0 0 178 118" fill="none">
<g clip-path="url(#clip0_283_8112)">
<rect width="178" height="118" fill="white"/>
<g clip-path="url(#clip1_283_8112)">
<rect width="177.807" height="91.013" transform="translate(0.226562 12.5615)" fill="white"/>
<path d="M371.402 331.41H-190.574V-418.005H371.402V331.41Z" stroke="#373535" stroke-width="0.0944285"/>
<mask id="mask0_283_8112" style="mask-type:luminance" maskUnits="userSpaceOnUse" x="-278" y="-563" width="734" height="1037">
<path d="M-277.005 -562.448H455.265V473.353H-277.005V-562.448Z" fill="white"/>
</mask>
<g mask="url(#mask0_283_8112)">
<path d="M42.8104 58.7946H34.4762L33.048 64.7494H42.4143L41.5729 68.043H27.4238L32.5892 47.0536H46.4651L45.7676 50.3103H36.4912L35.2659 55.5625H43.5743L42.8104 58.7946Z" fill="#373535"/>
<path d="M118.631 56.3014C118.092 65.9078 108.47 64.8977 106.438 64.8141L109.841 50.4045C117.18 49.9788 118.744 52.9685 118.631 56.3014ZM114.444 47.1158H105.897L100.875 68.0166H109.672C118.881 67.9305 123.444 62.7065 123.572 55.4906C123.403 49.3907 118.468 47.2844 114.444 47.1158Z" fill="#373535"/>
<path d="M130.969 65.27C129.341 65.772 127.257 65.6355 126.755 64.3535C126.467 63.5562 126.639 62.4268 127.397 61.9063C128.877 60.8716 132.288 60.8384 134.047 60.9565C133.931 62.4058 132.598 64.7053 130.969 65.27ZM132.481 52.2532C129.369 52.2532 127.135 52.8733 126.205 53.2239L125.592 56.3256C126.989 55.5295 136.459 53.315 134.599 58.6263C125.304 58.1858 121.466 60.6637 122.401 64.8837C123.5 69.5811 130.475 69.3412 133.324 65.772L132.978 68.042H136.721L138.6 59.0409C139.51 54.8799 137.824 52.4279 132.481 52.2532Z" fill="#373535"/>
<path d="M143.197 52.6043L144.876 64.1325L151.934 52.6572H156.796C156.796 52.6572 145.491 71.1687 142.436 73.4448C140.384 75.1291 136.323 74.7871 134.795 74.3257L135.66 71.3225C138.615 72.1001 139.636 71.6326 141.722 68.8422L138.627 52.6043H143.197Z" fill="#373535"/>
<path d="M47.4543 52.5962L49.254 63.8648L56.2288 52.5962H60.9661L50.8248 68.043H45.6841L42.8486 52.5962H47.4543Z" fill="#373535"/>
<path d="M72.6152 68.0723L76.1396 52.596H80.4721L79.8497 55.3888C81.2963 53.2001 83.8046 51.8971 86.6991 52.3979L85.854 56.282C80.6948 54.9213 79.1313 59.3886 78.4006 62.3758L77.12 68.0723H72.6152Z" fill="#373535"/>
<path d="M90.9027 52.6105L92.5413 64.0686L99.5862 52.6105H104.412L94.3692 67.8162C91.9668 71.6142 91.0085 72.5283 89.6504 73.6381C87.5986 75.3212 83.4518 74.5264 82.3853 74.2791L83.4518 71.3411C85.4458 71.7569 87.275 72.254 89.3749 68.7611L86.2343 52.6105H90.9027Z" fill="#373535"/>
<path d="M69.7374 58.8207H62.0663C63.5363 53.9548 71.3009 53.8588 69.7374 58.8207ZM73.6541 61.5434C74.9249 57.3911 74.4082 52.7146 67.9684 52.236C62.6641 52.0921 58.5272 55.0042 57.3069 59.9686C55.8024 70.8041 68.4617 68.3188 71.0463 67.5536L71.5949 64.4581C67.5748 66.1375 61.0981 66.4266 61.4869 61.5434H73.6541Z" fill="#373535"/>
<path d="M41.827 58.5469H33.4953L32.0622 64.4082H41.4309L40.5895 67.6514H26.4355L31.6058 46.9856H45.4817L44.7843 50.1942H35.5053L34.2801 55.3678H42.5934L41.827 58.5469Z" fill="#EE3338"/>
<path d="M117.649 56.0907C117.112 65.5507 107.488 64.5541 105.456 64.4729L108.858 50.2823C116.195 49.8689 117.762 52.8131 117.649 56.0907ZM113.461 47.0478H104.914L99.8955 67.625H108.69C117.899 67.5413 122.461 62.3998 122.592 55.2934C122.421 49.2882 117.483 47.2114 113.461 47.0478Z" fill="#EE3338"/>
<path d="M129.986 64.922C128.358 65.4129 126.276 65.2825 125.772 64.0189C125.484 63.2352 125.656 62.123 126.409 61.6087C127.894 60.5925 131.302 60.5593 133.066 60.6811C132.948 62.1021 131.612 64.3696 129.986 64.922ZM131.496 52.1057C128.386 52.1057 126.149 52.7196 125.222 53.0641L124.614 56.1153C126.008 55.3341 135.474 53.1527 133.616 58.384C124.321 57.9436 120.483 60.387 121.416 64.5431C122.519 69.1629 129.494 68.9329 132.338 65.4129L131.99 67.6521H135.738L137.619 58.7901C138.525 54.6943 136.843 52.2829 131.496 52.1057Z" fill="#EE3338"/>
<path d="M142.215 52.4527L143.891 63.8L150.949 52.5056H155.814C155.814 52.5056 144.507 70.7279 141.453 72.9696C139.404 74.6256 135.343 74.2947 133.815 73.8357L134.68 70.8817C137.633 71.6458 138.65 71.1869 140.74 68.4371L137.645 52.4527H142.215Z" fill="#EE3338"/>
<path d="M46.4714 52.4433L48.2711 63.5408L55.2484 52.4433H59.9783L49.8419 67.6514H44.7024L41.8633 52.4433H46.4714Z" fill="#EE3338"/>
<path d="M71.6318 67.6807L75.1562 52.4431H79.4912L78.8663 55.1978C80.3154 53.0398 82.8236 51.7565 85.7157 52.2499L84.8706 56.0701C79.7114 54.7315 78.1479 59.1311 77.4196 62.0716L76.1391 67.6807H71.6318Z" fill="#EE3338"/>
<path d="M89.9203 52.4589L91.5613 63.7447L98.6013 52.4589H103.432L93.3868 67.4283C90.9868 71.1685 90.0285 72.0691 88.6655 73.1604C86.6161 74.814 82.4693 74.0352 81.4053 73.7916L82.4693 70.8978C84.4597 71.3038 86.2901 71.7972 88.3924 68.3547L85.2519 52.4589H89.9203Z" fill="#EE3338"/>
<path d="M68.756 58.5738H61.0849C62.5549 53.7829 70.322 53.6869 68.756 58.5738ZM72.6728 61.2535C73.9435 57.1663 73.4269 52.5612 66.9896 52.09C61.6828 51.9485 57.5458 54.8152 56.3231 59.7045C54.8211 70.3726 67.4828 67.9218 70.0649 67.1713L70.616 64.1226C66.5935 65.7761 60.1143 66.0591 60.5031 61.2535H72.6728Z" fill="#EE3338"/>
</g>
</g>
<rect width="178" height="118" fill="black" style="mix-blend-mode:hue"/>
</g>
<defs>
<clipPath id="clip0_283_8112">
<rect width="178" height="118" fill="white"/>
</clipPath>
<clipPath id="clip1_283_8112">
<rect width="177.807" height="91.013" fill="white" transform="translate(0.226562 12.5615)"/>
</clipPath>
</defs>
</svg>