<svg xmlns:xlink="http://www.w3.org/1999/xlink" xmlns="http://www.w3.org/2000/svg" width="94" height="80" viewBox="0 0 94 80" fill="none">
<circle cx="87.5335" cy="39.382" r="5.53821" fill="#96CAF7"/>
<circle cx="50.6118" cy="70.7658" r="5.53821" fill="#96CAF7"/>
<circle cx="72.7649" cy="30.1521" r="3.69214" fill="#96CAF7"/>
<circle cx="21.0748" cy="13.5369" r="3.69214" fill="#96CAF7"/>
<circle cx="51.5351" cy="31.0743" r="2.76911" fill="#96CAF7"/>
<circle cx="3.53742" cy="53.2281" r="2.76911" fill="#96CAF7"/>
<circle cx="15.5364" cy="34.767" r="1.84607" fill="#96CAF7"/>
<circle cx="22.9207" cy="63.3812" r="1.84607" fill="#96CAF7"/>
<circle cx="46.9197" cy="7.99841" r="1.84607" fill="#96CAF7"/>
<circle cx="65.3805" cy="2.46082" r="1.84607" fill="#96CAF7"/>
<circle cx="89.3792" cy="54.1503" r="1.84607" fill="#96CAF7"/>
<circle cx="35.8436" cy="78.1493" r="1.84607" fill="#96CAF7"/>
<circle cx="82.9185" cy="73.5347" r="2.76911" fill="#96CAF7"/>
<g clip-path="url(#clip0_101_1587)">
<path d="M69.8765 34.842L62.9825 23.0468C61.6802 20.8184 59.4739 19.2922 56.9296 18.8592C54.3856 18.4264 51.7983 19.1368 49.8323 20.8088C48.4665 21.9703 48.267 23.9822 49.3779 25.3893C50.178 26.403 51.5061 26.8614 52.7609 26.5573L53.8585 26.2915C54.3911 26.1627 54.9475 26.4482 55.1532 26.9558L58.3503 34.8419H35.2869L38.4839 26.9558C38.6898 26.4481 39.2464 26.1627 39.7789 26.2915L40.8764 26.5572C42.1316 26.8613 43.4593 26.4029 44.2595 25.3893C45.3704 23.9821 45.1707 21.9702 43.8051 20.8088C41.8389 19.1368 39.2523 18.426 36.7078 18.8592C34.1634 19.2922 31.9571 20.8184 30.6548 23.0468L23.7609 34.842H20.9736V60.0292H41.3908L46.8487 53.2918L52.2404 60.0292H72.6636V34.842H69.8765ZM58.2773 25.6895C57.4491 23.6458 55.2082 22.4963 53.0647 23.0154L52.2051 23.2236C53.3837 22.3099 54.8851 21.9311 56.364 22.1828C57.9227 22.448 59.2742 23.3831 60.0721 24.7482L65.9718 34.8424H61.9878L58.2773 25.6895ZM33.5652 24.748C34.3631 23.3829 35.7146 22.4479 37.2733 22.1826C38.7518 21.9311 40.2536 22.3098 41.4322 23.2234L40.5724 23.0153C38.4294 22.4962 36.1884 23.6457 35.3599 25.6893L31.6493 34.8421H27.6655L33.5652 24.748ZM69.2926 56.6582H53.8603L46.8646 47.9166L39.7831 56.6582H24.3447V38.2131H69.2925V56.6582H69.2926Z" fill="#3888E8"/>
<path d="M44.8935 42.9014C44.1754 41.3954 42.6928 40.46 41.0244 40.46H26.593V54.4103H38.7124L44.3552 47.4447C45.4053 46.1483 45.6117 44.4074 44.8935 42.9014ZM41.7359 45.3227L37.1049 51.0393H29.9642V43.8311H41.0246C41.546 43.8311 41.7761 44.1958 41.8509 44.3526C41.9256 44.5092 42.064 44.9176 41.7359 45.3227Z" fill="#3888E8"/>
<path d="M52.699 40.4609C51.0362 40.4609 49.5557 41.3921 48.8355 42.8908C48.1152 44.3896 48.3132 46.1273 49.3523 47.4257L54.9426 54.4112H67.0476V40.4609H52.699ZM63.6766 51.0402H56.5625L51.9842 45.3194C51.6596 44.9137 51.799 44.507 51.8739 44.351C51.9489 44.195 52.1794 43.8321 52.699 43.8321H63.6765V51.0402H63.6766Z" fill="#3888E8"/>
</g>
<defs>
<clipPath id="clip0_101_1587">
<rect width="51.69" height="51.69" fill="white" transform="translate(20.9758 13.5371)"/>
</clipPath>
</defs>
</svg>