<svg xmlns:xlink="http://www.w3.org/1999/xlink" xmlns="http://www.w3.org/2000/svg" width="94" height="75" viewBox="0 0 94 75" fill="none">
<circle cx="87.5338" cy="33.8434" r="5.53821" fill="#96CAF7"/>
<circle cx="50.6127" cy="65.2272" r="5.53821" fill="#96CAF7"/>
<circle cx="74.6116" cy="17.2293" r="3.69214" fill="#96CAF7"/>
<circle cx="21.0756" cy="43.0745" r="3.69214" fill="#96CAF7"/>
<circle cx="3.53766" cy="47.6895" r="2.76911" fill="#96CAF7"/>
<circle cx="15.5371" cy="29.2289" r="1.84607" fill="#96CAF7"/>
<circle cx="54.3042" cy="52.3051" r="1.84607" fill="#96CAF7"/>
<circle cx="61.689" cy="2.46082" r="1.84607" fill="#96CAF7"/>
<circle cx="89.38" cy="48.6127" r="1.84607" fill="#96CAF7"/>
<circle cx="35.8439" cy="72.6117" r="1.84607" fill="#96CAF7"/>
<circle cx="82.9188" cy="67.9966" r="2.76911" fill="#96CAF7"/>
<g clip-path="url(#clip0_101_1662)">
<path d="M72.2978 28.1334L58.9448 14.7802C58.3219 14.1572 57.3116 14.1572 56.6886 14.7802L50.2083 21.2606C49.5853 21.8836 49.5853 22.8938 50.2083 23.5168L51.4288 24.7372L48.0158 25.0363C47.6393 25.0693 47.273 25.1467 46.9193 25.2647C46.5666 25.147 46.1994 25.0692 45.8245 25.0363L42.4115 24.7372L43.6319 23.5168C44.2549 22.8938 44.2549 21.8836 43.6319 21.2606L37.1516 14.7802C36.5287 14.1572 35.5184 14.1572 34.8954 14.7802L21.5424 28.1334C20.9194 28.7563 20.9194 29.7666 21.5424 30.3896L28.0228 36.8699C28.6455 37.4926 29.6561 37.4928 30.279 36.8699L31.7224 35.4265L32.0209 38.8387C32.1186 39.9579 32.6103 41.0119 33.4047 41.8063L43.0133 51.4137C45.6508 54.0512 48.4358 53.805 50.2386 52.0025C51.0928 51.1482 60.4011 41.8411 60.4363 41.8057C61.2306 41.0113 61.7218 39.9577 61.8195 38.8387L62.118 35.4264L63.5615 36.8698C64.1842 37.4925 65.1947 37.4927 65.8176 36.8698L72.298 30.3895C72.9209 29.7666 72.9209 28.7563 72.2978 28.1334ZM29.1509 33.4857L24.9267 29.2615L36.0237 18.1646L40.2478 22.3887C26.8537 35.7827 30.2747 32.3617 29.1509 33.4857ZM56.7317 40.9927C56.7315 40.9929 56.7313 40.9931 56.7311 40.9933C56.1459 41.5793 55.1981 41.5795 54.6114 40.9928C54.6104 40.9918 54.6092 40.9909 54.6082 40.9899L52.0607 38.4423C51.4376 37.8193 50.4276 37.8194 49.8046 38.4423C49.1816 39.0654 49.1816 40.0755 49.8046 40.6985L52.3552 43.2492C52.3557 43.2497 52.3563 43.2501 52.3568 43.2506C52.9411 43.8366 52.9425 44.7834 52.3547 45.3699C51.7695 45.9558 50.8215 45.9561 50.2347 45.3694C50.234 45.3687 50.2332 45.3681 50.2326 45.3675L47.6841 42.8189C47.0611 42.1959 46.0509 42.1959 45.4279 42.8189C44.8049 43.4419 44.8049 44.4521 45.4279 45.0751L47.9785 47.6258C47.9788 47.6261 47.9791 47.6264 47.9796 47.6268C48.562 48.2105 48.5684 49.1574 47.9769 49.7476C47.6265 50.099 47.1236 50.2523 46.6318 50.158C46.0958 50.0552 45.9059 49.7942 45.2692 49.1574L35.6605 39.5499C35.3957 39.2851 35.2318 38.9338 35.1992 38.5607L34.6676 32.4814C35.3343 31.8146 38.402 28.7462 39.4665 27.6822L45.5458 28.2149C45.9186 28.2475 46.2695 28.4112 46.5341 28.6755C48.869 31.0095 56.1303 38.2711 56.731 38.872C57.3159 39.4571 57.3161 40.4085 56.7317 40.9927ZM58.8252 36.4535C58.3257 35.954 52.8534 30.4814 50.4018 28.0303L54.3735 27.6823C55.5079 28.816 58.8369 32.1461 59.1725 32.4815L58.8252 36.4535ZM64.6895 33.4857C63.1952 31.9914 53.9226 22.7188 53.5926 22.3888L57.8166 18.1647L68.9136 29.2614L64.6895 33.4857Z" fill="#3888E8"/>
<circle cx="48.7664" cy="13.537" r="1.84607" fill="#96CAF7"/>
</g>
<defs>
<clipPath id="clip0_101_1662">
<rect width="51.69" height="51.69" fill="white" transform="translate(21.0753 7.99902)"/>
</clipPath>
</defs>
</svg>