<svg xmlns:xlink="http://www.w3.org/1999/xlink" xmlns="http://www.w3.org/2000/svg" width="94" height="80" viewBox="0 0 94 80" fill="none">
<circle cx="87.5341" cy="39.382" r="5.53821" fill="#96CAF7"/>
<circle cx="50.6119" cy="70.7658" r="5.53821" fill="#96CAF7"/>
<circle cx="72.765" cy="30.1521" r="3.69214" fill="#96CAF7"/>
<circle cx="21.0754" cy="48.6126" r="3.69214" fill="#96CAF7"/>
<circle cx="68.1501" cy="56.9195" r="2.76911" fill="#96CAF7"/>
<circle cx="3.53742" cy="53.2281" r="2.76911" fill="#96CAF7"/>
<circle cx="15.5369" cy="34.767" r="1.84607" fill="#96CAF7"/>
<circle cx="28.4595" cy="19.0751" r="1.84607" fill="#96CAF7"/>
<circle cx="46.9198" cy="7.99841" r="1.84607" fill="#96CAF7"/>
<circle cx="65.3811" cy="2.46082" r="1.84607" fill="#96CAF7"/>
<circle cx="89.3802" cy="54.1503" r="1.84607" fill="#96CAF7"/>
<circle cx="35.8437" cy="78.1493" r="1.84607" fill="#96CAF7"/>
<circle cx="82.9185" cy="73.5347" r="2.76911" fill="#96CAF7"/>
<path d="M47.42 39.3823L57.1119 29.6904" stroke="#3888E8" stroke-width="3.23062" stroke-miterlimit="10" stroke-linecap="round" stroke-linejoin="round"/>
<path d="M70.0344 23.2293H63.5732V16.7681L57.1119 23.2293V29.6906H63.5732L70.0344 23.2293Z" stroke="#3888E8" stroke-width="3.23062" stroke-miterlimit="10" stroke-linecap="round" stroke-linejoin="round"/>
<path d="M47.42 49.0742C52.7727 49.0742 57.1119 44.735 57.1119 39.3823C57.1119 34.0296 52.7727 29.6904 47.42 29.6904C42.0673 29.6904 37.7281 34.0296 37.7281 39.3823C37.7281 44.735 42.0673 49.0742 47.42 49.0742Z" stroke="#3888E8" stroke-width="3.23062" stroke-miterlimit="10" stroke-linecap="round" stroke-linejoin="round"/>
<path d="M65.1881 28.0752C67.288 31.3058 68.4188 35.1825 68.4188 39.3824C68.4188 51.0126 59.05 60.3814 47.4197 60.3814C35.7895 60.3814 26.4207 51.0126 26.4207 39.3824C26.4207 27.7521 35.7895 18.3833 47.4197 18.3833C51.6195 18.3833 55.4963 19.514 58.7269 21.6139" stroke="#3888E8" stroke-width="3.23062" stroke-miterlimit="10" stroke-linecap="round" stroke-linejoin="round"/>
</svg>