<svg xmlns:xlink="http://www.w3.org/1999/xlink" xmlns="http://www.w3.org/2000/svg" width="45" height="37" viewBox="0 0 45 37" fill="none">
<path d="M24.1727 8.51802C21.9607 12.4619 21.6901 18.0821 24.4774 20.8383C24.5247 19.1935 24.8741 16.721 26.4425 13.949C29.1694 8.9936 34.7546 5.90104 34.7546 5.90104C34.7546 5.90104 30.1283 10.2522 27.4828 15.0368C26.432 16.9102 25.9013 18.6417 25.6596 20.2682C25.6228 20.5046 25.6123 20.728 25.5861 20.9592C25.5598 21.1773 25.5256 21.4032 25.5125 21.6187C25.5125 21.6187 25.5178 21.6239 25.523 21.6239C25.2524 25.2157 26.1299 28.3056 24.2646 31.6294C21.9265 35.8544 17.915 35.0898 17.915 35.0898C17.915 35.0898 19.6856 34.6983 21.4248 31.5085C23.0956 28.5579 23.579 25.221 19.859 23.1663C18.6296 22.4831 17.4684 22.2572 16.2626 22.1284L16.2678 22.1258C16.2232 22.1179 16.1759 22.1153 16.1286 22.11C15.175 22.0154 14.1819 21.9655 13.1022 21.8263C12.9708 21.8105 12.8368 21.7895 12.6976 21.7684C12.2484 21.7028 11.786 21.6187 11.3 21.4952C11.2396 21.4821 11.1792 21.4637 11.1187 21.4479C10.6564 21.327 10.1677 21.1641 9.66597 20.9776C9.50834 20.9198 9.35071 20.8567 9.19309 20.7884C8.61776 20.5545 8.02667 20.2865 7.39354 19.9345C4.05452 18.0584 3.30843 15.4152 3.30843 15.4152C3.30843 15.4152 4.70078 17.4909 7.59057 19.0858C11.9752 21.5136 15.2511 21.4321 16.8931 21.1536C18.5061 17.8798 17.7153 14.2906 14.4578 12.4776C10.5933 10.3284 5.67018 12.7535 2.68056 11.0851C0.620931 9.94475 1.36965 7.05189 1.36965 7.05189C0.473813 8.69144 -2.25835 18.0506 4.23579 21.6502C4.60884 21.8578 5.0712 22.0575 5.5756 22.2519C11.2396 24.6771 16.0524 22.4069 19.1471 24.1253C22.494 25.9593 20.3319 29.3382 19.859 30.1449C19.4098 30.962 14.0584 37.1708 9.02759 34.3646L8.84894 34.8796L16.7959 36.8765L20.9782 37C20.9782 37 23.8102 35.8281 25.2656 33.156C27.4802 29.2226 25.9985 25.2394 26.6238 22.2204C30.3989 24.057 35.8133 25.1211 38.5087 20.276C41.5955 14.7399 38.1041 10.352 41.3407 4.55314C42.888 1.72859 44.9687 -0.000297546 44.9687 -0.000297546C44.9687 -0.000297546 28.6886 0.41222 24.1727 8.51802Z" fill="#1263AD"/>
</svg>