<svg xmlns:xlink="http://www.w3.org/1999/xlink" xmlns="http://www.w3.org/2000/svg" width="45" height="38" viewBox="0 0 45 38" fill="none">
<path d="M24.1727 9.05794C21.9607 13.0018 21.6901 18.622 24.4774 21.3782C24.5247 19.7334 24.8741 17.261 26.4425 14.489C29.1694 9.53351 34.7546 6.44096 34.7546 6.44096C34.7546 6.44096 30.1283 10.7921 27.4828 15.5767C26.432 17.4501 25.9013 19.1817 25.6596 20.8081C25.6228 21.0445 25.6123 21.2679 25.5861 21.4991C25.5598 21.7172 25.5256 21.9431 25.5125 22.1586C25.5125 22.1586 25.5178 22.1639 25.523 22.1639C25.2524 25.7556 26.1299 28.8456 24.2646 32.1693C21.9265 36.3943 17.915 35.6297 17.915 35.6297C17.915 35.6297 19.6856 35.2382 21.4248 32.0485C23.0956 29.0978 23.579 25.7609 19.859 23.7062C18.6296 23.023 17.4684 22.7971 16.2626 22.6683L16.2678 22.6657C16.2232 22.6578 16.1759 22.6552 16.1286 22.6499C15.175 22.5553 14.1819 22.5054 13.1022 22.3662C12.9708 22.3504 12.8368 22.3294 12.6976 22.3084C12.2484 22.2427 11.786 22.1586 11.3 22.0351C11.2396 22.022 11.1792 22.0036 11.1187 21.9878C10.6564 21.8669 10.1677 21.704 9.66597 21.5175C9.50834 21.4597 9.35071 21.3966 9.19309 21.3283C8.61776 21.0945 8.02667 20.8265 7.39354 20.4744C4.05452 18.5984 3.30843 15.9551 3.30843 15.9551C3.30843 15.9551 4.70078 18.0308 7.59057 19.6257C11.9752 22.0535 15.2511 21.972 16.8931 21.6935C18.5061 18.4197 17.7153 14.8305 14.4578 13.0176C10.5933 10.8683 5.67018 13.2935 2.68056 11.625C0.620931 10.4847 1.36965 7.5918 1.36965 7.5918C0.473813 9.23136 -2.25835 18.5905 4.23579 22.1901C4.60884 22.3977 5.0712 22.5974 5.5756 22.7918C11.2396 25.217 16.0524 22.9468 19.1471 24.6652C22.494 26.4992 20.3319 29.8782 19.859 30.6848C19.4098 31.5019 14.0584 37.7107 9.02759 34.9045L8.84894 35.4195L16.7959 37.4164L20.9782 37.5399C20.9782 37.5399 23.8102 36.3681 25.2656 33.6959C27.4802 29.7625 25.9985 25.7793 26.6238 22.7603C30.3989 24.5969 35.8133 25.661 38.5087 20.816C41.5955 15.2798 38.1041 10.8919 41.3407 5.09306C42.888 2.26851 44.9687 0.539619 44.9687 0.539619C44.9687 0.539619 28.6886 0.952137 24.1727 9.05794Z" fill="white"/>
</svg>