<svg xmlns:xlink="http://www.w3.org/1999/xlink" xmlns="http://www.w3.org/2000/svg" width="46" height="45" viewBox="0 0 46 45" fill="none">
<path d="M26.2394 16.7089C24.2212 20.3073 23.9743 25.4351 26.5174 27.9499C26.5606 26.4492 26.8794 24.1933 28.3103 21.6641C30.7983 17.1428 35.8942 14.3212 35.8942 14.3212C35.8942 14.3212 31.6732 18.2911 29.2595 22.6566C28.3007 24.3659 27.8166 25.9457 27.596 27.4297C27.5625 27.6454 27.5529 27.8492 27.5289 28.0601C27.505 28.2591 27.4738 28.4653 27.4618 28.6619C27.4618 28.6619 27.4666 28.6667 27.4714 28.6667C27.2245 31.9438 28.0251 34.763 26.3233 37.7956C24.19 41.6505 20.5299 40.9528 20.5299 40.9528C20.5299 40.9528 22.1454 40.5956 23.7322 37.6853C25.2566 34.9931 25.6977 31.9486 22.3036 30.0739C21.1819 29.4506 20.1224 29.2444 19.0222 29.1269L19.027 29.1245C18.9863 29.1174 18.9431 29.115 18.9 29.1102C18.0299 29.0239 17.1239 28.9783 16.1387 28.8513C16.0189 28.8369 15.8966 28.8177 15.7696 28.7985C15.3597 28.7386 14.9379 28.6619 14.4944 28.5492C14.4393 28.5372 14.3842 28.5204 14.329 28.506C13.9072 28.3958 13.4614 28.2471 13.0035 28.0769C12.8597 28.0242 12.7159 27.9667 12.5721 27.9043C12.0472 27.691 11.5079 27.4464 10.9302 27.1252C7.8837 25.4135 7.20297 23.0018 7.20297 23.0018C7.20297 23.0018 8.47334 24.8957 11.11 26.3509C15.1104 28.566 18.0994 28.4917 19.5975 28.2375C21.0692 25.2505 20.3477 21.9758 17.3755 20.3217C13.8497 18.3607 9.35781 20.5734 6.6301 19.0511C4.75091 18.0107 5.43404 15.3712 5.43404 15.3712C4.61668 16.8671 2.12388 25.4063 8.04909 28.6906C8.38945 28.88 8.81131 29.0622 9.27152 29.2396C14.4393 31.4523 18.8305 29.3811 21.6541 30.9489C24.7077 32.6222 22.7351 35.7051 22.3036 36.4411C21.8938 37.1867 17.0112 42.8515 12.4211 40.2912L12.2581 40.7611L19.5088 42.583L23.3247 42.6957C23.3247 42.6957 25.9086 41.6265 27.2365 39.1884C29.2571 35.5997 27.9053 31.9654 28.4757 29.2108C31.9201 30.8866 36.8602 31.8575 39.3194 27.4368C42.1358 22.3857 38.9503 18.3822 41.9033 13.0914C43.3151 10.5143 45.2135 8.93686 45.2135 8.93686C45.2135 8.93686 30.3597 9.31324 26.2394 16.7089Z" fill="white"/>
<path d="M32.4489 4.34492C33.2686 4.79801 34.0476 5.29186 34.7691 5.82885C33.4939 4.52712 32.0198 3.3836 30.3348 2.44146C21.1162 -2.68876 9.55099 0.533211 4.48868 9.60221C4.0069 10.5084 3.56826 11.4409 3.24707 12.3975C9.13633 2.21132 22.1469 -1.4086 32.4489 4.34492Z" fill="white"/>
<path d="M10.987 39.5854C5.649 36.5792 2.03204 31.6767 0.521973 26.1629C1.43281 32.6644 5.23913 38.7056 11.4328 42.1409C21.8475 47.9472 35.0258 44.1954 40.8407 33.7336C42.5929 30.6099 43.4486 27.2273 43.5469 23.8543C43.1298 26.2372 42.3172 28.5986 41.0684 30.864C35.1025 41.5943 21.6557 45.4636 10.987 39.5854Z" fill="white"/>
</svg>