<svg xmlns:xlink="http://www.w3.org/1999/xlink" xmlns="http://www.w3.org/2000/svg" width="53" height="50" viewBox="0 0 53 50" fill="none">
<path d="M11.0965 34.2451H18.8331L15.2398 45.4797H4.98057C4.44525 45.4797 4.00525 45.0397 4.00525 44.5044C4.00525 44.3137 4.06391 44.1304 4.16658 43.969L10.2825 34.6778C10.4659 34.4138 10.7739 34.2451 11.0965 34.2451Z" fill="white"/>
<path d="M18.0857 49.3887H4.98112C2.28981 49.3887 0.104492 47.2034 0.104492 44.5121C0.104492 43.5588 0.383156 42.6275 0.911152 41.8281L7.0271 32.5369C7.92909 31.1656 9.45441 30.3442 11.0971 30.3442H24.1796L18.0857 49.3887ZM11.0971 34.2455C10.7671 34.2455 10.4664 34.4069 10.2831 34.6855L4.16712 43.9768C4.06446 44.1381 4.00579 44.3215 4.00579 44.5121C4.00579 45.0474 4.44579 45.4874 4.98112 45.4874H15.2404L18.8337 34.2529H11.0971V34.2455Z" fill="#001F4E"/>
<path d="M21.7592 34.2451H29.7965L31.6518 45.487H19.9039L21.7592 34.2451Z" fill="white"/>
<path d="M36.2505 49.3878H15.3066L18.4453 30.3506H33.1118L36.2505 49.3878ZM19.9046 45.4865H31.6525L29.7972 34.2446H21.7599L19.9046 45.4865Z" fill="#001F4E"/>
<path d="M33.7871 34.2451H41.5237C41.8537 34.2451 42.1544 34.4064 42.3377 34.6851L48.461 43.9764C48.7543 44.4237 48.6297 45.0324 48.1823 45.3257C48.021 45.4284 47.8377 45.487 47.647 45.487H37.3877L33.7871 34.2451Z" fill="white"/>
<path d="M47.6453 49.3887H34.5407L28.4468 30.3442H41.5293C43.172 30.3442 44.6973 31.1656 45.5993 32.5369L51.7152 41.8281C52.4339 42.9135 52.6832 44.2188 52.4192 45.4948C52.1552 46.7708 51.4146 47.8634 50.3219 48.5821C49.5299 49.1101 48.5986 49.3887 47.6453 49.3887ZM37.386 45.4874H47.6453C47.8359 45.4874 48.0193 45.4288 48.1806 45.3261C48.4739 45.1354 48.5693 44.8568 48.5986 44.7101C48.6279 44.5635 48.6499 44.2701 48.4593 43.9768L42.3433 34.6929C42.16 34.4142 41.8593 34.2529 41.5293 34.2529H33.7854L37.386 45.4874Z" fill="#001F4E"/>
<path d="M27.5894 38.2726C36.272 30.7706 40.6133 24.0534 40.6133 18.1281C40.6133 8.81483 33.082 2.57422 26.3134 2.57422C19.5448 2.57422 12.0135 8.81483 12.0135 18.1281C12.0135 24.0534 16.3548 30.7633 25.0448 38.2726C25.7708 38.9032 26.8561 38.9032 27.5894 38.2726Z" fill="white"/>
<path d="M26.3138 40.6925C25.3971 40.6925 24.4878 40.3772 23.7618 39.7465C14.5439 31.7826 10.0632 24.706 10.0632 18.1281C10.0632 7.65614 18.4672 0.623535 26.3138 0.623535C34.1604 0.623535 42.5643 7.65614 42.5643 18.1281C42.5643 24.706 38.0837 31.7826 28.8584 39.7465C28.1397 40.3772 27.2231 40.6925 26.3138 40.6925ZM26.3138 4.52484C20.4691 4.52484 13.9645 10.1128 13.9645 18.1281C13.9645 23.43 18.1225 29.7146 26.3138 36.7986C34.5124 29.7146 38.663 23.43 38.663 18.1281C38.663 10.1128 32.1584 4.52484 26.3138 4.52484Z" fill="#001F4E"/>
<path d="M19.1635 16.8819C19.1635 18.7782 19.9167 20.5968 21.2576 21.9376C22.5985 23.2785 24.4171 24.0318 26.3134 24.0318C28.2097 24.0318 30.0283 23.2785 31.3692 21.9376C32.71 20.5968 33.4633 18.7782 33.4633 16.8819C33.4633 14.9856 32.71 13.167 31.3692 11.8261C30.0283 10.4852 28.2097 9.73193 26.3134 9.73193C24.4171 9.73193 22.5985 10.4852 21.2576 11.8261C19.9167 13.167 19.1635 14.9856 19.1635 16.8819Z" fill="white"/>
<path d="M26.3136 25.9829C21.2976 25.9829 17.213 21.8983 17.213 16.8823C17.213 11.8664 21.2976 7.78174 26.3136 7.78174C31.3296 7.78174 35.4142 11.859 35.4142 16.8823C35.4142 21.9056 31.3296 25.9829 26.3136 25.9829ZM26.3136 11.6757C23.4463 11.6757 21.1143 14.0077 21.1143 16.875C21.1143 19.7423 23.4463 22.0743 26.3136 22.0743C29.1809 22.0743 31.5129 19.7423 31.5129 16.875C31.5129 14.0077 29.1809 11.6757 26.3136 11.6757Z" fill="#001F4E"/>
</svg>