<svg xmlns:xlink="http://www.w3.org/1999/xlink" xmlns="http://www.w3.org/2000/svg" width="84" height="45" viewBox="0 0 84 45" fill="none">
<path d="M43.9548 11.6187C43.3727 12.7494 43.3015 14.3607 44.035 15.1509C44.0475 14.6794 44.1394 13.9705 44.5522 13.1758C45.2698 11.7551 46.7396 10.8685 46.7396 10.8685C46.7396 10.8685 45.5221 12.1159 44.8259 13.4876C44.5494 14.0247 44.4097 14.5212 44.3461 14.9874C44.3364 15.0552 44.3337 15.1193 44.3268 15.1856C44.3199 15.2481 44.3109 15.3129 44.3074 15.3746C44.3074 15.3746 44.3088 15.3761 44.3102 15.3761C44.239 16.4059 44.4699 17.2918 43.979 18.2447C43.3637 19.456 42.308 19.2368 42.308 19.2368C42.308 19.2368 42.774 19.1245 43.2316 18.21C43.6714 17.3641 43.7986 16.4074 42.8196 15.8183C42.496 15.6225 42.1905 15.5577 41.8731 15.5208L41.8745 15.52C41.8628 15.5178 41.8503 15.517 41.8379 15.5155C41.5869 15.4884 41.3256 15.4741 41.0414 15.4341C41.0068 15.4296 40.9716 15.4236 40.9349 15.4176C40.8167 15.3987 40.695 15.3746 40.5671 15.3392C40.5512 15.3355 40.5353 15.3302 40.5194 15.3257C40.3978 15.291 40.2692 15.2443 40.1371 15.1908C40.0956 15.1743 40.0541 15.1562 40.0127 15.1366C39.8613 15.0696 39.7057 14.9927 39.5391 14.8918C38.6604 14.3539 38.464 13.5961 38.464 13.5961C38.464 13.5961 38.8304 14.1912 39.5909 14.6485C40.7448 15.3445 41.6069 15.3212 42.039 15.2413C42.4635 14.3027 42.2554 13.2737 41.3982 12.7539C40.3812 12.1377 39.0855 12.833 38.2988 12.3547C37.7567 12.0278 37.9538 11.1984 37.9538 11.1984C37.718 11.6684 36.999 14.3517 38.7081 15.3837C38.8062 15.4432 38.9279 15.5004 39.0607 15.5562C40.5512 16.2515 41.8178 15.6006 42.6322 16.0933C43.513 16.6191 42.944 17.5878 42.8196 17.8191C42.7014 18.0533 41.2931 19.8334 39.9691 19.0289L39.9221 19.1765L42.0135 19.749L43.1141 19.7844C43.1141 19.7844 43.8594 19.4484 44.2424 18.6823C44.8252 17.5547 44.4353 16.4127 44.5999 15.5471C45.5933 16.0737 47.0182 16.3788 47.7276 14.9897C48.5399 13.4025 47.6211 12.1445 48.4729 10.482C48.8801 9.67223 49.4276 9.17656 49.4276 9.17656C49.4276 9.17656 45.1433 9.29483 43.9548 11.6187Z" fill="#00A85A"/>
<path d="M23.8174 5.49854C21.437 5.49176 20.1559 6.56595 19.5372 7.87367C18.915 9.17234 18.908 10.6646 18.9053 11.5558V20.6886H20.2921V11.3516C20.2921 10.6217 20.335 9.48496 20.7927 8.5554C21.2518 7.63261 22.0883 6.88384 23.8202 6.87028C25.5513 6.88384 26.3831 7.63261 26.8414 8.5554C27.2963 9.48345 27.3385 10.6217 27.3385 11.3516V20.6886H28.7309V11.5558C28.7295 10.6646 28.724 9.17234 28.099 7.87065C27.4789 6.56595 26.1978 5.49176 23.8174 5.49854Z" fill="#1263AD"/>
<path d="M5.26688 12.7525L9.07836 2.20488L12.7426 12.7525H5.26688ZM9.66879 0.227491H8.29643L0.757812 20.6884H2.39565L4.73799 14.2711H13.2632L15.5786 20.6884H17.2275L9.80914 0.227491H9.66879Z" fill="#1263AD"/>
<path d="M34.0032 1.73559C34.2929 1.47796 34.727 1.37175 35.2407 1.37175C35.6065 1.37175 35.9888 1.42749 36.3628 1.50809L36.6096 1.56459V0.195107L36.4458 0.15443C36.0531 0.0625286 35.6438 3.8147e-06 35.2407 3.8147e-06C34.4146 3.8147e-06 33.6409 0.219212 33.0657 0.721657C32.4884 1.22636 32.1324 2.02184 32.1365 3.08247V5.82445H29.7651V7.20071H29.9712H32.1351L32.1365 20.6884H33.5165V7.20071H36.2695V5.82445H33.5165V3.17136C33.5185 2.41053 33.7114 1.99095 34.0032 1.73559Z" fill="#1263AD"/>
<path d="M81.0655 13.5813C80.1743 12.9365 78.9831 12.6336 77.666 12.3594C76.5986 12.1094 75.5097 11.8939 74.7146 11.4751C73.9216 11.0434 73.4397 10.4822 73.4307 9.42236C73.437 8.48602 73.8711 7.88113 74.5528 7.46079C75.2317 7.0495 76.1582 6.87021 77.0376 6.87021C78.112 6.87021 79.0363 7.12859 79.6841 7.68C80.3292 8.22915 80.7267 9.06154 80.744 10.3188L80.7447 10.5395H82.1274V10.3158C82.1302 8.62764 81.5819 7.39451 80.6575 6.61485C79.7339 5.83369 78.4673 5.50073 77.0376 5.49847C75.8927 5.50375 74.6669 5.71316 73.7024 6.306C72.7373 6.89733 72.0411 7.91729 72.0466 9.42236C72.0411 10.9568 72.6592 11.9519 73.5579 12.5681C74.4519 13.1888 75.6099 13.4758 76.759 13.7312C77.8935 13.982 79.0156 14.2027 79.8245 14.6397C80.6334 15.0879 81.1187 15.6837 81.1263 16.8174C81.1228 17.9782 80.5774 18.6441 79.7892 19.0811C79.0052 19.5074 77.9792 19.6475 77.1357 19.6468C74.8218 19.6325 73.121 18.2072 72.9661 15.6589L72.9558 15.4494H72.7636H71.582L71.5876 15.6792C71.6512 19.1481 74.0357 21.0276 77.0901 21.0276H77.1357C78.3145 21.0276 79.6385 20.8053 80.6866 20.1711C81.7423 19.5428 82.5187 18.4521 82.5118 16.8174C82.5187 15.2506 81.9594 14.2223 81.0655 13.5813Z" fill="#1263AD"/>
<path d="M52.432 7.87343C51.8084 9.17286 51.8015 10.6651 51.8008 11.5555V20.6869H53.189V11.3514C53.187 10.6214 53.2319 9.48547 53.6896 8.55516C54.1514 7.63238 54.9845 6.88361 56.7171 6.87005V6.64632V6.4241V5.94878V5.7258V5.49831C54.3353 5.49153 53.0542 6.56572 52.432 7.87343Z" fill="#1263AD"/>
<path d="M66.827 17.6926C66.0471 18.873 64.9022 19.6444 63.2962 19.6466C61.6577 19.6444 60.5031 18.8903 59.7205 17.7212C58.9468 16.5499 58.5659 14.9499 58.5659 13.2934C58.5659 11.5849 58.9137 9.96686 59.6728 8.79248C60.4312 7.62186 61.5796 6.8746 63.2741 6.87083C64.9078 6.8746 66.0575 7.64672 66.8332 8.83541C67.6034 10.0264 67.9774 11.6437 67.976 13.2934C67.9774 14.9062 67.5958 16.5084 66.827 17.6926ZM68.0044 0.452045V8.35632C67.0793 6.51377 65.221 5.49758 63.2741 5.49834C61.2263 5.49758 59.6776 6.35558 58.6682 7.76951C57.6581 9.18042 57.1763 11.1232 57.1763 13.2934C57.177 15.3137 57.6111 17.2369 58.5749 18.6696C59.5352 20.1031 61.0355 21.0274 63.0798 21.0274H63.0916C64.4667 21.0289 65.6144 20.6387 66.5581 19.8741C68.1247 18.7442 69.4003 16.6335 69.394 13.1932V0.227564H68.0044V0.452045Z" fill="#1263AD"/>
<path d="M45.7446 7.73361C45.9811 7.87598 46.2058 8.03116 46.4139 8.19989C46.0461 7.79086 45.6209 7.43154 45.1349 7.13549C42.4759 5.52345 39.1401 6.53587 37.6799 9.38557C37.5409 9.67032 37.4144 9.96335 37.3218 10.2639C39.0205 7.06318 42.7732 5.92571 45.7446 7.73361Z" fill="#1263AD"/>
<path d="M39.5546 18.8069C38.015 17.8623 36.9717 16.3218 36.5361 14.5893C36.7989 16.6322 37.8967 18.5305 39.6832 19.6099C42.6872 21.4344 46.4883 20.2555 48.1655 16.9681C48.6709 15.9866 48.9177 14.9237 48.9461 13.8638C48.8258 14.6126 48.5914 15.3546 48.2312 16.0665C46.5104 19.4382 42.6319 20.654 39.5546 18.8069Z" fill="#1263AD"/>
<path d="M21.1731 32.6963C21.1731 33.9084 21.8167 35.1114 22.9858 35.1114C24.157 35.1114 24.8083 33.9566 24.8083 32.6255C24.8083 31.4933 24.2365 30.2014 23.0017 30.2014C21.751 30.2014 21.1731 31.4451 21.1731 32.6963ZM25.165 32.6014C25.165 34.4982 24.1058 35.43 22.9651 35.43C21.751 35.43 20.8149 34.386 20.8149 32.7137C20.8149 30.9517 21.7877 29.8843 23.0245 29.8843C24.2662 29.8843 25.165 30.9351 25.165 32.6014Z" fill="#1263AD"/>
<path d="M26.3903 32.5697H27.1729C27.9327 32.5697 28.4319 32.1072 28.4319 31.3976C28.4319 30.5773 27.8739 30.2428 27.0996 30.2428C26.7643 30.2428 26.514 30.2828 26.3903 30.3144V32.5697ZM26.0474 30.0432C26.3467 29.9709 26.7712 29.9332 27.1079 29.9332C27.7509 29.9332 28.1533 30.0831 28.4388 30.3769C28.651 30.6006 28.7824 30.96 28.7824 31.3343C28.7824 32.0598 28.3862 32.5223 27.8166 32.7377V32.7535C28.2113 32.8884 28.4602 33.2952 28.5771 33.8925C28.7458 34.7294 28.8405 35.1272 28.9428 35.3434H28.5771C28.5045 35.1829 28.3932 34.7129 28.2625 34.0356C28.1173 33.262 27.8103 32.9117 27.1577 32.8809H26.3903V35.3434H26.0474V30.0432Z" fill="#1263AD"/>
<path d="M32.1689 33.1431L31.5695 31.351C31.4526 30.9767 31.3869 30.7047 31.3137 30.4019H31.2984C31.2252 30.7123 31.1457 30.9917 31.0426 31.3345L30.4363 33.1431H32.1689ZM30.3278 33.4625L29.7194 35.3427H29.3599L31.1457 29.971H31.4823L33.2591 35.3427H32.9017L32.2795 33.4625H30.3278Z" fill="#1263AD"/>
<path d="M34.0215 29.9704H34.3665V35.0235H36.5692V35.3429H34.0215V29.9704Z" fill="#1263AD"/>
<path d="M39.2466 29.9706V32.3299H41.9685V29.9706H42.3115V35.3431H41.9685V32.6569H39.2466V35.3431H38.9023V29.9706H39.2466Z" fill="#1263AD"/>
<path d="M44.5956 35.3427V33.0158L43.0234 29.9703H43.4175L44.2306 31.5725C44.4352 31.9951 44.6177 32.3379 44.7857 32.7288H44.8002C44.9544 32.3612 45.1521 31.9883 45.3706 31.5642L46.212 29.9703H46.6068L44.9399 33.0226V35.3427H44.5956Z" fill="#1263AD"/>
<path d="M50.5148 35.1033C50.2666 35.2155 49.7529 35.3978 49.0809 35.3978C48.4296 35.3978 47.8302 35.2155 47.3331 34.6874C46.9308 34.2581 46.6611 33.5409 46.6611 32.6724C46.6611 31.1831 47.553 29.9146 49.2268 29.9146C49.7612 29.9146 50.185 30.0592 50.3758 30.1541L50.2666 30.4728C50.0101 30.3379 49.681 30.2423 49.213 30.2423C47.8524 30.2423 47.0179 31.199 47.0179 32.6566C47.0179 34.1707 47.8378 35.0709 49.1397 35.0709C49.6513 35.0709 49.9894 34.9925 50.1712 34.8878V32.9925H49.0228V32.6807H50.5148V35.1033Z" fill="#1263AD"/>
<path d="M51.8926 35.3433H51.5483V29.9708H51.8926V35.3433Z" fill="#1263AD"/>
<path d="M55.4109 32.6731H53.4364V35.0233H55.6453V35.3427H53.0928V29.971H55.5284V30.2904H53.4364V32.3537H55.4109V32.6731Z" fill="#1263AD"/>
<path d="M56.5024 35.3427V29.9702H56.8315L58.7549 33.1431C59.1504 33.812 59.4352 34.3145 59.6772 34.8327L59.6903 34.8244C59.6398 34.099 59.6329 33.4859 59.6329 32.6407V29.9702H59.9765V35.3427H59.6475L57.7676 32.2196C57.4019 31.5974 57.0659 31.0301 56.8094 30.4817L56.7949 30.4885C56.8315 31.1514 56.8384 31.7322 56.8384 32.6256V35.3427H56.5024Z" fill="#1263AD"/>
<path d="M63.4888 32.6729H61.515V35.0231H63.7239V35.3425H61.1714V29.9708H63.6071V30.2902H61.515V32.3535H63.4888V32.6729Z" fill="#1263AD"/>
<path d="M9.38178 39.5396V41.8989H12.1044V39.5396H12.448V44.9106H12.1044V42.2258H9.38178V44.9106H9.03955V39.5396H9.38178Z" fill="#1263AD"/>
<path d="M16.0766 42.7107L15.4779 40.9187C15.361 40.5443 15.294 40.2731 15.2214 39.9703H15.2055C15.1329 40.2799 15.0534 40.5601 14.9504 40.9021L14.344 42.7107H16.0766ZM14.2341 43.0301L13.6264 44.9103H13.2676L15.0534 39.5401H15.3894L17.1662 44.9103H16.8087L16.1872 43.0301H14.2341Z" fill="#1263AD"/>
<path d="M18.2738 44.9108H17.9302V39.5398H18.2738V44.9108Z" fill="#1263AD"/>
<path d="M19.8177 42.1371H20.5997C21.3622 42.1371 21.8579 41.6754 21.8579 40.9658C21.8579 40.1454 21.3021 39.811 20.5278 39.811C20.1911 39.811 19.9422 39.8502 19.8177 39.8818V42.1371ZM19.4741 39.6106C19.7742 39.5398 20.198 39.5006 20.5347 39.5006C21.179 39.5006 21.5814 39.6513 21.8655 39.9451C22.0785 40.168 22.2098 40.5289 22.2098 40.9017C22.2098 41.6272 21.8144 42.0889 21.244 42.3051V42.3202C21.6381 42.4573 21.8884 42.8633 22.0052 43.4592C22.1725 44.2961 22.2679 44.6953 22.3689 44.9108H22.0052C21.9312 44.7511 21.8213 44.281 21.6906 43.6038C21.5441 42.8302 21.2371 42.4791 20.5844 42.449H19.8177V44.9108H19.4741V39.6106Z" fill="#1263AD"/>
<path d="M28.1073 44.72C27.8584 44.8624 27.3828 44.9995 26.7827 44.9995C25.5914 44.9995 24.4507 44.1626 24.4507 42.2568C24.4507 40.6628 25.3937 39.453 26.9444 39.453C27.5743 39.453 27.9379 39.6029 28.0928 39.6918L27.9746 40.0105C27.7257 39.8734 27.3689 39.7777 26.952 39.7777C25.6205 39.7777 24.8081 40.7186 24.8081 42.2651C24.8081 43.7234 25.5762 44.6643 26.8926 44.6643C27.3157 44.6643 27.7257 44.5679 28.005 44.4172L28.1073 44.72Z" fill="#1263AD"/>
<path d="M31.37 42.7107L30.7699 40.9187C30.6531 40.5443 30.5881 40.2731 30.5155 39.9703H30.5003C30.4277 40.2799 30.3468 40.5601 30.2438 40.9021L29.6368 42.7107H31.37ZM29.5283 43.0301L28.9205 44.9103H28.561L30.3468 39.5401H30.6828L32.4603 44.9103H32.1022L31.48 43.0301H29.5283Z" fill="#1263AD"/>
<path d="M33.5668 42.137H34.3494C35.1099 42.137 35.6077 41.6752 35.6077 40.9656C35.6077 40.1453 35.0504 39.8108 34.2761 39.8108C33.9401 39.8108 33.6898 39.85 33.5668 39.8816V42.137ZM33.2231 39.6104C33.5232 39.5396 33.9477 39.5004 34.2837 39.5004C34.9267 39.5004 35.329 39.6511 35.6146 39.9449C35.8275 40.1679 35.9582 40.5287 35.9582 40.9016C35.9582 41.627 35.5627 42.0887 34.993 42.3049V42.32C35.3871 42.4571 35.6367 42.8631 35.7528 43.459C35.9222 44.2959 36.0163 44.6951 36.1186 44.9106H35.7528C35.6809 44.7509 35.5696 44.2808 35.4383 43.6036C35.2938 42.83 34.9861 42.4789 34.3342 42.4488H33.5668V44.9106H33.2231V39.6104Z" fill="#1263AD"/>
<path d="M39.2378 42.2413H37.2639V44.5916H39.4728V44.9102H36.9189V39.54H39.356V39.8587H37.2639V41.9227H39.2378V42.2413Z" fill="#1263AD"/>
<path d="M41.6416 42.1419C41.6416 41.8233 41.7439 41.5521 41.9506 41.3261C42.158 41.1024 42.4069 40.9894 42.6966 40.9894C42.9891 40.9894 43.24 41.1024 43.4454 41.3261C43.6528 41.5521 43.7572 41.8233 43.7572 42.1419C43.7572 42.459 43.6528 42.7302 43.4454 42.9562C43.24 43.1799 42.9891 43.2937 42.6966 43.2937C42.4069 43.2937 42.158 43.1799 41.9506 42.9562C41.7439 42.7302 41.6416 42.459 41.6416 42.1419Z" fill="#1263AD"/>
<path d="M46.1053 44.313C46.3832 44.5209 46.7711 44.6723 47.1873 44.6723C47.9187 44.6723 48.3729 44.2181 48.3729 43.5559C48.3729 42.9495 48.0867 42.6 47.3788 42.2972C46.5809 41.9951 46.1053 41.5492 46.1053 40.8147C46.1053 40.026 46.7054 39.4528 47.5392 39.4528C47.9996 39.4528 48.3508 39.5876 48.5195 39.7066L48.3875 40.026C48.2561 39.9221 47.9402 39.7714 47.5163 39.7714C46.7199 39.7714 46.4496 40.3288 46.4496 40.7514C46.4496 41.3488 46.7641 41.6509 47.4728 41.9544C48.2845 42.3123 48.7159 42.7108 48.7159 43.5153C48.7159 44.2964 48.2049 45 47.1513 45C46.7275 45 46.2304 44.8395 45.9746 44.6309L46.1053 44.313Z" fill="#1263AD"/>
<path d="M49.6616 39.5395H50.0045V42.2566H50.0343C50.1739 42.0502 50.3191 41.8657 50.4525 41.6992L52.2003 39.5395H52.631L50.7512 41.8182L52.8066 44.9105H52.3821L50.5099 42.0819L50.0045 42.6883V44.9105H49.6616V39.5395Z" fill="#1263AD"/>
<path d="M53.6495 44.9108H53.3052V39.5398H53.6495V44.9108Z" fill="#1263AD"/>
<path d="M54.8501 44.9108V39.5398H55.1799L57.1026 42.7112C57.4973 43.3808 57.7822 43.8833 58.0241 44.4L58.0373 44.3932C57.9875 43.6678 57.9799 43.0539 57.9799 42.2102V39.5398H58.3242V44.9108H57.9937L56.1146 41.7869C55.7496 41.1654 55.4129 40.5997 55.1578 40.0498L55.1419 40.0573C55.1799 40.7187 55.1854 41.3002 55.1854 42.1944V44.9108H54.8501Z" fill="#1263AD"/>
<path d="M64.4554 44.7201C64.2079 44.8625 63.7316 44.9996 63.1322 44.9996C61.9396 44.9996 60.7988 44.1627 60.7988 42.2569C60.7988 40.6629 61.7432 39.4531 63.2933 39.4531C63.9224 39.4531 64.2888 39.603 64.4409 39.6919L64.3248 40.0106C64.0759 39.8735 63.7178 39.7778 63.3002 39.7778C61.97 39.7778 61.157 40.7186 61.157 42.2652C61.157 43.7235 61.9257 44.6644 63.2421 44.6644C63.6659 44.6644 64.0759 44.568 64.3538 44.4173L64.4554 44.7201Z" fill="#1263AD"/>
<path d="M67.7204 42.7106L67.1203 40.9185C67.0035 40.5441 66.9378 40.273 66.8652 39.9701H66.8493C66.7767 40.2797 66.6965 40.56 66.5935 40.902L65.9872 42.7106H67.7204ZM65.8779 43.03L65.2702 44.9102H64.9121L66.6965 39.54H67.0332L68.8093 44.9102H68.4519L67.829 43.03H65.8779Z" fill="#1263AD"/>
<path d="M69.9171 42.1372H70.6997C71.4602 42.1372 71.9573 41.6755 71.9573 40.9659C71.9573 40.1455 71.4007 39.8111 70.6264 39.8111C70.2897 39.8111 70.0408 39.8503 69.9171 39.8819V42.1372ZM69.5728 39.6107C69.8728 39.5399 70.2966 39.5007 70.634 39.5007C71.277 39.5007 71.6793 39.6514 71.9642 39.9452C72.1764 40.1681 72.3085 40.529 72.3085 40.9018C72.3085 41.6273 71.913 42.089 71.3426 42.3052V42.3203C71.7381 42.4574 71.987 42.8634 72.1038 43.4593C72.2705 44.2962 72.3672 44.6954 72.4689 44.9109H72.1038C72.0312 44.7512 71.9199 44.2811 71.7893 43.6039C71.6427 42.8303 71.3357 42.4792 70.6845 42.4491H69.9171V44.9109H69.5728V39.6107Z" fill="#1263AD"/>
<path d="M75.5862 42.2413H73.6117V44.5916H75.8206V44.9102H73.2681V39.54H75.7037V39.8587H73.6117V41.9227H75.5862V42.2413Z" fill="#1263AD"/>
<path d="M0 25.0051H83.8492" stroke="#1263AD" stroke-width="0.705333"/>
</svg>