<svg xmlns:xlink="http://www.w3.org/1999/xlink" xmlns="http://www.w3.org/2000/svg" width="178" height="118" viewBox="0 0 178 118" fill="none">
<g clip-path="url(#clip0_283_9159)">
<rect width="178" height="118" fill="white"/>
<g clip-path="url(#clip1_283_9159)">
<rect width="177.807" height="91.013" transform="translate(-0.193359 12.5615)" fill="white"/>
<path d="M370.981 530.013H-190.994V-219.402H370.981V530.013Z" stroke="#373535" stroke-width="0.0944285"/>
<mask id="mask0_283_9159" style="mask-type:luminance" maskUnits="userSpaceOnUse" x="-278" y="-364" width="733" height="1036">
<path d="M-277.427 -363.845H454.844V671.955H-277.427V-363.845Z" fill="white"/>
</mask>
<g mask="url(#mask0_283_9159)">
<path d="M135.707 62.4509H139.167C143.693 62.4509 145.018 58.4006 145.018 55.7874C145.018 52.5234 143.469 51.3706 141.052 51.3706H138.043L135.707 62.4509ZM133.769 46.87H141.304C146.448 46.87 150.246 49.1757 150.246 55.3654C150.246 61.6081 146.448 66.9502 138.494 66.9502H129.521L133.769 46.87Z" fill="#AA8F45"/>
<path d="M155.76 60.2015C155.76 62.3681 156.968 63.0694 159.441 63.0694C161.55 63.0694 162.424 62.1712 162.424 61.0738C162.424 59.0757 159.385 58.853 157.305 58.1198C154.803 57.2216 152.777 55.9002 152.777 52.9475C152.777 48.3916 156.91 46.4501 160.929 46.4501C165.208 46.4501 168.833 48.0261 168.691 52.9192H163.462C163.462 52.1588 163.21 51.6249 162.76 51.2865C162.281 50.9223 161.579 50.7538 160.65 50.7538C159.357 50.7538 158.006 51.2865 158.006 52.5538C158.006 53.7619 158.853 53.9022 161.662 54.6613C164.419 55.4216 167.652 56.855 167.652 60.7933C167.652 64.3649 164.474 67.373 158.599 67.373C153.815 67.373 150.469 64.9555 150.525 60.2015H155.76Z" fill="#AA8F45"/>
<path d="M13.6973 67.3057L17.7813 49.6431H26.5571L26.4993 59.2003L30.7248 49.6431H39.5104L35.4744 67.3057H30.0618L33.1556 53.5604L26.8892 67.3057H21.9576L22.0302 53.5346L18.9241 67.3057H13.6973Z" fill="#EE3338"/>
<path d="M51.4131 62.2827C52.3382 56.8864 52.054 53.8315 47.067 53.8315C42.7443 53.8315 39.2901 56.2676 38.4918 60.6943C37.6922 65.2207 39.4796 67.5128 44.1873 67.5669C46.7952 67.594 48.264 67.236 49.4953 66.9333L50.2125 63.4847C49.1927 64.2376 42.9559 65.2847 43.6473 62.2827H51.4131ZM44.3017 59.4369C44.517 58.2066 45.1763 56.8015 46.4065 56.8594C47.6329 56.9787 47.4558 58.1795 47.1261 59.4369H44.3017Z" fill="#EE3338"/>
<path d="M65.141 67.3058L69.4022 48.333H63.8912L62.1727 55.7506C61.2722 54.4145 60.6928 53.8497 58.994 53.8325C55.9691 53.803 53.3452 56.4925 52.5481 60.9696C51.8789 64.7763 52.3525 67.6958 56.4132 67.6257C58.1551 67.5937 59.3249 66.516 60.496 65.015L59.9769 67.3058H65.141ZM59.1453 63.3663C57.9558 63.2679 58.171 61.7558 58.454 60.4886C58.7455 59.1512 59.3163 57.6588 60.5243 57.7622C61.7286 57.8618 61.5785 59.3948 61.2722 60.731C60.9807 62.1372 60.4025 63.4746 59.1453 63.3663Z" fill="#EE3338"/>
<path d="M67.3491 67.3057L70.3568 54.0636H75.9662L73.025 67.3057H67.3491Z" fill="#EE3338"/>
<path d="M77.3261 48.367L76.3543 52.7334H70.6772L71.6626 48.367H77.3261Z" fill="#EE3338"/>
<path d="M77.9591 53.9805L73.3301 74.9219H78.8854L80.9532 65.6292C81.3616 66.6688 82.1846 67.5178 83.6977 67.599C85.998 67.7281 88.9159 66.269 90.3306 61.2074C91.3614 57.37 90.8005 54.3816 88.0437 53.8156C85.3608 53.3456 83.6657 54.7974 82.7517 56.4436L83.1564 53.9805H77.9591ZM82.5278 63.689C81.6815 63.5856 81.4883 62.3405 81.9152 60.6218C82.315 58.9707 83.1343 57.9052 83.9179 58.0036C84.7814 58.1119 85.116 59.106 84.6301 61.0622C84.2242 62.7613 83.3926 63.7973 82.5278 63.689Z" fill="#393880"/>
<path d="M90.583 67.293L94.8577 48.3619H100.388L96.11 67.293H90.583Z" fill="#393880"/>
<path d="M111.436 67.2925H106.184L106.662 65.068C105.165 66.9209 104.169 67.5742 102.194 67.5742C99.5705 67.5742 98.5372 66.0831 99.2802 62.8005L101.21 53.9803H106.816L105.205 61.2602C104.865 62.8682 104.731 63.4231 105.642 63.4748C106.796 63.5437 106.828 62.6997 107.266 61.2073L108.83 53.9803H114.413L111.436 67.2925Z" fill="#393880"/>
<path d="M126.362 54.4369C119.492 52.3355 114.65 55.2833 114.751 59.3114C114.716 62.7305 120.237 62.1215 120.271 63.1734C120.17 64.7655 115.73 64.4259 114.141 63.139L113.33 66.8299C121.758 69.64 126.431 64.3914 125.312 60.7005C124.54 58.4994 119.997 59.1773 120.069 57.9581C120.103 56.7056 123.417 56.8434 125.619 57.8879L126.362 54.4369Z" fill="#393880"/>
</g>
</g>
<rect width="178" height="118" fill="black" style="mix-blend-mode:hue"/>
</g>
<defs>
<clipPath id="clip0_283_9159">
<rect width="178" height="118" fill="white"/>
</clipPath>
<clipPath id="clip1_283_9159">
<rect width="177.807" height="91.013" fill="white" transform="translate(-0.193359 12.5615)"/>
</clipPath>
</defs>
</svg>