<svg xmlns:xlink="http://www.w3.org/1999/xlink" xmlns="http://www.w3.org/2000/svg" width="178" height="118" viewBox="0 0 178 118" fill="none">
<g clip-path="url(#clip0_283_9508)">
<rect width="178" height="118" fill="white"/>
<g clip-path="url(#clip1_283_9508)">
<rect width="177.807" height="91.013" transform="translate(0 12.5615)" fill="white"/>
<path d="M371.175 599.025H-190.8V-150.389H371.175V599.025Z" stroke="#373535" stroke-width="0.0944285"/>
<mask id="mask0_283_9508" style="mask-type:luminance" maskUnits="userSpaceOnUse" x="-278" y="-295" width="734" height="1036">
<path d="M-277.232 -294.833H455.039V740.968H-277.232V-294.833Z" fill="white"/>
</mask>
<g mask="url(#mask0_283_9508)">
<path d="M26.2939 69.002L31.0127 48.5982H41.1552L41.0888 59.6404L45.9687 48.5982H56.1211L51.4613 69.002H45.2036L48.7771 53.1233L41.5366 69.002H35.841L35.9222 53.0926L32.3327 69.002H26.2939Z" fill="#DC363A"/>
<path d="M69.8749 63.2067C70.9476 56.969 70.6167 53.4379 64.8522 53.4379C59.8579 53.4379 55.8636 56.2529 54.9423 61.3662C54.0221 66.5963 56.0875 69.2452 61.5235 69.3092C64.5386 69.3375 66.2374 68.9229 67.6594 68.5796L68.4885 64.5933C67.31 65.4619 60.1027 66.6738 60.901 63.2067H69.8749ZM61.6576 59.9181C61.9048 58.4934 62.67 56.8669 64.0896 56.937C65.5054 57.0773 65.3 58.4638 64.9211 59.9181H61.6576Z" fill="#DC363A"/>
<path d="M85.7401 69.0017L90.6606 47.0809H84.2959L82.3068 55.6526C81.2698 54.1098 80.6006 53.4589 78.641 53.4368C75.1363 53.4048 72.1114 56.5114 71.1888 61.6837C70.4163 66.0846 70.9625 69.4581 75.6591 69.3745C77.6643 69.3363 79.0162 68.0961 80.3742 66.3602L79.7727 69.0017H85.7401ZM78.812 64.4556C77.4391 64.3375 77.6864 62.5929 78.0161 61.1288C78.3507 59.5798 79.01 57.8586 80.4038 57.9767C81.7951 58.0936 81.6253 59.8628 81.2698 61.4056C80.929 63.0309 80.266 64.5737 78.812 64.4556Z" fill="#DC363A"/>
<path d="M88.292 69.002L91.7684 53.7053H98.2475L94.8511 69.002H88.292Z" fill="#DC363A"/>
<path d="M99.8216 47.1212L98.6997 52.168H92.1382L93.281 47.1212H99.8216Z" fill="#DC363A"/>
<path d="M100.551 53.6078L95.2046 77.8047H101.621L104.011 67.0701C104.485 68.2733 105.437 69.249 107.189 69.3474C109.842 69.4951 113.219 67.8095 114.85 61.9593C116.043 57.5301 115.39 54.0704 112.208 53.4184C109.11 52.877 107.149 54.5576 106.089 56.4548L106.559 53.6078H100.551ZM105.837 64.8284C104.857 64.7054 104.632 63.2721 105.129 61.2826C105.588 59.3731 106.537 58.1465 107.44 58.2572C108.441 58.384 108.827 59.5306 108.262 61.792C107.794 63.7531 106.834 64.9539 105.837 64.8284Z" fill="#3F4096"/>
<path d="M115.137 68.9902L120.084 47.1175H126.47L121.528 68.9902H115.137Z" fill="#3F4096"/>
<path d="M139.234 68.9896H133.166L133.724 66.4232C131.997 68.5627 130.845 69.3145 128.557 69.3145C125.527 69.3145 124.332 67.5932 125.193 63.8014L127.42 53.6081H133.893L132.036 62.0223C131.646 63.8801 131.487 64.5186 132.548 64.5814C133.876 64.6614 133.915 63.6832 134.421 61.9608L136.223 53.6081H142.681L139.234 68.9896Z" fill="#3F4096"/>
<path d="M156.487 54.1402C148.544 51.7103 142.951 55.1134 143.067 59.7702C143.032 63.722 149.407 63.0182 149.448 64.2313C149.332 66.0731 144.203 65.6794 142.363 64.1907L141.429 68.4551C151.168 71.7068 156.564 65.6401 155.274 61.3745C154.378 58.8302 149.132 59.6127 149.212 58.2064C149.252 56.7583 153.086 56.9146 155.626 58.1265L156.487 54.1402Z" fill="#3F4096"/>
</g>
</g>
<rect width="178" height="118" fill="black" style="mix-blend-mode:hue"/>
</g>
<defs>
<clipPath id="clip0_283_9508">
<rect width="178" height="118" fill="white"/>
</clipPath>
<clipPath id="clip1_283_9508">
<rect width="177.807" height="91.013" fill="white" transform="translate(0 12.5615)"/>
</clipPath>
</defs>
</svg>