<svg xmlns:xlink="http://www.w3.org/1999/xlink" xmlns="http://www.w3.org/2000/svg" width="178" height="118" viewBox="0 0 178 118" fill="none">
<g clip-path="url(#clip0_283_8810)">
<rect width="178" height="118" fill="white"/>
<g clip-path="url(#clip1_283_8810)">
<rect width="177.807" height="91.013" transform="translate(-0.386719 12.5615)" fill="white"/>
<path d="M370.788 463.711H-191.188V-285.704H370.788V463.711Z" stroke="#373535" stroke-width="0.0944285"/>
<mask id="mask0_283_8810" style="mask-type:luminance" maskUnits="userSpaceOnUse" x="-278" y="-431" width="733" height="1037">
<path d="M-277.62 -430.148H454.65V605.652H-277.62V-430.148Z" fill="white"/>
</mask>
<g mask="url(#mask0_283_8810)">
</g>
<path d="M78.6626 56.7378L79.039 54.4285H74.2058L69.9077 74.0547H75.0681L76.9908 65.3464C77.3722 66.3208 78.1385 67.1156 79.5458 67.1919C81.6826 67.3125 84.395 65.9468 85.7113 61.2015C86.672 57.6077 86.1467 54.8062 83.5856 54.2772C83.2608 54.2194 82.9508 54.1923 82.6568 54.1923C80.6935 54.1923 79.4056 55.3968 78.6626 56.7378ZM78.4571 63.528C77.6699 63.4296 77.489 62.2669 77.8888 60.6515C78.2566 59.1038 79.0181 58.1084 79.7488 58.2007C80.5521 58.3016 80.8621 59.2317 80.4081 61.0661C80.0514 62.5807 79.3342 63.5354 78.5728 63.5354C78.5346 63.5354 78.4953 63.5329 78.4571 63.528Z" fill="url(#paint0_linear_283_8810)"/>
<path d="M60.9558 49.2272L59.3616 56.1712C58.5288 54.9187 57.99 54.3921 56.4166 54.3749C53.6082 54.3478 51.1799 56.8651 50.4394 61.0568C49.8194 64.6223 50.2573 67.3549 54.024 67.2909C55.6355 67.2614 56.7217 66.25 57.8054 64.8474L57.3257 66.9931H62.1122L66.0646 49.2272H60.9558ZM56.5544 63.3022C55.4522 63.2099 55.6515 61.7962 55.9159 60.6077C56.1841 59.354 56.7131 57.9576 57.8338 58.0524C58.9495 58.1471 58.8117 59.5804 58.5288 60.8329C58.2655 62.0989 57.7612 63.3071 56.6823 63.3071C56.6405 63.3071 56.5987 63.3059 56.5544 63.3022Z" fill="url(#paint1_linear_283_8810)"/>
<path d="M66.9474 54.5927L64.1587 66.9932H69.42L72.1472 54.5927H66.9474Z" fill="url(#paint2_linear_283_8810)"/>
<path d="M68.1599 49.2586L67.2422 53.3457H72.5084L73.4101 49.2586H68.1599Z" fill="url(#paint3_linear_283_8810)"/>
<path d="M30.2068 50.4526L26.2888 59.4008L26.3441 50.4526H18.2031L14.418 66.9932H19.2635L22.1445 54.0932L22.0793 66.9932H26.6492L32.4604 54.1215L29.5917 66.9932H34.6106L38.3503 50.4526H30.2068Z" fill="url(#paint4_linear_283_8810)"/>
<path d="M37.4044 60.8017C36.6651 65.0389 38.3208 67.1821 42.6829 67.2338C45.1014 67.2609 46.4644 66.925 47.6059 66.6433L48.2702 63.4149C47.3267 64.1174 41.5438 65.0992 42.1822 62.2892H49.3834C50.2433 57.235 49.9788 54.3744 45.3548 54.3744C41.3482 54.3744 38.1437 56.6567 37.4044 60.8017ZM44.7434 57.2103C45.8788 57.3223 45.714 58.4456 45.4089 59.6242H42.7887C42.9892 58.4727 43.6018 57.155 44.7434 57.2103Z" fill="url(#paint5_linear_283_8810)"/>
<path d="M78.6626 56.7378L79.039 54.4285H74.2058L69.9077 74.0547H75.0681L76.9908 65.3464C77.3722 66.3208 78.1385 67.1156 79.5458 67.1919C81.6826 67.3125 84.395 65.9468 85.7113 61.2015C86.672 57.6077 86.1467 54.8062 83.5856 54.2772C83.2608 54.2194 82.9508 54.1923 82.6568 54.1923C80.6935 54.1923 79.4056 55.3968 78.6626 56.7378ZM78.4571 63.528C77.6699 63.4296 77.489 62.2669 77.8888 60.6515C78.2566 59.1038 79.0181 58.1084 79.7488 58.2007C80.5521 58.3016 80.8621 59.2317 80.4081 61.0661C80.0514 62.5807 79.3342 63.5354 78.5728 63.5354C78.5346 63.5354 78.4953 63.5329 78.4571 63.528Z" fill="url(#paint6_linear_283_8810)"/>
<path d="M89.9184 49.1694L85.9414 66.9033H91.0858L95.0604 49.1694H89.9184Z" fill="url(#paint7_linear_283_8810)"/>
<path d="M102.911 54.4286L101.459 61.2028C101.054 62.6005 101.022 63.394 99.9501 63.3288C99.1013 63.2796 99.228 62.7592 99.5442 61.252L101.039 54.4286H95.8255L94.0319 62.694C93.3406 65.771 94.3026 67.1699 96.7407 67.1699C98.5797 67.1699 99.5073 66.5572 100.899 64.8212L100.453 66.9042H105.336L108.103 54.4286H102.911Z" fill="url(#paint8_linear_283_8810)"/>
<path d="M108.416 59.4251C108.386 62.6301 113.515 62.0579 113.546 63.0447C113.454 64.5346 109.325 64.2172 107.848 63.0102L107.095 66.4699C114.931 69.1053 119.275 64.1864 118.237 60.7267C117.513 58.6659 113.294 59.2983 113.359 58.1566C113.387 56.9828 116.476 57.1096 118.522 58.0914L119.212 54.8568C117.752 54.4065 116.39 54.2035 115.16 54.2035C111.006 54.2035 108.343 56.5129 108.416 59.4251Z" fill="url(#paint9_linear_283_8810)"/>
<mask id="mask1_283_8810" style="mask-type:luminance" maskUnits="userSpaceOnUse" x="-278" y="-431" width="733" height="1037">
<path d="M-277.62 -430.148H454.65V605.652H-277.62V-430.148Z" fill="white"/>
</mask>
<g mask="url(#mask1_283_8810)">
<path d="M152.985 62.1523C153 61.622 152.614 61.3218 152.154 61.3218C151.101 61.3218 150.66 62.5251 150.66 63.5364C150.66 64.3361 151.002 64.7877 151.673 64.7877C152.288 64.7877 152.621 64.5502 152.818 63.8772H151.902L152.105 62.7859H154.18L153.599 65.8802H152.769L152.797 65.3093H152.782C152.482 65.7768 152.14 65.9971 151.337 65.9971C150.388 65.9971 149.361 65.436 149.361 63.5364C149.361 63.1095 149.551 60.11 152.175 60.11C153.432 60.11 154.249 60.7522 154.214 62.1523H152.985Z" fill="#D2A74B"/>
<path d="M155.367 60.2302H159.346L159.109 61.4962H156.427L156.267 62.3981H158.739L158.529 63.5373H156.058L155.863 64.6139H158.566L158.328 65.8799H154.333L155.367 60.2302Z" fill="#D2A74B"/>
<path d="M160.016 60.2302H161.315L160.506 64.6139H162.838L162.602 65.8799H158.977L160.016 60.2302Z" fill="#D2A74B"/>
<path d="M158.232 70.6599L158.335 70.6513L158.336 70.6587L158.128 70.6698L158.232 70.6599ZM168.33 57.4524C167.936 56.0658 166.812 55.1283 165.263 54.8231C164.829 54.737 164.435 54.6952 164.07 54.6952C162.698 54.6915 161.788 55.2833 160.965 55.8185C160.253 56.2823 159.518 56.7412 158.661 56.7388C158.602 56.7388 158.542 56.7351 158.481 56.7314L158.136 56.6945L157.839 56.6034C157.425 56.473 156.959 56.2294 156.427 55.8185C155.385 55.0015 154.26 54.673 153.198 54.6743C151.277 54.6817 149.597 55.7053 148.669 56.7277C147.36 58.145 146.998 58.8094 146.912 60.0041L147.744 60.0766C147.852 59.0223 147.982 58.7504 149.285 57.2875C150.064 56.4201 151.591 55.5011 153.198 55.5084C154.09 55.5109 155.011 55.773 155.917 56.4767C156.507 56.9356 157.062 57.2334 157.591 57.4007L157.927 57.5053L157.964 57.5151L158.409 57.5619C158.502 57.5692 158.582 57.5717 158.661 57.5717C159.824 57.5692 160.712 56.975 161.42 56.5173C162.258 55.976 162.946 55.5343 164.07 55.5294C164.373 55.5294 164.712 55.5626 165.095 55.6425C166.427 55.9243 167.206 56.6059 167.529 57.6849C167.623 58.0048 167.669 58.353 167.669 58.7159C167.673 60.0053 167.071 61.4731 166.042 62.5004C165.54 63.0024 165.123 63.4748 164.766 63.9202L164.124 64.7986C163.213 66.1643 162.884 67.2962 162.605 68.2731C162.43 68.8821 162.286 69.3755 162.023 69.9131C162.016 69.9279 162.011 69.9377 162.001 69.9574C161.57 70.9195 160.822 71.9419 160.072 72.7023C159.341 73.4725 158.522 73.9461 158.283 73.9129C158.244 73.9129 158.232 73.9055 158.229 73.9055C158.18 73.8809 158.148 73.8637 158.133 73.8551V73.8563C158.128 73.8428 158.116 73.8009 158.112 73.7161C158.109 73.6878 158.109 73.657 158.109 73.6201C158.109 73.4072 158.144 73.0517 158.229 72.514C158.299 72.0699 158.372 71.6245 158.372 71.1594C158.372 71.0844 158.369 71.0069 158.365 70.9294C158.36 70.8592 158.352 70.8051 158.35 70.7731L158.346 70.6993C158.344 70.6673 158.338 70.6415 158.333 70.6218C158.251 69.5243 157.561 68.6373 156.505 68.3026L156.468 68.2903L155.652 68.1771H155.623C154.235 68.1931 153.229 69.3115 153.042 70.9072L153.026 71.0352C152.883 72.1412 152.674 72.9003 152.424 73.3248C152.162 73.7456 151.965 73.8477 151.58 73.8637C151.521 73.8637 151.461 73.86 151.396 73.8526C150.926 73.7973 150.562 73.4245 150.252 72.4771C149.954 71.5482 149.789 70.1616 149.691 68.438C149.679 68.2042 149.666 67.9643 149.655 67.717C149.654 67.669 149.649 67.6198 149.647 67.5743C149.638 67.3737 149.618 67.1916 149.597 67.0182V66.6097H119.513V67.4438H148.799C148.804 67.5041 148.813 67.5607 148.815 67.621C148.817 67.6678 148.821 67.7108 148.822 67.7514C148.832 68.0036 148.846 68.2485 148.859 68.4872C148.961 70.2367 149.12 71.6663 149.455 72.7293C149.776 73.7727 150.351 74.565 151.296 74.6819C151.395 74.6917 151.488 74.6979 151.58 74.6979C152.227 74.7126 152.812 74.3521 153.146 73.7431C153.494 73.1378 153.699 72.2987 153.852 71.141L153.868 71.0143C154.068 69.6769 154.709 69.0531 155.61 69.015L156.276 69.106C157.029 69.3767 157.432 69.9045 157.503 70.7128V70.719C157.503 70.7202 157.503 70.7214 157.505 70.7227C157.505 70.7239 157.506 70.7251 157.506 70.7276V70.7337C157.508 70.7571 157.513 70.7743 157.515 70.7866C157.516 70.7903 157.516 70.7928 157.516 70.7953V70.7977V70.8002V70.8223L157.517 70.8432C157.524 70.9121 157.532 70.9552 157.532 70.9737C157.537 71.0364 157.538 71.0967 157.538 71.1594C157.538 71.5347 157.475 71.9419 157.405 72.3848C157.316 72.9422 157.275 73.326 157.275 73.6201C157.275 73.6681 157.277 73.7173 157.281 73.769C157.292 73.9916 157.342 74.2033 157.478 74.3743C157.613 74.5428 157.768 74.6056 157.859 74.6536C157.997 74.7225 158.144 74.7471 158.283 74.7471C159.062 74.7139 159.835 74.1061 160.667 73.2867C161.482 72.4587 162.274 71.3834 162.76 70.3056C162.761 70.3044 162.767 70.2921 162.777 70.2687C163.074 69.6658 163.232 69.1097 163.404 68.5044C163.689 67.5263 163.978 66.5297 164.808 65.2748L165.428 64.4283C165.754 64.0198 166.151 63.572 166.631 63.0897C167.818 61.8963 168.5 60.255 168.502 58.7159C168.502 58.2816 168.448 57.8559 168.33 57.4524Z" fill="#D2A74B"/>
<path d="M121.273 61.2229H123.863L123.769 61.7224H121.704L121.444 63.1398H123.261L123.169 63.6393H121.351L120.976 65.6816H120.452L121.273 61.2229Z" fill="#00B0F0"/>
<path d="M124.333 61.2229H124.857L124.129 65.1821H126.206L126.112 65.6816H123.505L124.333 61.2229Z" fill="#00B0F0"/>
<path d="M129.936 63.8958C129.869 64.2391 129.805 64.5762 129.739 64.7509C129.473 65.4879 128.873 65.7881 128.206 65.7881C127.054 65.7881 126.553 65.088 126.779 63.8454L127.27 61.2236H127.793L127.275 63.9955C127.099 64.8567 127.446 65.2873 128.206 65.2873C129.066 65.2873 129.253 64.7325 129.407 63.8958L129.904 61.2236H130.425L129.936 63.8958Z" fill="#00B0F0"/>
<path d="M132.185 65.2876C133.226 65.2876 133.778 64.152 133.778 63.089C133.778 62.2659 133.387 61.6163 132.66 61.6163C131.561 61.6163 131.023 62.758 131.023 63.8321C131.023 64.6946 131.397 65.2876 132.185 65.2876ZM132.66 61.1168C133.678 61.1168 134.302 61.9842 134.302 63.089C134.302 64.4891 133.495 65.7871 132.185 65.7871C131.111 65.7871 130.499 65.0637 130.499 63.8321C130.499 62.3914 131.314 61.1168 132.66 61.1168Z" fill="#00B0F0"/>
<path d="M135.37 63.3957H136.548C137.378 63.3957 137.519 62.8334 137.519 62.5148C137.519 61.9599 137.139 61.8406 136.748 61.8406H135.662L135.37 63.3957ZM135.232 61.2229H136.748C137.413 61.2229 138.043 61.4801 138.043 62.3585C138.043 62.9528 137.679 63.4707 137.155 63.5593V63.5716C137.497 63.6897 137.597 64.0884 137.557 64.5387C137.536 64.9447 137.403 65.3261 137.563 65.6816H137.017C136.968 65.5192 136.952 65.1834 137.028 64.7269C137.193 63.6639 136.664 63.7771 136.439 63.7771H135.277L134.923 65.6816H134.399L135.232 61.2229Z" fill="#00B0F0"/>
<path d="M138.89 61.2229H139.414L138.588 65.6816H138.063L138.89 61.2229Z" fill="#00B0F0"/>
<path d="M139.985 65.1821H140.896C142.009 65.1821 142.554 64.0699 142.554 62.9897C142.554 62.3339 142.34 61.7212 141.469 61.7212H140.63L139.985 65.1821ZM140.213 61.2229H141.591C142.572 61.2229 143.078 61.8725 143.078 62.9269C143.078 64.6076 142.19 65.6816 140.89 65.6816H139.379L140.213 61.2229Z" fill="#00B0F0"/>
<path d="M143.981 61.2229H146.693L146.605 61.7224H144.416L144.153 63.1398H146.193L146.104 63.6393H144.058L143.772 65.1821H145.988L145.889 65.6816H143.148L143.981 61.2229Z" fill="#00B0F0"/>
</g>
</g>
<rect width="178" height="118" fill="black" style="mix-blend-mode:hue"/>
</g>
<defs>
<linearGradient id="paint0_linear_283_8810" x1="78.033" y1="48.5926" x2="78.033" y2="74.8442" gradientUnits="userSpaceOnUse">
<stop stop-color="#393880"/>
<stop offset="0.0299988" stop-color="#393880"/>
<stop offset="0.454268" stop-color="#00B0F0"/>
<stop offset="0.5" stop-color="#00B0F0"/>
<stop offset="0.6102" stop-color="#00B0F0"/>
<stop offset="0.970001" stop-color="#393880"/>
<stop offset="1" stop-color="#393880"/>
</linearGradient>
<linearGradient id="paint1_linear_283_8810" x1="61.1167" y1="50.3959" x2="61.1167" y2="68.4845" gradientUnits="userSpaceOnUse">
<stop stop-color="#393880"/>
<stop offset="0.0299988" stop-color="#393880"/>
<stop offset="0.397733" stop-color="#00B0F0"/>
<stop offset="0.5" stop-color="#00B0F0"/>
<stop offset="0.623138" stop-color="#00B0F0"/>
<stop offset="0.92308" stop-color="#393880"/>
<stop offset="1" stop-color="#393880"/>
</linearGradient>
<linearGradient id="paint2_linear_283_8810" x1="69.5836" y1="50.3989" x2="69.5836" y2="68.051" gradientUnits="userSpaceOnUse">
<stop stop-color="#393880"/>
<stop offset="0.0299988" stop-color="#393880"/>
<stop offset="0.397733" stop-color="#00B0F0"/>
<stop offset="0.5" stop-color="#00B0F0"/>
<stop offset="0.626336" stop-color="#00B0F0"/>
<stop offset="0.934067" stop-color="#393880"/>
<stop offset="1" stop-color="#393880"/>
</linearGradient>
<linearGradient id="paint3_linear_283_8810" x1="69.5844" y1="50.3995" x2="69.5844" y2="68.0515" gradientUnits="userSpaceOnUse">
<stop stop-color="#393880"/>
<stop offset="0.0299988" stop-color="#393880"/>
<stop offset="0.397733" stop-color="#00B0F0"/>
<stop offset="0.5" stop-color="#00B0F0"/>
<stop offset="0.636795" stop-color="#00B0F0"/>
<stop offset="0.970001" stop-color="#393880"/>
<stop offset="1" stop-color="#393880"/>
</linearGradient>
<linearGradient id="paint4_linear_283_8810" x1="26.4969" y1="51.5163" x2="26.4969" y2="67.9796" gradientUnits="userSpaceOnUse">
<stop stop-color="#393880"/>
<stop offset="0.0299988" stop-color="#393880"/>
<stop offset="0.397733" stop-color="#00B0F0"/>
<stop offset="0.5" stop-color="#00B0F0"/>
<stop offset="0.629533" stop-color="#00B0F0"/>
<stop offset="0.945053" stop-color="#393880"/>
<stop offset="1" stop-color="#393880"/>
</linearGradient>
<linearGradient id="paint5_linear_283_8810" x1="43.5021" y1="50.3882" x2="43.5021" y2="68.3691" gradientUnits="userSpaceOnUse">
<stop stop-color="#393880"/>
<stop offset="0.208786" stop-color="#393880"/>
<stop offset="0.233267" stop-color="#393880"/>
<stop offset="0.5" stop-color="#00B0F0"/>
<stop offset="0.618338" stop-color="#00B0F0"/>
<stop offset="0.906586" stop-color="#393880"/>
<stop offset="1" stop-color="#393880"/>
</linearGradient>
<linearGradient id="paint6_linear_283_8810" x1="75.0514" y1="70.8238" x2="77.5483" y2="52.427" gradientUnits="userSpaceOnUse">
<stop stop-color="#393880"/>
<stop offset="0.389937" stop-color="#00B0F0"/>
<stop offset="0.5" stop-color="#00B0F0"/>
<stop offset="0.94648" stop-color="#393880"/>
<stop offset="0.970001" stop-color="#393880"/>
<stop offset="1" stop-color="#393880"/>
</linearGradient>
<linearGradient id="paint7_linear_283_8810" x1="90.8582" y1="50.3106" x2="90.8582" y2="67.962" gradientUnits="userSpaceOnUse">
<stop stop-color="#393880"/>
<stop offset="0.0299988" stop-color="#393880"/>
<stop offset="0.397733" stop-color="#00B0F0"/>
<stop offset="0.5" stop-color="#00B0F0"/>
<stop offset="0.636795" stop-color="#00B0F0"/>
<stop offset="0.970001" stop-color="#393880"/>
<stop offset="1" stop-color="#393880"/>
</linearGradient>
<linearGradient id="paint8_linear_283_8810" x1="101.856" y1="54.8639" x2="101.856" y2="68.4294" gradientUnits="userSpaceOnUse">
<stop stop-color="#393880"/>
<stop offset="0.0329742" stop-color="#393880"/>
<stop offset="0.446681" stop-color="#00B0F0"/>
<stop offset="0.5" stop-color="#00B0F0"/>
<stop offset="0.826883" stop-color="#393880"/>
<stop offset="0.93956" stop-color="#393880"/>
<stop offset="1" stop-color="#393880"/>
</linearGradient>
<linearGradient id="paint9_linear_283_8810" x1="113.533" y1="54.8627" x2="113.533" y2="68.4282" gradientUnits="userSpaceOnUse">
<stop stop-color="#393880"/>
<stop offset="0.0329742" stop-color="#393880"/>
<stop offset="0.446681" stop-color="#00B0F0"/>
<stop offset="0.5" stop-color="#00B0F0"/>
<stop offset="0.904006" stop-color="#393880"/>
<stop offset="0.912094" stop-color="#393880"/>
<stop offset="1" stop-color="#393880"/>
</linearGradient>
<clipPath id="clip0_283_8810">
<rect width="178" height="118" fill="white"/>
</clipPath>
<clipPath id="clip1_283_8810">
<rect width="177.807" height="91.013" fill="white" transform="translate(-0.386719 12.5615)"/>
</clipPath>
</defs>
</svg>