<svg xmlns:xlink="http://www.w3.org/1999/xlink" xmlns="http://www.w3.org/2000/svg" width="56" height="48" viewBox="0 0 56 48" fill="none">
<path fill-rule="evenodd" clip-rule="evenodd" d="M3.28204 7.41575C7.29789 4.98034 16.1402 0.623047 28.0599 0.623047C39.9796 0.623047 48.8219 4.98034 52.8377 7.41575C55.1457 8.81535 56.0937 11.46 55.6904 13.9091L54.6331 20.3297C54.0142 24.0863 50.4768 26.6038 46.7738 25.9226L41.0781 24.8745C38.6601 24.4296 37.0433 22.1029 37.4473 19.65L37.9782 16.4268C36.6213 15.623 33.538 14.2728 28.0599 14.2728C22.5819 14.2728 19.4985 15.623 18.1418 16.4268L18.6726 19.65C19.0766 22.1029 17.4596 24.4296 15.0418 24.8745L9.34595 25.9226C5.64305 26.6038 2.10558 24.0863 1.48685 20.3297L0.429374 13.9091C0.0260003 11.46 0.974202 8.81535 3.28204 7.41575ZM28.0599 5.17298C17.2203 5.17298 9.18115 9.14269 5.59338 11.3185C5.069 11.6365 4.725 12.3144 4.86446 13.1611L5.92194 19.5817C6.12818 20.8339 7.30734 21.673 8.54163 21.4459L14.2375 20.398L13.6678 16.9391C13.435 15.5256 13.8723 13.7897 15.396 12.7951C17.2977 11.5537 21.2717 9.72291 28.0599 9.72291C34.848 9.72291 38.822 11.5537 40.7239 12.7951C42.2476 13.7897 42.6847 15.5256 42.4521 16.9391L41.8824 20.398L47.5781 21.4459C48.8124 21.673 49.9917 20.8339 50.198 19.5817L51.2553 13.1611C51.3948 12.3144 51.0508 11.6365 50.5265 11.3185C46.9387 9.14269 38.8994 5.17298 28.0599 5.17298Z" fill="#001F4E"/>
<path d="M9.57916 45.665C9.57916 44.3894 10.6134 43.355 11.8892 43.355H44.2302C45.506 43.355 46.5402 44.3894 46.5402 45.665C46.5402 46.9409 45.506 47.9751 44.2302 47.9751H11.8892C10.6134 47.9751 9.57916 46.9409 9.57916 45.665Z" fill="#001F4E"/>
<path d="M4.95905 36.4248C3.68325 36.4248 2.64899 37.4593 2.64899 38.7349C2.64899 40.0107 3.68325 41.0449 4.95905 41.0449H9.57919C10.855 41.0449 11.8893 40.0107 11.8893 38.7349C11.8893 37.4593 10.855 36.4248 9.57919 36.4248H4.95905Z" fill="#001F4E"/>
<path d="M44.2302 38.7349C44.2302 37.4593 45.2644 36.4248 46.5403 36.4248H51.1604C52.4363 36.4248 53.4705 37.4593 53.4705 38.7349C53.4705 40.0107 52.4363 41.0449 51.1604 41.0449H46.5403C45.2644 41.0449 44.2302 40.0107 44.2302 38.7349Z" fill="#001F4E"/>
<path d="M39.6101 29.4937C38.3342 29.4937 37.3 30.5281 37.3 31.8037C37.3 33.0796 38.3342 34.1138 39.6101 34.1138H44.2302C45.506 34.1138 46.5403 33.0796 46.5403 31.8037C46.5403 30.5281 45.506 29.4937 44.2302 29.4937H39.6101Z" fill="#001F4E"/>
<path d="M16.5094 38.7349C16.5094 37.4593 17.5436 36.4248 18.8195 36.4248H23.4396C24.7154 36.4248 25.7497 37.4593 25.7497 38.7349C25.7497 40.0107 24.7154 41.0449 23.4396 41.0449H18.8195C17.5436 41.0449 16.5094 40.0107 16.5094 38.7349Z" fill="#001F4E"/>
<path d="M11.8892 29.4937C10.6134 29.4937 9.57916 30.5281 9.57916 31.8037C9.57916 33.0796 10.6134 34.1138 11.8892 34.1138H16.5094C17.7852 34.1138 18.8194 33.0796 18.8194 31.8037C18.8194 30.5281 17.7852 29.4937 16.5094 29.4937H11.8892Z" fill="#001F4E"/>
<path d="M30.3698 38.7349C30.3698 37.4593 31.404 36.4248 32.6799 36.4248H37.3C38.5759 36.4248 39.6101 37.4593 39.6101 38.7349C39.6101 40.0107 38.5759 41.0449 37.3 41.0449H32.6799C31.404 41.0449 30.3698 40.0107 30.3698 38.7349Z" fill="#001F4E"/>
<path d="M25.7496 29.4937C24.4738 29.4937 23.4396 30.5281 23.4396 31.8037C23.4396 33.0796 24.4738 34.1138 25.7496 34.1138H30.3698C31.6456 34.1138 32.6798 33.0796 32.6798 31.8037C32.6798 30.5281 31.6456 29.4937 30.3698 29.4937H25.7496Z" fill="#001F4E"/>
</svg>