<svg xmlns:xlink="http://www.w3.org/1999/xlink" xmlns="http://www.w3.org/2000/svg" width="178" height="118" viewBox="0 0 178 118" fill="none">
<g clip-path="url(#clip0_283_7413)">
<rect width="178" height="118" fill="white"/>
<g clip-path="url(#clip1_283_7413)">
<rect width="177.807" height="91.013" transform="translate(0 13)" fill="white"/>
<path d="M455.535 161.101H-274.392V-812.284H455.535V161.101Z" stroke="#373535" stroke-width="0.0944285"/>
<mask id="mask0_283_7413" style="mask-type:luminance" maskUnits="userSpaceOnUse" x="-387" y="-1000" width="952" height="1346">
<path d="M-386.654 -999.896H564.462V345.463H-386.654V-999.896Z" fill="white"/>
</mask>
<g mask="url(#mask0_283_7413)">
<path d="M124.614 80.2548C118.451 77.4934 108.042 76.2485 96.4337 77.3144C84.8306 78.3851 74.8238 81.5092 69.2651 85.3477C75.5668 82.0557 85.3723 79.4222 96.5343 78.3947C107.696 77.3639 117.821 78.1677 124.614 80.2548Z" fill="#A53792"/>
<path d="M73.6462 46.2697C73.6222 47.6839 73.2532 49.0183 72.5406 50.2679C71.8168 51.5192 70.8964 52.6106 69.7668 53.5439C68.6372 54.4803 67.3909 55.2234 66.02 55.7763C64.646 56.3308 63.2942 56.6105 61.9665 56.6185L61.5511 56.6312L61.5607 56.1646C62.7031 55.8866 63.7863 55.4327 64.8041 54.8063C65.8235 54.1751 66.7135 53.4176 67.4772 52.5291C68.2425 51.6406 68.8561 50.653 69.3099 49.568C69.7668 48.4829 70.0065 47.3499 70.0257 46.177C70.0336 45.3987 69.9522 44.6684 69.7732 43.9813C69.5911 43.2989 69.3067 42.7077 68.92 42.2203C68.5301 41.7329 68.03 41.3525 67.4213 41.0777C66.8141 40.8012 66.0871 40.6782 65.2387 40.7038C64.0324 40.7453 62.8037 40.9674 61.5511 41.3685C60.3032 41.7728 59.0969 42.3178 57.9289 43.0129C56.7609 43.7064 55.6665 44.5198 54.6423 45.4483C53.6197 46.3815 52.7218 47.3947 51.9532 48.4909C51.1863 49.5856 50.5776 50.7457 50.1254 51.9682C49.6764 53.1923 49.4431 54.434 49.424 55.6964C49.4032 57.0451 49.5821 58.2021 49.9528 59.1641C50.3251 60.1325 50.8396 60.9683 51.4963 61.6842C52.1466 62.3953 52.9087 62.9978 53.7827 63.4868C54.6535 63.9789 55.5866 64.4184 56.5868 64.8099C57.5822 65.2014 58.5968 65.5626 59.6353 65.8918C60.6739 66.221 61.6933 66.5773 62.6903 66.9593C63.6841 67.3444 64.6172 67.7743 65.4912 68.2537C66.362 68.7411 67.1273 69.3211 67.7808 69.9987C68.4359 70.6747 68.9504 71.4913 69.3242 72.4389C69.6965 73.3849 69.8771 74.5083 69.8531 75.8011C69.8339 77.2186 69.524 78.489 68.9296 79.6124C68.3336 80.739 67.5539 81.693 66.5936 82.4761C65.6302 83.2591 64.5341 83.8631 63.3054 84.2898C62.0735 84.7213 60.8065 84.9514 59.5123 84.9929C58.1159 85.0409 56.8233 84.8443 55.6377 84.4065C54.4522 83.9702 53.3928 83.3646 52.4533 82.5911C51.5186 81.8193 50.7038 80.9212 50.0103 79.8969C49.3185 78.8725 48.7673 77.805 48.3503 76.696L48.7433 76.4755C49.2482 77.3768 49.8298 78.2605 50.4897 79.1314C51.1464 79.9943 51.8973 80.7694 52.7298 81.4405C53.5702 82.1133 54.4969 82.6502 55.5163 83.0482C56.5372 83.4477 57.6525 83.6298 58.8604 83.5899C59.8462 83.5579 60.7634 83.3901 61.6166 83.0897C62.4634 82.7845 63.2032 82.3642 63.8327 81.8241C64.4606 81.2871 64.9575 80.6303 65.3266 79.8601C65.6925 79.0835 65.881 78.2189 65.8986 77.2505C65.9226 75.8331 65.6366 74.6777 65.0422 73.778C64.4526 72.8815 63.6729 72.1289 62.6967 71.5216C61.7204 70.9144 60.6068 70.4062 59.3541 69.9955C58.1015 69.5912 56.8169 69.1741 55.5035 68.757C54.1885 68.3431 52.9039 67.8637 51.6529 67.3252C50.4002 66.7867 49.2929 66.0915 48.3183 65.2414C47.35 64.3928 46.5735 63.3238 45.9855 62.0405C45.4024 60.7525 45.1228 59.1593 45.1531 57.2577C45.1771 55.5302 45.4727 53.8938 46.0335 52.3469C46.5895 50.7985 47.35 49.3698 48.3103 48.061C49.2722 46.7523 50.3986 45.5713 51.6928 44.5214C52.9854 43.4683 54.3755 42.5686 55.863 41.808C57.3473 41.0537 58.9004 40.4624 60.5125 40.0406C62.1231 39.6171 63.74 39.379 65.3634 39.3295C66.5201 39.2895 67.6114 39.3966 68.6356 39.6411C69.6598 39.8824 70.5433 40.2835 71.2815 40.8364C72.0261 41.3941 72.6109 42.118 73.0375 43.0225C73.4641 43.9238 73.6638 45.0056 73.6462 46.2697Z" fill="#A53792"/>
<path d="M77.3584 55.7609C77.3312 56.146 77.3233 56.6094 77.3233 57.1608C77.3233 57.7169 77.3392 58.3257 77.3728 58.9873C77.4079 59.6553 77.4591 60.3632 77.5358 61.1223C77.6061 61.8781 77.7099 62.6532 77.8329 63.4458C79.0057 62.3703 80.0059 61.1878 80.8432 59.9014C81.6724 58.615 82.3594 57.2343 82.8995 55.7545C83.4395 54.2779 83.839 52.7294 84.0962 51.1043C84.3519 49.4791 84.4957 47.7948 84.5244 46.0497C84.526 45.826 84.526 45.5304 84.5244 45.1676C84.5212 44.8081 84.4957 44.4149 84.4493 44.0058C84.4062 43.5904 84.3359 43.1781 84.2496 42.7674C84.1601 42.3567 84.0371 41.9843 83.8789 41.652C83.7175 41.3196 83.5162 41.0511 83.2718 40.8434C83.0225 40.6356 82.7221 40.5365 82.3802 40.5493C81.7219 40.5701 81.1451 40.9105 80.6434 41.5737C80.1417 42.2368 79.7087 43.0758 79.338 44.0921C78.969 45.1021 78.6558 46.2191 78.4018 47.4352C78.1525 48.6561 77.9496 49.8226 77.7946 50.9429C77.6396 52.0615 77.5278 53.065 77.4623 53.9455C77.3984 54.8292 77.3616 55.4365 77.3584 55.7609ZM87.7855 71.4183C87.2167 72.5769 86.4258 73.5069 85.4128 74.2021C84.4014 74.902 83.2526 75.2696 81.9792 75.3111C80.9246 75.3431 79.9883 75.0522 79.1719 74.4386C78.349 73.8297 77.6332 73.0147 77.0181 71.9952C76.4013 70.9773 75.8885 69.8251 75.4618 68.5323C75.0464 67.2459 74.7029 65.9291 74.4361 64.5884C74.1756 63.2524 73.9903 61.958 73.8785 60.7068C73.7682 59.4571 73.7187 58.3689 73.7315 57.434C73.749 56.293 73.8321 55.0402 73.9727 53.6691C74.1133 52.298 74.3322 50.9157 74.6294 49.5158C74.9266 48.1128 75.3085 46.7481 75.7686 45.4217C76.2288 44.0953 76.78 42.9144 77.4287 41.8821C78.0726 40.8513 78.8156 40.0172 79.656 39.3764C80.4916 38.7404 81.4471 38.4 82.5176 38.3648C83.4331 38.3361 84.1697 38.5806 84.7289 39.0967C85.2929 39.6161 85.7355 40.2617 86.0487 41.0383C86.3635 41.815 86.5728 42.6411 86.6718 43.5184C86.7725 44.3958 86.8156 45.1804 86.8028 45.8723C86.7741 47.7388 86.528 49.5845 86.0583 51.4047C85.5885 53.2232 84.9622 54.9491 84.1697 56.5695C83.3756 58.1915 82.4473 59.6713 81.3944 61.012C80.3383 62.3527 79.2054 63.4793 78.0023 64.3966C78.226 65.5472 78.4992 66.6658 78.8188 67.7557C79.1383 68.8407 79.5346 69.8043 80.0027 70.6465C80.4725 71.4822 81.0189 72.1614 81.6404 72.6648C82.2652 73.1729 82.9826 73.4158 83.7926 73.3871C84.6027 73.3631 85.3073 73.1729 85.9001 72.8262C86.4929 72.481 87.0457 71.9776 87.5554 71.324L87.7855 71.4183Z" fill="#A53792"/>
<path d="M90.62 67.2853L91.2687 67.2646C91.8902 67.2454 92.5293 67.1239 93.186 66.905C93.8475 66.6861 94.4467 66.3729 94.9771 65.9654C95.5076 65.5627 95.9534 65.0657 96.3081 64.4872C96.6596 63.9055 96.8433 63.2519 96.8529 62.5248C96.8625 61.8169 96.7219 61.2352 96.4295 60.7766C96.1323 60.3212 95.613 60.1038 94.8701 60.1278C94.1111 60.1502 93.4656 60.4011 92.932 60.8741C92.3967 61.3519 91.9573 61.9256 91.6234 62.6031C91.2831 63.2807 91.0338 63.987 90.8788 64.7237C90.7207 65.462 90.6376 66.1188 90.6296 66.6877L90.62 67.2853ZM103.987 70.0483C103.53 70.7163 102.98 71.3507 102.34 71.9372C101.704 72.53 101.004 73.0446 100.243 73.4841C99.4876 73.9235 98.6999 74.2719 97.8739 74.542C97.0462 74.812 96.2234 74.959 95.3957 74.9846C94.2198 75.0246 93.1253 74.9063 92.1139 74.6362C91.0993 74.3662 90.2158 73.9347 89.4664 73.337C88.7171 72.7378 88.1291 71.9755 87.7136 71.0455C87.2966 70.117 87.0969 69.024 87.1177 67.7631C87.1384 66.5151 87.3829 65.3469 87.8574 64.2523C88.3288 63.156 88.9775 62.1924 89.7924 61.3647C90.6056 60.5337 91.5627 59.8705 92.6556 59.3671C93.7532 58.8654 94.9196 58.5953 96.1643 58.5569C96.7507 58.5362 97.3003 58.6001 97.8036 58.7503C98.3133 58.8989 98.7543 59.1274 99.1265 59.4327C99.5036 59.7427 99.7992 60.1278 100.004 60.5864C100.213 61.0451 100.312 61.5788 100.307 62.1813C100.293 62.9084 100.136 63.5508 99.8344 64.1149C99.5292 64.6758 99.1329 65.1727 98.6456 65.6026C98.1535 66.0325 97.6023 66.3952 96.9823 66.6941C96.364 66.9881 95.7233 67.2342 95.0586 67.4276C94.3923 67.6225 93.7325 67.7679 93.0806 67.867C92.4303 67.9645 91.8439 68.0236 91.307 68.0412L90.6855 68.0588C90.8836 69.628 91.4924 70.8074 92.4942 71.608C93.5008 72.4038 94.9036 72.7745 96.6995 72.7138C97.9761 72.6771 99.2304 72.4086 100.453 71.9212C101.677 71.4354 102.787 70.7754 103.782 69.9476L103.987 70.0483Z" fill="#A53792"/>
<path d="M105.851 66.8001L106.499 66.7777C107.121 66.7585 107.76 66.6387 108.42 66.4198C109.078 66.1992 109.677 65.886 110.208 65.4817C110.741 65.0758 111.184 64.582 111.539 63.9987C111.89 63.4187 112.076 62.7635 112.087 62.0396C112.1 61.3301 111.954 60.7484 111.66 60.2897C111.363 59.8359 110.847 59.617 110.101 59.6409C109.345 59.6649 108.693 59.9142 108.163 60.3888C107.627 60.865 107.191 61.4403 106.857 62.1163C106.517 62.7906 106.268 63.4986 106.11 64.2385C105.953 64.9767 105.868 65.6335 105.86 66.2024L105.851 66.8001ZM119.221 69.5615C118.761 70.2326 118.211 70.8639 117.574 71.4535C116.934 72.0416 116.235 72.5562 115.477 72.9956C114.722 73.4351 113.931 73.7882 113.105 74.0583C112.28 74.322 111.454 74.4722 110.626 74.4978C109.454 74.5361 108.356 74.4195 107.345 74.1526C106.33 73.8793 105.45 73.4447 104.694 72.8486C103.945 72.2509 103.363 71.4887 102.944 70.5618C102.527 69.6334 102.331 68.5355 102.352 67.2747C102.366 66.0282 102.615 64.8585 103.088 63.7638C103.563 62.6708 104.208 61.7072 105.023 60.8778C105.836 60.0484 106.793 59.3853 107.886 58.8819C108.984 58.3801 110.154 58.1084 111.395 58.0701C111.985 58.0509 112.528 58.1164 113.037 58.2618C113.544 58.4137 113.982 58.6406 114.36 58.9474C114.738 59.2558 115.03 59.6409 115.238 60.1012C115.444 60.5598 115.543 61.0903 115.535 61.696C115.525 62.4231 115.364 63.0655 115.065 63.6296C114.763 64.1905 114.367 64.6875 113.876 65.1158C113.384 65.5472 112.833 65.9084 112.213 66.2072C111.601 66.5013 110.954 66.7489 110.289 66.9423C109.62 67.1357 108.963 67.2827 108.314 67.3818C107.667 67.4792 107.078 67.5368 106.541 67.5559L105.915 67.5735C106.118 69.1412 106.72 70.3205 107.728 71.1179C108.731 71.9201 110.134 72.2877 111.932 72.2302C113.207 72.187 114.461 71.9249 115.683 71.4343C116.907 70.9454 118.018 70.2886 119.016 69.4608L119.221 69.5615Z" fill="#A53792"/>
<path d="M129.01 60.8739C128.144 60.9043 127.432 61.1983 126.871 61.7576C126.312 62.3233 125.848 63.0201 125.484 63.8511C125.117 64.6852 124.831 65.5945 124.624 66.5885C124.422 67.5776 124.251 68.5157 124.116 69.4042C124.95 69.0494 125.744 68.6244 126.505 68.121C127.264 67.6224 127.921 67.0775 128.485 66.491C129.044 65.9013 129.498 65.2797 129.835 64.6181C130.172 63.9613 130.344 63.2806 130.357 62.5678C130.362 62.1172 130.253 61.7209 130.025 61.3741C129.798 61.0274 129.461 60.8612 129.01 60.8739ZM139.118 68.6627C138.763 69.3499 138.354 70.0098 137.896 70.6474C137.437 71.2851 136.911 71.8572 136.317 72.3573C135.721 72.8575 135.058 73.265 134.331 73.5734C133.601 73.8787 132.779 74.0512 131.864 74.0816C130.204 74.1311 128.851 73.794 127.798 73.0716C126.748 72.3414 125.874 71.3074 125.171 69.9635C124.958 70.0594 124.757 70.1409 124.557 70.2064C124.358 70.2703 124.161 70.3438 123.971 70.4173C123.931 70.713 123.894 70.9798 123.856 71.2275C123.814 71.4672 123.778 71.6942 123.741 71.9035C123.704 72.1272 123.656 72.3701 123.6 72.6306C123.544 72.8927 123.453 73.1404 123.327 73.3673C123.204 73.5942 123.041 73.7844 122.83 73.941C122.618 74.0928 122.333 74.1743 121.971 74.1871C121.454 74.2046 121.095 74.0576 120.89 73.7444C120.691 73.4264 120.529 73.0844 120.414 72.7073C120.168 71.8875 119.946 70.8935 119.75 69.7238C119.55 68.554 119.384 67.3475 119.248 66.0995C119.111 64.8498 119.01 63.6146 118.943 62.3905C118.874 61.1648 118.847 60.0781 118.863 59.1257C118.877 57.9863 118.93 56.7782 119.018 55.5094C119.111 54.2358 119.248 52.9478 119.441 51.6454C119.635 50.343 119.893 49.0534 120.215 47.7718C120.534 46.4933 120.94 45.2661 121.424 44.0931C121.905 42.9202 122.48 41.8223 123.143 40.8108C123.806 39.7976 124.583 38.9139 125.474 38.1581C125.877 37.8161 126.334 37.5204 126.845 37.2616C127.361 37.0027 127.868 36.8637 128.368 36.8493C128.576 36.8429 128.811 36.8812 129.081 36.9691C129.344 37.057 129.477 37.2264 129.474 37.4869C129.47 37.6243 129.397 37.7905 129.256 37.9855C126.737 41.4692 124.891 45.143 123.73 49.0054C122.565 52.8742 121.951 56.946 121.884 61.2351C121.854 62.9961 121.915 64.6916 122.054 66.32C122.189 67.9484 122.386 69.6471 122.635 71.4177C122.718 70.5196 122.832 69.5512 122.979 68.5205C123.123 67.4866 123.321 66.4654 123.568 65.4555C123.814 64.4439 124.128 63.4707 124.508 62.5327C124.883 61.5994 125.343 60.7701 125.891 60.0414C126.438 59.3175 127.071 58.7294 127.793 58.2835C128.517 57.8377 129.365 57.598 130.33 57.5692C131.351 57.5357 132.187 57.8073 132.855 58.3794C133.521 58.9579 133.844 59.7649 133.828 60.8004C133.818 61.3869 133.714 61.9686 133.518 62.5471C133.316 63.1208 133.054 63.6705 132.727 64.1898C132.401 64.7076 132.029 65.1998 131.618 65.6616C131.204 66.1266 130.777 66.5293 130.341 66.8697C129.713 67.3731 129.025 67.8621 128.274 68.3351C128.544 68.8641 128.844 69.361 129.186 69.8245C129.523 70.2879 129.895 70.6906 130.305 71.0294C130.714 71.373 131.172 71.6398 131.68 71.83C132.183 72.0186 132.748 72.1096 133.369 72.0873C133.923 72.0713 134.464 71.961 134.991 71.7629C135.521 71.5631 136.025 71.3058 136.494 70.991C136.966 70.673 137.405 70.3055 137.816 69.8836C138.231 69.4665 138.602 69.0271 138.94 68.5668L139.118 68.6627Z" fill="#A53792"/>
</g>
</g>
<rect width="178" height="118" fill="black" style="mix-blend-mode:hue"/>
</g>
<defs>
<clipPath id="clip0_283_7413">
<rect width="178" height="118" fill="white"/>
</clipPath>
<clipPath id="clip1_283_7413">
<rect width="177.807" height="91.013" fill="white" transform="translate(0 13)"/>
</clipPath>
</defs>
</svg>