<svg xmlns:xlink="http://www.w3.org/1999/xlink" xmlns="http://www.w3.org/2000/svg" width="68" height="50" viewBox="0 0 68 50" fill="none">
<path d="M24.7895 43.0374C24.0156 43.7598 23.4167 44.2434 22.8046 44.5968C19.8083 46.3267 16.1169 46.3267 13.1206 44.5968C12.0165 43.9593 10.9552 42.898 8.8325 40.7756C6.70982 38.6528 5.64846 37.5915 5.01103 36.4872C3.28115 33.491 3.28115 29.7995 5.01103 26.8033C5.64846 25.6993 6.70982 24.6379 8.8325 22.5152L17.9626 13.3851C20.0853 11.2624 21.1466 10.2011 22.2507 9.56365C25.247 7.83378 28.9385 7.83378 31.9347 9.56362C33.0387 10.2011 34.1001 11.2624 36.2228 13.3851C38.3455 15.5078 39.4068 16.5691 40.0444 17.6732C41.7742 20.6694 41.7742 24.361 40.0444 27.3572C39.6909 27.9692 39.2074 28.5683 38.4846 29.3421M29.3959 20.2534C28.6732 21.0271 28.1896 21.6262 27.8362 22.2382C26.1064 25.2345 26.1064 28.926 27.8362 31.9222C28.4737 33.0265 29.535 34.0878 31.6578 36.2102C33.7805 38.3329 34.8418 39.3943 35.9458 40.0318C38.942 41.7617 42.6335 41.7617 45.6297 40.0318C46.734 39.3943 47.7954 38.3329 49.9181 36.2102L59.0481 27.0802C61.1708 24.9575 62.2322 23.8961 62.8694 22.7922C64.5993 19.796 64.5993 16.1044 62.8694 13.1082C62.2322 12.0041 61.1708 10.9427 59.0481 8.82005C56.9254 6.69737 55.864 5.63604 54.7601 4.99858C51.7635 3.2687 48.0724 3.2687 45.0761 4.99858C44.4638 5.35198 43.865 5.83562 43.0909 6.55818" stroke="#001F4E" stroke-width="6.45596" stroke-linecap="round"/>
</svg>